<svg width="40" height="40" viewBox="0 0 40 40" fill="none" xmlns="http://www.w3.org/2000/svg">
<path d="M2.62539 8C2.11558 8 1.70231 8.41328 1.70231 8.92308C1.70231 9.43288 2.11558 9.84615 2.62539 9.84615H10.6254C11.1352 9.84615 11.5485 9.43288 11.5485 8.92308C11.5485 8.41328 11.1352 8 10.6254 8H2.62539Z" fill="#F4405F"/>
<path d="M5.75651 13.2088C5.57191 12.4352 6.1584 11.6923 6.95366 11.6923H37.0664C37.8616 11.6923 38.4481 12.4352 38.2635 13.2088L37.6256 15.8819C37.6091 15.9511 37.5472 16 37.476 16H11.7023C11.6174 16 11.5485 16.0689 11.5485 16.1538C11.5485 16.2388 11.6174 16.3077 11.7023 16.3077H37.4266C37.4763 16.3077 37.5129 16.3541 37.5014 16.4025L36.5242 20.4972C36.5077 20.5665 36.4458 20.6154 36.3746 20.6154H14.1639C14.0789 20.6154 14.01 20.6843 14.01 20.7692C14.01 20.8542 14.0789 20.9231 14.1639 20.9231H36.3252C36.3749 20.9231 36.4115 20.9695 36.4 21.0179L35.6202 24.2857C35.4879 24.8398 34.9927 25.2308 34.423 25.2308H9.59702C9.02733 25.2308 8.5321 24.8398 8.39986 24.2857L5.75651 13.2088Z" fill="#F4405F"/>
<path d="M14.1638 29.2308C14.1638 30.7602 12.924 32 11.3946 32C9.86521 32 8.62539 30.7602 8.62539 29.2308C8.62539 27.7014 9.86521 26.4615 11.3946 26.4615C12.924 26.4615 14.1638 27.7014 14.1638 29.2308Z" fill="#F4405F"/>
<path d="M32.6254 32C34.1548 32 35.3946 30.7602 35.3946 29.2308C35.3946 27.7014 34.1548 26.4615 32.6254 26.4615C31.096 26.4615 29.8562 27.7014 29.8562 29.2308C29.8562 30.7602 31.096 32 32.6254 32Z" fill="#F4405F"/>
</svg>
