<svg width="375" height="812" viewBox="0 0 375 812" fill="none" xmlns="http://www.w3.org/2000/svg">
<rect width="375" height="812" rx="25" fill="#161B1F"/>
<path d="M28.8906 76.0586V73.0938H33.1797C33.8281 73.0938 34.3516 72.9883 34.75 72.7773C35.1562 72.5664 35.4531 72.2773 35.6406 71.9102C35.8281 71.543 35.9219 71.1211 35.9219 70.6445C35.9219 70.168 35.8281 69.7227 35.6406 69.3086C35.4531 68.8867 35.1562 68.5508 34.75 68.3008C34.3516 68.043 33.8281 67.9141 33.1797 67.9141H30.1562V82H26.4648V64.9375H33.1797C34.5312 64.9375 35.6914 65.1836 36.6602 65.6758C37.6289 66.168 38.3711 66.8438 38.8867 67.7031C39.4023 68.5547 39.6602 69.5273 39.6602 70.6211C39.6602 71.7305 39.4023 72.6914 38.8867 73.5039C38.3711 74.3164 37.6289 74.9453 36.6602 75.3906C35.6914 75.8359 34.5312 76.0586 33.1797 76.0586H28.8906ZM48.4258 73.5508C48.4258 72.9805 48.2852 72.5273 48.0039 72.1914C47.7227 71.8555 47.2734 71.6875 46.6562 71.6875C46.3047 71.6875 46 71.7461 45.7422 71.8633C45.4844 71.9805 45.2891 72.1484 45.1562 72.3672C45.0234 72.5781 44.957 72.8398 44.957 73.1523H41.418C41.418 72.4023 41.6406 71.7227 42.0859 71.1133C42.5312 70.4961 43.1602 70.0039 43.9727 69.6367C44.7852 69.2695 45.7422 69.0859 46.8438 69.0859C47.8281 69.0859 48.707 69.2539 49.4805 69.5898C50.2539 69.918 50.8633 70.4141 51.3086 71.0781C51.7539 71.7422 51.9766 72.5742 51.9766 73.5742V78.8711C51.9766 79.6211 52.0195 80.2148 52.1055 80.6523C52.1992 81.0898 52.3281 81.4727 52.4922 81.8008V82H48.9297C48.7578 81.6406 48.6289 81.1914 48.543 80.6523C48.4648 80.1133 48.4258 79.5664 48.4258 79.0117V73.5508ZM48.9062 76.2812H47.1016C46.2422 76.2812 45.6211 76.4688 45.2383 76.8438C44.8555 77.2109 44.6641 77.6562 44.6641 78.1797C44.6641 78.5781 44.8047 78.9062 45.0859 79.1641C45.3672 79.4219 45.7461 79.5508 46.2227 79.5508C46.7148 79.5508 47.1367 79.457 47.4883 79.2695C47.8477 79.0742 48.1211 78.8438 48.3086 78.5781C48.5039 78.3047 48.5977 78.0547 48.5898 77.8281L49.5039 79.3516C49.3789 79.6641 49.2109 79.9883 49 80.3242C48.7969 80.6602 48.5352 80.9727 48.2148 81.2617C47.8945 81.5508 47.5039 81.7852 47.043 81.9648C46.5898 82.1445 46.0547 82.2344 45.4375 82.2344C44.6406 82.2344 43.9141 82.0742 43.2578 81.7539C42.6016 81.4258 42.082 80.9766 41.6992 80.4062C41.3164 79.8281 41.125 79.168 41.125 78.4258C41.125 77.0977 41.6172 76.0703 42.6016 75.3438C43.5859 74.6094 45.0508 74.2422 46.9961 74.2422H48.8828L48.9062 76.2812ZM61.5742 69.3203H65.3594L60.2969 83.8984C60.1875 84.2109 60.0391 84.5508 59.8516 84.918C59.6641 85.293 59.4141 85.6484 59.1016 85.9844C58.7969 86.3203 58.4062 86.5938 57.9297 86.8047C57.4609 87.0156 56.8867 87.1211 56.207 87.1211C55.9883 87.1211 55.7969 87.1133 55.6328 87.0977C55.4766 87.082 55.3242 87.0547 55.1758 87.0156C55.0273 86.9844 54.8594 86.9453 54.6719 86.8984V84.2266C54.7578 84.2266 54.8438 84.2266 54.9297 84.2266C55.0234 84.2344 55.1094 84.2383 55.1875 84.2383C55.8516 84.2383 56.3359 84.1367 56.6406 83.9336C56.9453 83.7305 57.1758 83.4062 57.332 82.9609L58.2578 80.5352L61.5742 69.3203ZM59.6992 78.2852L60.1797 82.1875L57.7891 82.3516L53.2539 69.3203H57.0625L59.6992 78.2852ZM86.8281 82H83.1484L76.5273 71.0195V82H72.8477V64.9375H76.5273L83.1602 75.9297V64.9375H86.8281V82ZM89.0664 75.543C89.0664 74.3086 89.3008 73.207 89.7695 72.2383C90.2383 71.2617 90.9219 70.4922 91.8203 69.9297C92.7188 69.3672 93.8086 69.0859 95.0898 69.0859C96.3867 69.0859 97.4844 69.3672 98.3828 69.9297C99.2891 70.4922 99.9727 71.2617 100.434 72.2383C100.902 73.207 101.137 74.3086 101.137 75.543V75.7891C101.137 77.0156 100.902 78.1172 100.434 79.0938C99.9727 80.0703 99.293 80.8398 98.3945 81.4023C97.4961 81.957 96.4023 82.2344 95.1133 82.2344C93.8242 82.2344 92.7266 81.957 91.8203 81.4023C90.9219 80.8398 90.2383 80.0703 89.7695 79.0938C89.3008 78.1172 89.0664 77.0156 89.0664 75.7891V75.543ZM92.6172 75.7891C92.6172 76.4531 92.6953 77.0586 92.8516 77.6055C93.0156 78.1523 93.2773 78.5859 93.6367 78.9062C94.0039 79.2266 94.4961 79.3867 95.1133 79.3867C95.7227 79.3867 96.207 79.2266 96.5664 78.9062C96.9336 78.5859 97.1953 78.1523 97.3516 77.6055C97.5156 77.0586 97.5977 76.4531 97.5977 75.7891V75.543C97.5977 74.8945 97.5156 74.2969 97.3516 73.75C97.1953 73.1953 96.9336 72.7539 96.5664 72.4258C96.207 72.0977 95.7148 71.9336 95.0898 71.9336C94.4805 71.9336 93.9922 72.0977 93.625 72.4258C93.2656 72.7539 93.0078 73.1953 92.8516 73.75C92.6953 74.2969 92.6172 74.8945 92.6172 75.543V75.7891ZM109.398 69.3203H111.625L110.945 73.293L108.344 82H106.48L106.785 78.5547L109.398 69.3203ZM107.441 78.5312L107.57 82H105.391L102.203 69.3203H105.613L107.441 78.5312ZM115.727 69.3203H119.137L115.961 82H113.781L113.934 78.3672L115.727 69.3203ZM114.555 78.5078L114.871 82H112.996L110.395 73.3164L109.738 69.3203H111.941L114.555 78.5078Z" fill="#F5F5F5"/>
<path d="M331.13 67.295C331 67.477 331 67.735 331 68.25C331 68.765 331 69.023 331.13 69.205C331.175 69.2692 331.231 69.3253 331.295 69.371C331.477 69.5 331.735 69.5 332.25 69.5C332.765 69.5 333.023 69.5 333.205 69.37C333.269 69.3247 333.325 69.2689 333.371 69.205C333.5 69.023 333.5 68.765 333.5 68.25C333.5 67.735 333.5 67.477 333.37 67.295C333.325 67.2308 333.269 67.1747 333.205 67.129C333.023 67 332.765 67 332.25 67C331.735 67 331.477 67 331.295 67.13C331.231 67.1753 331.176 67.2311 331.13 67.295Z" fill="#F5F5F5"/>
<path fill-rule="evenodd" clip-rule="evenodd" d="M334.704 63.29C335.147 63.332 335.559 63.424 335.937 63.655C336.307 63.882 336.618 64.193 336.845 64.563C337.076 64.941 337.168 65.353 337.21 65.796C337.25 66.219 337.25 66.74 337.25 67.364V68.552C337.25 69.45 337.25 70.2 337.17 70.794C337.086 71.422 336.9 71.989 336.444 72.444C335.989 72.9 335.422 73.086 334.794 73.17C334.2 73.25 333.45 73.25 332.552 73.25H331.364C330.74 73.25 330.219 73.25 329.796 73.21C329.353 73.168 328.941 73.076 328.563 72.845C328.193 72.6182 327.882 72.3071 327.655 71.937C327.424 71.559 327.332 71.147 327.29 70.704C327.25 70.281 327.25 69.76 327.25 69.136V69.062C327.25 68.112 327.25 67.346 327.309 66.729C327.369 66.093 327.497 65.539 327.803 65.041C328.112 64.5365 328.536 64.1123 329.04 63.803C329.538 63.497 330.092 63.369 330.728 63.309C331.345 63.25 332.111 63.25 333.061 63.25H333.135C333.759 63.25 334.28 63.25 334.703 63.29H334.704ZM334.562 64.783C334.218 64.751 333.77 64.75 333.1 64.75C332.103 64.75 331.409 64.75 330.871 64.802C330.345 64.852 330.047 64.945 329.824 65.082C329.522 65.2674 329.267 65.5216 329.082 65.824C328.945 66.047 328.852 66.345 328.802 66.871C328.75 67.41 328.75 68.103 328.75 69.1C328.75 69.77 328.75 70.218 328.783 70.562C328.815 70.895 328.871 71.05 328.934 71.153C329.037 71.321 329.179 71.463 329.347 71.566C329.45 71.629 329.605 71.685 329.937 71.716C330.282 71.749 330.731 71.75 331.4 71.75H332.5C333.464 71.75 334.112 71.748 334.595 71.683C335.056 71.621 335.254 71.514 335.384 71.383C335.514 71.253 335.621 71.056 335.684 70.595C335.748 70.112 335.75 69.464 335.75 68.5V67.4C335.75 66.73 335.75 66.282 335.717 65.938C335.685 65.605 335.629 65.45 335.566 65.347C335.463 65.1787 335.321 65.0371 335.153 64.934C335.05 64.871 334.895 64.815 334.563 64.784L334.562 64.783Z" fill="#F5F5F5"/>
<path d="M342.63 67.295C342.5 67.477 342.5 67.735 342.5 68.25C342.5 68.765 342.5 69.023 342.63 69.205C342.675 69.2692 342.731 69.3253 342.795 69.371C342.977 69.5 343.235 69.5 343.75 69.5C344.265 69.5 344.523 69.5 344.705 69.37C344.769 69.3247 344.825 69.2689 344.871 69.205C345 69.023 345 68.765 345 68.25C345 67.735 345 67.477 344.87 67.295C344.825 67.2308 344.769 67.1747 344.705 67.129C344.523 67 344.265 67 343.75 67C343.235 67 342.977 67 342.795 67.13C342.731 67.1753 342.676 67.2311 342.63 67.295Z" fill="#F5F5F5"/>
<path fill-rule="evenodd" clip-rule="evenodd" d="M342.864 63.25H342.938C343.888 63.25 344.654 63.25 345.271 63.309C345.907 63.369 346.461 63.497 346.959 63.803C347.464 64.112 347.889 64.536 348.197 65.041C348.503 65.539 348.631 66.093 348.691 66.729C348.75 67.346 348.75 68.112 348.75 69.062V69.136C348.75 69.76 348.75 70.281 348.71 70.704C348.668 71.147 348.576 71.559 348.345 71.937C348.118 72.307 347.807 72.618 347.437 72.845C347.059 73.076 346.647 73.168 346.204 73.21C345.781 73.25 345.26 73.25 344.636 73.25H343.448C342.549 73.25 341.8 73.25 341.206 73.17C340.578 73.086 340.011 72.9 339.556 72.444C339.1 71.989 338.914 71.422 338.83 70.794C338.75 70.2 338.75 69.45 338.75 68.552V67.364C338.75 66.74 338.75 66.219 338.79 65.796C338.832 65.353 338.924 64.941 339.155 64.563C339.382 64.1929 339.693 63.8818 340.063 63.655C340.441 63.424 340.853 63.332 341.296 63.29C341.719 63.25 342.24 63.25 342.864 63.25ZM341.438 64.783C341.105 64.815 340.95 64.871 340.847 64.934C340.679 65.0371 340.537 65.1787 340.434 65.347C340.371 65.45 340.315 65.605 340.284 65.937C340.251 66.282 340.25 66.731 340.25 67.4V68.5C340.25 69.464 340.252 70.112 340.316 70.595C340.379 71.056 340.486 71.254 340.616 71.384C340.746 71.514 340.944 71.621 341.406 71.684C341.888 71.748 342.536 71.75 343.5 71.75H344.6C345.27 71.75 345.718 71.75 346.062 71.717C346.395 71.685 346.55 71.629 346.653 71.566C346.821 71.4629 346.963 71.3213 347.066 71.153C347.129 71.05 347.185 70.895 347.216 70.563C347.249 70.218 347.25 69.769 347.25 69.1C347.25 68.103 347.25 67.409 347.198 66.871C347.148 66.345 347.055 66.047 346.918 65.824C346.733 65.5216 346.478 65.2674 346.176 65.082C345.953 64.945 345.655 64.852 345.129 64.802C344.591 64.751 343.897 64.75 342.9 64.75C342.23 64.75 341.782 64.75 341.438 64.783Z" fill="#F5F5F5"/>
<path d="M331 79.75C331 79.235 331 78.977 331.13 78.795C331.175 78.7308 331.231 78.6747 331.295 78.629C331.477 78.5 331.735 78.5 332.25 78.5C332.765 78.5 333.023 78.5 333.205 78.63C333.269 78.6753 333.325 78.7311 333.371 78.795C333.5 78.977 333.5 79.235 333.5 79.75C333.5 80.265 333.5 80.523 333.37 80.705C333.325 80.7692 333.269 80.8253 333.205 80.871C333.023 81 332.765 81 332.25 81C331.735 81 331.477 81 331.295 80.87C331.231 80.8247 331.175 80.7689 331.129 80.705C331 80.523 331 80.265 331 79.75Z" fill="#F5F5F5"/>
<path fill-rule="evenodd" clip-rule="evenodd" d="M334.794 74.83C335.422 74.914 335.989 75.1 336.444 75.556C336.9 76.011 337.086 76.578 337.17 77.206C337.25 77.8 337.25 78.549 337.25 79.448V80.636C337.25 81.26 337.25 81.781 337.21 82.204C337.168 82.646 337.076 83.059 336.845 83.437C336.618 83.807 336.307 84.118 335.937 84.345C335.559 84.577 335.147 84.668 334.704 84.71C334.281 84.75 333.76 84.75 333.136 84.75H333.062C332.112 84.75 331.346 84.75 330.729 84.691C330.093 84.631 329.539 84.503 329.041 84.197C328.536 83.8878 328.112 83.4636 327.803 82.959C327.497 82.461 327.369 81.907 327.309 81.271C327.25 80.654 327.25 79.888 327.25 78.938V78.864C327.25 78.24 327.25 77.719 327.29 77.296C327.332 76.854 327.424 76.441 327.655 76.063C327.882 75.6929 328.193 75.3818 328.563 75.155C328.941 74.924 329.353 74.832 329.796 74.79C330.219 74.75 330.74 74.75 331.364 74.75H332.552C333.45 74.75 334.2 74.75 334.794 74.83ZM334.594 76.316C334.112 76.252 333.464 76.25 332.5 76.25H331.4C330.73 76.25 330.282 76.25 329.938 76.284C329.605 76.315 329.45 76.371 329.347 76.434C329.179 76.5371 329.037 76.6787 328.934 76.847C328.871 76.95 328.815 77.105 328.784 77.437C328.751 77.782 328.75 78.231 328.75 78.9C328.75 79.897 328.75 80.591 328.802 81.129C328.852 81.655 328.945 81.953 329.082 82.176C329.267 82.478 329.522 82.733 329.824 82.918C330.047 83.055 330.345 83.148 330.871 83.198C331.409 83.249 332.103 83.25 333.1 83.25C333.77 83.25 334.218 83.25 334.562 83.216C334.895 83.185 335.05 83.129 335.153 83.066C335.321 82.9629 335.463 82.8213 335.566 82.653C335.629 82.55 335.685 82.395 335.716 82.063C335.749 81.718 335.75 81.269 335.75 80.6V79.5C335.75 78.536 335.748 77.888 335.683 77.405C335.621 76.944 335.514 76.746 335.383 76.616C335.253 76.486 335.056 76.379 334.595 76.316H334.594Z" fill="#F5F5F5"/>
<path d="M342.962 74.75H345V76.25H343C342.282 76.25 341.8 76.25 341.433 76.288C341.078 76.324 340.914 76.388 340.806 76.461C340.669 76.5523 340.552 76.6695 340.461 76.806C340.388 76.914 340.324 77.078 340.288 77.433C340.251 77.8 340.25 78.283 340.25 79H338.75V78.962C338.75 78.292 338.75 77.733 338.796 77.281C338.844 76.807 338.949 76.368 339.214 75.972C339.414 75.672 339.672 75.414 339.972 75.214C340.368 74.949 340.807 74.844 341.281 74.796C341.733 74.75 342.293 74.75 342.962 74.75ZM338.75 84V81H340.25V84C340.25 84.1989 340.171 84.3897 340.03 84.5303C339.89 84.671 339.699 84.75 339.5 84.75C339.301 84.75 339.11 84.671 338.97 84.5303C338.829 84.3897 338.75 84.1989 338.75 84ZM348.75 75.5C348.75 75.3011 348.671 75.1103 348.53 74.9697C348.39 74.829 348.199 74.75 348 74.75C347.801 74.75 347.61 74.829 347.47 74.9697C347.329 75.1103 347.25 75.3011 347.25 75.5V79H348.75V75.5ZM347.25 81C347.25 81.476 347.25 81.796 347.233 82.043C347.216 82.284 347.187 82.401 347.155 82.478C347.092 82.6298 347 82.7677 346.884 82.8839C346.768 83.0001 346.63 83.0922 346.478 83.155C346.401 83.187 346.284 83.216 346.043 83.233C345.796 83.25 345.476 83.25 345 83.25H343V84.75H345.025C345.47 84.75 345.841 84.75 346.145 84.73C346.462 84.708 346.762 84.661 347.052 84.54C347.386 84.4019 347.689 84.1994 347.945 83.9441C348.2 83.6888 348.403 83.3857 348.541 83.052C348.661 82.762 348.708 82.462 348.729 82.145C348.75 81.841 348.75 81.47 348.75 81.025V81H347.25ZM342.169 78.444C342 78.697 342 79.048 342 79.75C342 80.452 342 80.803 342.169 81.056C342.242 81.1648 342.335 81.2582 342.444 81.331C342.697 81.5 343.048 81.5 343.75 81.5C344.452 81.5 344.803 81.5 345.056 81.331C345.165 81.2582 345.258 81.1648 345.331 81.056C345.5 80.803 345.5 80.452 345.5 79.75C345.5 79.048 345.5 78.697 345.331 78.444C345.258 78.3352 345.165 78.2418 345.056 78.169C344.803 78 344.452 78 343.75 78C343.048 78 342.697 78 342.444 78.169C342.335 78.2418 342.242 78.3352 342.169 78.444Z" fill="#F5F5F5"/>
<path d="M31.0645 18.3613C31.0645 19.2871 30.9551 20.0254 30.7363 20.5762C30.5215 21.123 30.2129 21.5176 29.8105 21.7598C29.4082 21.998 28.9316 22.1172 28.3809 22.1172C27.8379 22.1172 27.3633 21.998 26.957 21.7598C26.5508 21.5176 26.2344 21.123 26.0078 20.5762C25.7852 20.0254 25.6738 19.2871 25.6738 18.3613V17.0547C25.6738 16.125 25.7832 15.3906 26.002 14.8516C26.2246 14.3125 26.5371 13.9277 26.9395 13.6973C27.3457 13.4668 27.8223 13.3516 28.3691 13.3516C28.9199 13.3516 29.3965 13.4668 29.7988 13.6973C30.2012 13.9277 30.5117 14.3125 30.7305 14.8516C30.9531 15.3906 31.0645 16.125 31.0645 17.0547V18.3613ZM29.9688 16.873C29.9688 16.2324 29.9082 15.7188 29.7871 15.332C29.666 14.9453 29.4863 14.666 29.248 14.4941C29.0098 14.3184 28.7168 14.2305 28.3691 14.2305C28.0254 14.2305 27.7344 14.3184 27.4961 14.4941C27.2578 14.666 27.0762 14.9453 26.9512 15.332C26.8301 15.7188 26.7695 16.2324 26.7695 16.873V18.5312C26.7695 19.168 26.832 19.6855 26.957 20.084C27.082 20.4824 27.2637 20.7754 27.502 20.9629C27.7441 21.1465 28.0371 21.2383 28.3809 21.2383C28.7324 21.2383 29.0254 21.1465 29.2598 20.9629C29.4941 20.7754 29.6699 20.4824 29.7871 20.084C29.9082 19.6855 29.9688 19.168 29.9688 18.5312V16.873ZM33.6484 21.0977C34.2734 21.0977 34.7812 21.0098 35.1719 20.834C35.5625 20.6582 35.8613 20.4219 36.0684 20.125C36.2793 19.8242 36.4238 19.4883 36.502 19.1172C36.5801 18.7422 36.6191 18.3574 36.6191 17.9629V16.6562C36.6191 16.1367 36.543 15.6973 36.3906 15.3379C36.2383 14.9785 36.0371 14.707 35.7871 14.5234C35.541 14.3359 35.2734 14.2422 34.9844 14.2422C34.6523 14.2422 34.3672 14.3301 34.1289 14.5059C33.8945 14.6816 33.7148 14.9199 33.5898 15.2207C33.4688 15.5215 33.4082 15.8613 33.4082 16.2402C33.4082 16.5762 33.4629 16.8984 33.5723 17.207C33.6855 17.5156 33.8555 17.7676 34.082 17.9629C34.3125 18.1582 34.6016 18.2559 34.9492 18.2559C35.1875 18.2559 35.4121 18.207 35.623 18.1094C35.8379 18.0117 36.0273 17.8809 36.1914 17.7168C36.3555 17.5488 36.4883 17.3594 36.5898 17.1484C36.6914 16.9336 36.75 16.7109 36.7656 16.4805H37.2871C37.2871 16.8047 37.2227 17.125 37.0938 17.4414C36.9688 17.7578 36.793 18.0449 36.5664 18.3027C36.3398 18.5605 36.0742 18.7656 35.7695 18.918C35.4648 19.0703 35.1328 19.1465 34.7734 19.1465C34.2109 19.1465 33.75 19.0059 33.3906 18.7246C33.0312 18.4434 32.7656 18.0859 32.5938 17.6523C32.4219 17.2148 32.3359 16.7637 32.3359 16.2988C32.3359 15.7559 32.4355 15.2617 32.6348 14.8164C32.834 14.3711 33.1309 14.0156 33.5254 13.75C33.9199 13.4844 34.4062 13.3516 34.9844 13.3516C35.4727 13.3516 35.8887 13.4492 36.2324 13.6445C36.5801 13.8359 36.8613 14.0957 37.0762 14.4238C37.2949 14.752 37.4551 15.1211 37.5566 15.5312C37.6582 15.9414 37.709 16.3633 37.709 16.7969V17.2012C37.709 17.6465 37.6797 18.0977 37.6211 18.5547C37.5664 19.0078 37.459 19.4414 37.2988 19.8555C37.1426 20.2656 36.9141 20.6348 36.6133 20.9629C36.3125 21.2871 35.9199 21.543 35.4355 21.7305C34.9551 21.918 34.3594 22.0117 33.6484 22.0117H33.5371V21.0977H33.6484ZM39.2793 21.4316C39.2793 21.248 39.3359 21.0938 39.4492 20.9688C39.5664 20.8398 39.7344 20.7754 39.9531 20.7754C40.1758 20.7754 40.3438 20.8398 40.457 20.9688C40.5742 21.0938 40.6328 21.248 40.6328 21.4316C40.6328 21.6113 40.5742 21.7617 40.457 21.8828C40.3438 22.0039 40.1758 22.0645 39.9531 22.0645C39.7344 22.0645 39.5664 22.0039 39.4492 21.8828C39.3359 21.7617 39.2793 21.6113 39.2793 21.4316ZM39.2852 16.252C39.2852 16.0684 39.3418 15.9141 39.4551 15.7891C39.5723 15.6602 39.7402 15.5957 39.959 15.5957C40.1816 15.5957 40.3496 15.6602 40.4629 15.7891C40.5801 15.9141 40.6387 16.0684 40.6387 16.252C40.6387 16.4316 40.5801 16.582 40.4629 16.7031C40.3496 16.8242 40.1816 16.8848 39.959 16.8848C39.7402 16.8848 39.5723 16.8242 39.4551 16.7031C39.3418 16.582 39.2852 16.4316 39.2852 16.252ZM44.4824 17.207C44.8574 17.207 45.168 17.1426 45.4141 17.0137C45.6641 16.8848 45.8496 16.7109 45.9707 16.4922C46.0957 16.2695 46.1582 16.0176 46.1582 15.7363C46.1582 15.4121 46.1035 15.1387 45.9941 14.916C45.8848 14.6895 45.7207 14.5195 45.502 14.4062C45.2832 14.2891 45.0078 14.2305 44.6758 14.2305C44.3711 14.2305 44.1035 14.291 43.873 14.4121C43.6426 14.5332 43.4629 14.7031 43.334 14.9219C43.2051 15.1406 43.1406 15.4004 43.1406 15.7012H42.0449C42.0449 15.2637 42.1543 14.8691 42.373 14.5176C42.5918 14.1621 42.8984 13.8789 43.293 13.668C43.6875 13.457 44.1484 13.3516 44.6758 13.3516C45.1914 13.3516 45.6426 13.4434 46.0293 13.627C46.416 13.8066 46.7168 14.0762 46.9316 14.4355C47.1465 14.791 47.2539 15.2324 47.2539 15.7598C47.2539 15.9785 47.2031 16.209 47.1016 16.4512C47.0039 16.6934 46.8496 16.9219 46.6387 17.1367C46.4316 17.3477 46.1621 17.5215 45.8301 17.6582C45.498 17.791 45.0996 17.8574 44.6348 17.8574H43.709V17.207H44.4824ZM43.709 17.4414H44.6348C45.1777 17.4414 45.627 17.5059 45.9824 17.6348C46.3379 17.7637 46.6172 17.9355 46.8203 18.1504C47.0273 18.3613 47.1719 18.5957 47.2539 18.8535C47.3398 19.1113 47.3828 19.3672 47.3828 19.6211C47.3828 20.1523 47.2637 20.6035 47.0254 20.9746C46.791 21.3457 46.4688 21.6289 46.0586 21.8242C45.6523 22.0195 45.1934 22.1172 44.6816 22.1172C44.3105 22.1172 43.9609 22.0645 43.6328 21.959C43.3047 21.8535 43.0156 21.7012 42.7656 21.502C42.5195 21.2988 42.3262 21.0508 42.1855 20.7578C42.0449 20.4609 41.9746 20.123 41.9746 19.7441H43.0703C43.0703 20.041 43.1348 20.3027 43.2637 20.5293C43.3965 20.752 43.582 20.9258 43.8203 21.0508C44.0625 21.1758 44.3496 21.2383 44.6816 21.2383C45.1777 21.2383 45.5684 21.1055 45.8535 20.8398C46.1426 20.5742 46.2871 20.1758 46.2871 19.6445C46.2871 19.2891 46.2129 18.9961 46.0645 18.7656C45.916 18.5352 45.707 18.3652 45.4375 18.2559C45.168 18.1426 44.8496 18.0859 44.4824 18.0859H43.709V17.4414ZM49.375 17.7168L49.8086 13.4688H54.1855V14.459H50.7344L50.4824 16.7969C50.6348 16.707 50.8301 16.623 51.0684 16.5449C51.3105 16.4668 51.5879 16.4277 51.9004 16.4277C52.4238 16.4277 52.875 16.5449 53.2539 16.7793C53.6328 17.0137 53.9238 17.3438 54.127 17.7695C54.334 18.1953 54.4375 18.6992 54.4375 19.2812C54.4375 19.8242 54.3379 20.3105 54.1387 20.7402C53.9434 21.166 53.6465 21.502 53.248 21.748C52.8496 21.9941 52.3457 22.1172 51.7363 22.1172C51.3926 22.1172 51.0664 22.0703 50.7578 21.9766C50.4531 21.8789 50.1797 21.7324 49.9375 21.5371C49.6992 21.3379 49.5039 21.0918 49.3516 20.7988C49.1992 20.502 49.1055 20.1543 49.0703 19.7559H50.1074C50.1738 20.2402 50.3477 20.6094 50.6289 20.8633C50.9102 21.1133 51.2793 21.2383 51.7363 21.2383C52.0762 21.2383 52.3652 21.1602 52.6035 21.0039C52.8457 20.8438 53.0293 20.6191 53.1543 20.3301C53.2793 20.0371 53.3418 19.6914 53.3418 19.293C53.3418 18.9336 53.2754 18.6113 53.1426 18.3262C53.0137 18.041 52.8223 17.8145 52.5684 17.6465C52.3184 17.4785 52.0098 17.3945 51.6426 17.3945C51.2793 17.3945 51.0059 17.4434 50.8223 17.541C50.6387 17.6348 50.4492 17.7676 50.2539 17.9395L49.375 17.7168ZM59.2305 22H58.0586L61.3164 13.4688H62.0664L62.0488 14.2188L59.2305 22ZM61.5801 14.2188L61.5684 13.4688H62.3125L65.5762 22H64.4102L61.5801 14.2188ZM64.2695 19.7676H59.4707V18.8477H64.2695V19.7676ZM68.1895 13.4688L70.9727 20.4414L73.7559 13.4688H74.8633L71.4004 22H70.5391L67.082 13.4688H68.1895ZM67.6973 13.4688L67.8555 18.666V22H66.7246V13.4688H67.6973ZM75.2207 13.4688V22H74.0898V18.666L74.248 13.4688H75.2207Z" fill="#F5F5F5"/>
<g clip-path="url(#clip0_601_3702)">
<path d="M295.167 18.0002C295.167 15.8004 295.167 14.7002 295.85 14.0172C296.533 13.3335 297.633 13.3335 299.833 13.3335H302.167C304.366 13.3335 305.466 13.3335 306.15 14.0172C306.833 14.7002 306.833 15.8004 306.833 18.0002V19.1668C306.833 21.3666 306.833 22.4667 306.15 23.1498C305.466 23.8335 304.366 23.8335 302.167 23.8335H299.833C297.633 23.8335 296.533 23.8335 295.85 23.1498C295.167 22.4667 295.167 21.3666 295.167 19.1668V18.0002Z" stroke="#F5F5F5"/>
<path d="M298.083 13.3335V12.4585M303.916 13.3335V12.4585M295.458 16.2502H306.541" stroke="#F5F5F5" stroke-linecap="round"/>
</g>
<path d="M322 23.833C324.899 23.833 327.25 21.4825 327.25 18.583C327.25 15.6835 324.899 13.333 322 13.333C319.101 13.333 316.75 15.6835 316.75 18.583C316.75 21.4825 319.101 23.833 322 23.833Z" stroke="#F5F5F5"/>
<path d="M322 16.2498V18.5832L323.458 20.0415M317.042 13.6248L319.375 12.1665M326.958 13.6248L324.625 12.1665" stroke="#F5F5F5" stroke-linecap="round" stroke-linejoin="round"/>
<path d="M337.167 18.0002C337.167 15.8004 337.167 14.7002 337.85 14.0172C338.533 13.3335 339.633 13.3335 341.833 13.3335H342.708C344.908 13.3335 346.008 13.3335 346.691 14.0172C347.375 14.7002 347.375 15.8004 347.375 18.0002C347.375 20.1999 347.375 21.3001 346.691 21.9832C346.008 22.6668 344.908 22.6668 342.708 22.6668H341.833C339.633 22.6668 338.533 22.6668 337.85 21.9832C337.167 21.3001 337.167 20.1999 337.167 18.0002Z" stroke="#F5F5F5"/>
<path d="M340.083 16.25C340.083 16.25 340.375 16.775 340.375 18C340.375 19.225 340.083 19.75 340.083 19.75M342.125 16.25C342.125 16.25 342.416 16.775 342.416 18C342.416 19.225 342.125 19.75 342.125 19.75M348.833 19.1667V16.8333" stroke="#F5F5F5" stroke-linecap="round"/>
<g clip-path="url(#clip1_601_3702)">
<rect width="80" height="80" rx="40" transform="matrix(1 0 0 -1 148 756)" fill="#F43F5E"/>
<path fill-rule="evenodd" clip-rule="evenodd" d="M197.05 696H197.186C198.954 696 200.38 696 201.526 696.11C202.71 696.222 203.742 696.46 204.668 697.028C205.608 697.604 206.396 698.392 206.972 699.332C207.54 700.258 207.778 701.29 207.892 702.472C208 703.62 208 705.048 208 706.814V706.954C208 708.114 208 709.082 207.926 709.87C207.846 710.694 207.678 711.46 207.246 712.164C206.826 712.852 206.246 713.43 205.556 713.852C204.854 714.284 204.086 714.452 203.264 714.532C202.476 714.606 201.506 714.606 200.344 714.606H198.136C196.464 714.606 195.07 714.606 193.964 714.458C192.796 714.3 191.742 713.956 190.894 713.108C190.046 712.26 189.702 711.208 189.544 710.038C189.396 708.932 189.396 707.538 189.396 705.866V703.654C189.396 702.494 189.396 701.524 189.47 700.736C189.55 699.914 189.718 699.146 190.15 698.444C190.57 697.754 191.15 697.176 191.838 696.754C192.542 696.322 193.308 696.154 194.132 696.074C194.918 696 195.888 696 197.05 696ZM198.698 707.628C197.738 707.628 197.258 707.628 196.92 707.388C196.801 707.303 196.697 707.199 196.612 707.08C196.372 706.74 196.372 706.26 196.372 705.302C196.372 704.342 196.372 703.864 196.612 703.526C196.696 703.406 196.801 703.301 196.92 703.216C197.26 702.976 197.74 702.976 198.698 702.976C199.658 702.976 200.136 702.976 200.474 703.216C200.594 703.302 200.698 703.406 200.784 703.526C201.024 703.864 201.024 704.344 201.024 705.302C201.024 706.262 201.024 706.742 200.784 707.08C200.699 707.199 200.594 707.304 200.474 707.388C200.136 707.628 199.656 707.628 198.698 707.628ZM184.16 696.754C183.46 696.322 182.692 696.154 181.868 696.074C181.08 696 180.112 696 178.95 696H178.814C177.046 696 175.62 696 174.474 696.11C173.29 696.222 172.258 696.46 171.332 697.028C170.392 697.604 169.604 698.392 169.028 699.332C168.46 700.258 168.222 701.29 168.108 702.472C168 703.62 168 705.048 168 706.814V706.954C168 708.114 168 709.082 168.074 709.87C168.154 710.694 168.322 711.46 168.754 712.164C169.174 712.852 169.754 713.43 170.444 713.852C171.146 714.284 171.914 714.452 172.736 714.532C173.524 714.606 174.492 714.606 175.656 714.606H177.864C179.536 714.606 180.93 714.606 182.036 714.458C183.204 714.3 184.258 713.956 185.106 713.108C185.954 712.26 186.298 711.208 186.456 710.038C186.604 708.932 186.604 707.538 186.604 705.866V703.654C186.604 702.494 186.604 701.524 186.53 700.736C186.45 699.914 186.282 699.146 185.85 698.444C185.429 697.755 184.85 697.176 184.162 696.754H184.16ZM175.528 707.388C175.866 707.628 176.346 707.628 177.304 707.628C178.264 707.628 178.744 707.628 179.082 707.388C179.201 707.303 179.305 707.199 179.39 707.08C179.63 706.74 179.63 706.26 179.63 705.302C179.63 704.342 179.63 703.864 179.39 703.526C179.306 703.406 179.201 703.301 179.082 703.216C178.742 702.976 178.262 702.976 177.304 702.976C176.344 702.976 175.866 702.976 175.528 703.216C175.408 703.301 175.303 703.406 175.218 703.526C174.978 703.864 174.978 704.344 174.978 705.302C174.978 706.262 174.978 706.742 175.218 707.08C175.303 707.199 175.408 707.304 175.528 707.388ZM182.036 717.544C183.204 717.702 184.258 718.046 185.106 718.894C185.954 719.742 186.298 720.794 186.456 721.964C186.604 723.07 186.604 724.464 186.604 726.136V728.346C186.604 729.506 186.604 730.476 186.53 731.264C186.45 732.086 186.282 732.854 185.85 733.556C185.43 734.246 184.85 734.824 184.162 735.246C183.458 735.678 182.692 735.846 181.868 735.926C181.08 736 180.112 736 178.95 736H178.814C177.046 736 175.62 736 174.474 735.89C173.29 735.778 172.258 735.54 171.332 734.972C170.393 734.397 169.603 733.607 169.028 732.668C168.46 731.742 168.222 730.71 168.108 729.528C168 728.38 168 726.954 168 725.186V725.046C168 723.886 168 722.916 168.074 722.13C168.154 721.306 168.322 720.54 168.754 719.836C169.174 719.148 169.754 718.57 170.444 718.148C171.146 717.716 171.914 717.548 172.736 717.468C173.524 717.394 174.492 717.394 175.656 717.394H177.864C179.536 717.394 180.93 717.394 182.036 717.542V717.544ZM177.302 729.024C176.342 729.024 175.864 729.024 175.526 728.784C175.406 728.699 175.301 728.594 175.216 728.474C174.976 728.136 174.976 727.656 174.976 726.698C174.976 725.738 174.976 725.258 175.216 724.92C175.301 724.801 175.406 724.696 175.526 724.612C175.864 724.372 176.344 724.372 177.302 724.372C178.262 724.372 178.742 724.372 179.08 724.612C179.2 724.698 179.302 724.802 179.388 724.92C179.628 725.26 179.628 725.74 179.628 726.698C179.628 727.658 179.628 728.136 179.388 728.474C179.304 728.594 179.199 728.699 179.08 728.784C178.74 729.024 178.26 729.024 177.302 729.024Z" fill="#F5F5F5"/>
<path d="M189.396 725.232V725.302H192.186C192.186 723.966 192.186 723.07 192.258 722.386C192.324 721.726 192.444 721.422 192.578 721.22C192.747 720.966 192.965 720.748 193.218 720.578C193.422 720.444 193.726 720.324 194.386 720.258C195.07 720.188 195.966 720.186 197.302 720.186H201.022V717.396H197.232C195.986 717.396 194.946 717.396 194.104 717.48C193.224 717.57 192.406 717.766 191.67 718.258C191.11 718.63 190.63 719.11 190.258 719.67C189.766 720.406 189.57 721.224 189.48 722.104C189.396 722.944 189.396 723.984 189.396 725.232ZM208 729.07V729.024H205.21C205.21 729.91 205.21 730.504 205.178 730.964C205.146 731.412 205.092 731.63 205.032 731.774C204.915 732.057 204.744 732.313 204.528 732.53C204.311 732.746 204.055 732.917 203.772 733.034C203.632 733.092 203.412 733.146 202.964 733.178C202.504 733.208 201.91 733.21 201.024 733.21H197.304V736H201.07C201.898 736 202.588 736 203.154 735.96C203.732 735.937 204.303 735.819 204.842 735.61C206.095 735.091 207.091 734.095 207.61 732.842C207.834 732.302 207.922 731.744 207.962 731.154C208 730.588 208 729.898 208 729.07ZM192.186 734.604C192.193 734.792 192.162 734.979 192.095 735.154C192.028 735.33 191.927 735.49 191.797 735.625C191.666 735.76 191.51 735.868 191.337 735.941C191.165 736.015 190.979 736.053 190.791 736.053C190.603 736.053 190.417 736.015 190.245 735.941C190.072 735.868 189.916 735.76 189.785 735.625C189.655 735.49 189.554 735.33 189.487 735.154C189.42 734.979 189.389 734.792 189.396 734.604V729.024H192.186V734.604ZM206.604 717.396C206.234 717.397 205.88 717.544 205.619 717.805C205.358 718.066 205.211 718.42 205.21 718.79V725.302H208V718.79C207.999 718.42 207.852 718.066 207.59 717.804C207.329 717.543 206.974 717.396 206.604 717.396ZM196.152 725.234C196 725.602 196 726.068 196 727C196 727.932 196 728.398 196.152 728.766C196.355 729.255 196.745 729.643 197.234 729.846C197.602 730 198.068 730 199 730C199.932 730 200.398 730 200.766 729.848C201.255 729.645 201.644 729.255 201.846 728.766C202 728.398 202 727.932 202 727C202 726.068 202 725.602 201.848 725.234C201.645 724.745 201.255 724.357 200.766 724.154C200.398 724 199.932 724 199 724C198.068 724 197.602 724 197.234 724.152C196.745 724.355 196.355 724.745 196.152 725.234Z" fill="#F5F5F5"/>
<rect width="56" height="56" rx="28" transform="matrix(1 0 0 -1 256 744)" fill="#2A3436"/>
<path d="M282 726C278.229 726 276.343 726 275.172 724.828C274 723.657 274 722.771 274 719M294 719C294 722.771 294 723.657 292.828 724.828C291.657 726 289.771 726 286 726M286 706C289.771 706 291.657 706 292.828 707.172C294 708.343 294 709.229 294 713M282 706C278.229 706 276.343 706 275.172 707.172C274 708.343 274 709.229 274 713M274 716H294" stroke="#F5F5F5" stroke-width="1.5" stroke-linecap="round"/>
<rect width="56" height="56" rx="28" transform="matrix(1 0 0 -1 340 744)" fill="#2A3436"/>
<path d="M364.839 710.211V709.158C364.839 708.32 365.172 707.517 365.764 706.925C366.356 706.333 367.159 706 367.997 706C368.834 706 369.638 706.333 370.23 706.925C370.822 707.517 371.155 708.32 371.155 709.158V710.211M365.018 719.684C365.235 720.301 365.639 720.834 366.172 721.212C366.706 721.589 367.343 721.792 367.997 721.792C368.651 721.792 369.288 721.589 369.822 721.212C370.355 720.834 370.758 720.301 370.976 719.684M359.359 716.558C359.924 713.728 360.207 712.316 361.141 711.404C361.314 711.236 361.5 711.083 361.699 710.947C362.776 710.211 364.218 710.211 367.102 710.211H368.895C371.778 710.211 373.219 710.211 374.295 710.947C374.495 711.084 374.681 711.238 374.853 711.405C375.787 712.316 376.071 713.729 376.636 716.557C377.447 720.616 377.854 722.645 376.919 724.083C376.751 724.344 376.553 724.585 376.33 724.802C375.102 726 373.034 726 368.895 726H367.102C362.962 726 360.893 726 359.665 724.802C359.443 724.585 359.246 724.344 359.077 724.083C358.142 722.645 358.549 720.616 359.361 716.557L359.359 716.558Z" stroke="#F5F5F5" stroke-width="1.5" stroke-linecap="round"/>
</g>
<rect width="295" height="295" transform="translate(40 152)" fill="black"/>
<path fill-rule="evenodd" clip-rule="evenodd" d="M40 207V152H95V157H45V207H40ZM40 392V447H95V442H45V392H40ZM335 152V207H330V157H280V152H335ZM335 392V447H280V442H330V392H335Z" fill="#F43F5E"/>
<path d="M102.102 499.547V509.008C102.102 509.784 101.919 510.378 101.555 510.789C101.19 511.206 100.635 511.414 99.8906 511.414C99.7604 511.414 99.6094 511.401 99.4375 511.375C99.2604 511.349 99.112 511.318 98.9922 511.281L99 510.125C99.099 510.146 99.2109 510.161 99.3359 510.172C99.4609 510.188 99.5703 510.195 99.6641 510.195C99.9766 510.195 100.216 510.104 100.383 509.922C100.555 509.745 100.641 509.44 100.641 509.008V499.547H102.102ZM100.492 497.297C100.492 497.068 100.562 496.872 100.703 496.711C100.849 496.549 101.062 496.469 101.344 496.469C101.625 496.469 101.839 496.549 101.984 496.711C102.135 496.872 102.211 497.068 102.211 497.297C102.211 497.521 102.135 497.714 101.984 497.875C101.839 498.031 101.625 498.109 101.344 498.109C101.062 498.109 100.849 498.031 100.703 497.875C100.562 497.714 100.492 497.521 100.492 497.297ZM104.062 503.688C104.062 502.87 104.219 502.138 104.531 501.492C104.844 500.846 105.286 500.336 105.859 499.961C106.432 499.581 107.112 499.391 107.898 499.391C108.695 499.391 109.383 499.581 109.961 499.961C110.539 500.336 110.982 500.846 111.289 501.492C111.602 502.138 111.758 502.87 111.758 503.688V503.867C111.758 504.68 111.602 505.411 111.289 506.062C110.982 506.708 110.539 507.219 109.961 507.594C109.388 507.969 108.706 508.156 107.914 508.156C107.122 508.156 106.438 507.969 105.859 507.594C105.286 507.219 104.844 506.708 104.531 506.062C104.219 505.411 104.062 504.68 104.062 503.867V503.688ZM105.523 503.867C105.523 504.424 105.612 504.94 105.789 505.414C105.966 505.888 106.229 506.268 106.578 506.555C106.932 506.841 107.378 506.984 107.914 506.984C108.445 506.984 108.885 506.841 109.234 506.555C109.589 506.268 109.854 505.888 110.031 505.414C110.208 504.94 110.297 504.424 110.297 503.867V503.688C110.297 503.13 110.208 502.615 110.031 502.141C109.854 501.667 109.589 501.286 109.234 501C108.88 500.708 108.435 500.562 107.898 500.562C107.372 500.562 106.932 500.708 106.578 501C106.224 501.286 105.958 501.667 105.781 502.141C105.609 502.615 105.523 503.13 105.523 503.688V503.867ZM115.039 508H113.578V496H115.039V508ZM114.086 503.422C114.096 502.651 114.245 501.964 114.531 501.359C114.818 500.75 115.216 500.271 115.727 499.922C116.242 499.568 116.841 499.391 117.523 499.391C118.081 499.391 118.56 499.495 118.961 499.703C119.367 499.906 119.68 500.232 119.898 500.68C120.122 501.128 120.234 501.721 120.234 502.461V508H118.773V502.445C118.773 502.003 118.708 501.646 118.578 501.375C118.453 501.104 118.266 500.909 118.016 500.789C117.766 500.664 117.458 500.602 117.094 500.602C116.734 500.602 116.409 500.677 116.117 500.828C115.826 500.979 115.573 501.188 115.359 501.453C115.146 501.719 114.982 502.023 114.867 502.367C114.753 502.706 114.695 503.065 114.695 503.445L114.086 503.422ZM123.852 508H122.391V499.547H123.773L123.852 501.352V508ZM122.898 503.422C122.909 502.651 123.057 501.964 123.344 501.359C123.63 500.75 124.029 500.271 124.539 499.922C125.055 499.568 125.654 499.391 126.336 499.391C126.893 499.391 127.372 499.495 127.773 499.703C128.18 499.906 128.492 500.232 128.711 500.68C128.935 501.128 129.047 501.721 129.047 502.461V508H127.586V502.445C127.586 502.003 127.521 501.646 127.391 501.375C127.266 501.104 127.078 500.909 126.828 500.789C126.578 500.664 126.271 500.602 125.906 500.602C125.547 500.602 125.221 500.677 124.93 500.828C124.638 500.979 124.385 501.188 124.172 501.453C123.958 501.719 123.794 502.023 123.68 502.367C123.565 502.706 123.508 503.065 123.508 503.445L122.898 503.422ZM136.562 496H138.023V508H136.688L136.562 506.359V496ZM130.883 503.703C130.883 502.844 131.021 502.091 131.297 501.445C131.578 500.794 131.969 500.289 132.469 499.93C132.969 499.57 133.555 499.391 134.227 499.391C134.935 499.391 135.526 499.555 136 499.883C136.474 500.206 136.844 500.667 137.109 501.266C137.38 501.865 137.555 502.578 137.633 503.406V504.164C137.555 504.982 137.383 505.69 137.117 506.289C136.852 506.883 136.479 507.344 136 507.672C135.526 507.995 134.93 508.156 134.211 508.156C133.549 508.156 132.969 507.971 132.469 507.602C131.969 507.227 131.578 506.716 131.297 506.07C131.021 505.424 130.883 504.69 130.883 503.867V503.703ZM132.344 503.867C132.344 504.43 132.419 504.943 132.57 505.406C132.727 505.87 132.969 506.242 133.297 506.523C133.625 506.799 134.049 506.938 134.57 506.938C135.049 506.938 135.443 506.836 135.75 506.633C136.062 506.43 136.312 506.161 136.5 505.828C136.688 505.495 136.833 505.133 136.938 504.742V502.844C136.875 502.557 136.784 502.281 136.664 502.016C136.549 501.745 136.398 501.505 136.211 501.297C136.029 501.083 135.802 500.914 135.531 500.789C135.266 500.664 134.951 500.602 134.586 500.602C134.06 500.602 133.63 500.742 133.297 501.023C132.969 501.305 132.727 501.682 132.57 502.156C132.419 502.625 132.344 503.141 132.344 503.703V503.867ZM139.891 503.688C139.891 502.87 140.047 502.138 140.359 501.492C140.672 500.846 141.115 500.336 141.688 499.961C142.26 499.581 142.94 499.391 143.727 499.391C144.523 499.391 145.211 499.581 145.789 499.961C146.367 500.336 146.81 500.846 147.117 501.492C147.43 502.138 147.586 502.87 147.586 503.688V503.867C147.586 504.68 147.43 505.411 147.117 506.062C146.81 506.708 146.367 507.219 145.789 507.594C145.216 507.969 144.534 508.156 143.742 508.156C142.951 508.156 142.266 507.969 141.688 507.594C141.115 507.219 140.672 506.708 140.359 506.062C140.047 505.411 139.891 504.68 139.891 503.867V503.688ZM141.352 503.867C141.352 504.424 141.44 504.94 141.617 505.414C141.794 505.888 142.057 506.268 142.406 506.555C142.76 506.841 143.206 506.984 143.742 506.984C144.273 506.984 144.714 506.841 145.062 506.555C145.417 506.268 145.682 505.888 145.859 505.414C146.036 504.94 146.125 504.424 146.125 503.867V503.688C146.125 503.13 146.036 502.615 145.859 502.141C145.682 501.667 145.417 501.286 145.062 501C144.708 500.708 144.263 500.562 143.727 500.562C143.201 500.562 142.76 500.708 142.406 501C142.052 501.286 141.786 501.667 141.609 502.141C141.438 502.615 141.352 503.13 141.352 503.688V503.867ZM152.922 508.156C152.135 508.156 151.451 507.982 150.867 507.633C150.289 507.279 149.839 506.794 149.516 506.18C149.198 505.565 149.039 504.862 149.039 504.07V503.734C149.039 502.818 149.214 502.036 149.562 501.391C149.917 500.74 150.375 500.245 150.938 499.906C151.505 499.562 152.104 499.391 152.734 499.391C153.547 499.391 154.208 499.573 154.719 499.938C155.234 500.297 155.612 500.789 155.852 501.414C156.096 502.034 156.219 502.737 156.219 503.523V504.172H149.906V503H154.758V502.891C154.737 502.516 154.661 502.151 154.531 501.797C154.401 501.438 154.193 501.143 153.906 500.914C153.62 500.68 153.229 500.562 152.734 500.562C152.297 500.562 151.909 500.688 151.57 500.938C151.237 501.182 150.974 501.542 150.781 502.016C150.594 502.484 150.5 503.057 150.5 503.734V504.07C150.5 504.607 150.599 505.096 150.797 505.539C150.995 505.977 151.281 506.328 151.656 506.594C152.031 506.854 152.479 506.984 153 506.984C153.51 506.984 153.943 506.88 154.297 506.672C154.651 506.464 154.961 506.185 155.227 505.836L156.109 506.523C155.839 506.94 155.448 507.318 154.938 507.656C154.432 507.99 153.76 508.156 152.922 508.156ZM170.367 504.07C170.346 504.549 170.273 505.031 170.148 505.516C170.029 505.995 169.841 506.435 169.586 506.836C169.336 507.237 169.013 507.56 168.617 507.805C168.221 508.044 167.74 508.164 167.172 508.164C166.448 508.164 165.914 507.917 165.57 507.422C165.232 506.927 165.104 506.263 165.188 505.43L165.586 501.102H166.742L166.344 505.43C166.312 505.81 166.32 506.12 166.367 506.359C166.419 506.594 166.497 506.776 166.602 506.906C166.706 507.031 166.823 507.117 166.953 507.164C167.083 507.211 167.211 507.234 167.336 507.234C167.758 507.234 168.112 507.094 168.398 506.812C168.69 506.526 168.917 506.143 169.078 505.664C169.24 505.185 169.331 504.654 169.352 504.07C169.414 502.773 169.276 501.661 168.938 500.734C168.599 499.802 168.049 499.089 167.289 498.594C166.534 498.094 165.552 497.844 164.344 497.844C163.255 497.844 162.31 498.115 161.508 498.656C160.706 499.193 160.076 499.943 159.617 500.906C159.164 501.87 158.909 502.99 158.852 504.266C158.805 505.24 158.88 506.115 159.078 506.891C159.281 507.667 159.594 508.328 160.016 508.875C160.443 509.427 160.974 509.846 161.609 510.133C162.25 510.424 162.984 510.57 163.812 510.57C164.276 510.57 164.742 510.516 165.211 510.406C165.68 510.297 166.076 510.148 166.398 509.961L166.695 510.844C166.331 511.078 165.875 511.253 165.328 511.367C164.786 511.482 164.271 511.539 163.781 511.539C162.464 511.539 161.341 511.245 160.414 510.656C159.487 510.068 158.789 509.229 158.32 508.141C157.857 507.052 157.654 505.76 157.711 504.266C157.758 503.193 157.945 502.206 158.273 501.305C158.607 500.398 159.062 499.609 159.641 498.938C160.224 498.266 160.914 497.745 161.711 497.375C162.508 497.005 163.396 496.82 164.375 496.82C165.714 496.82 166.839 497.117 167.75 497.711C168.661 498.299 169.341 499.138 169.789 500.227C170.237 501.31 170.43 502.591 170.367 504.07ZM162.359 504.734C162.312 505.224 162.328 505.643 162.406 505.992C162.484 506.336 162.622 506.599 162.82 506.781C163.018 506.958 163.268 507.047 163.57 507.047C163.773 507.047 163.987 506.979 164.211 506.844C164.435 506.708 164.646 506.49 164.844 506.188C165.047 505.885 165.211 505.49 165.336 505L165.852 505.562C165.612 506.411 165.247 507.057 164.758 507.5C164.268 507.943 163.753 508.164 163.211 508.164C162.701 508.164 162.276 508.021 161.938 507.734C161.604 507.448 161.367 507.047 161.227 506.531C161.086 506.016 161.047 505.417 161.109 504.734C161.193 503.818 161.398 503.026 161.727 502.359C162.06 501.693 162.469 501.177 162.953 500.812C163.443 500.448 163.953 500.266 164.484 500.266C165.052 500.266 165.497 500.349 165.82 500.516C166.143 500.677 166.451 500.872 166.742 501.102L166.078 501.859C165.922 501.719 165.721 501.586 165.477 501.461C165.237 501.331 164.948 501.266 164.609 501.266C164.234 501.266 163.888 501.396 163.57 501.656C163.253 501.917 162.987 502.305 162.773 502.82C162.565 503.331 162.427 503.969 162.359 504.734ZM171.891 503.688C171.891 502.87 172.047 502.138 172.359 501.492C172.672 500.846 173.115 500.336 173.688 499.961C174.26 499.581 174.94 499.391 175.727 499.391C176.523 499.391 177.211 499.581 177.789 499.961C178.367 500.336 178.81 500.846 179.117 501.492C179.43 502.138 179.586 502.87 179.586 503.688V503.867C179.586 504.68 179.43 505.411 179.117 506.062C178.81 506.708 178.367 507.219 177.789 507.594C177.216 507.969 176.534 508.156 175.742 508.156C174.951 508.156 174.266 507.969 173.688 507.594C173.115 507.219 172.672 506.708 172.359 506.062C172.047 505.411 171.891 504.68 171.891 503.867V503.688ZM173.352 503.867C173.352 504.424 173.44 504.94 173.617 505.414C173.794 505.888 174.057 506.268 174.406 506.555C174.76 506.841 175.206 506.984 175.742 506.984C176.273 506.984 176.714 506.841 177.062 506.555C177.417 506.268 177.682 505.888 177.859 505.414C178.036 504.94 178.125 504.424 178.125 503.867V503.688C178.125 503.13 178.036 502.615 177.859 502.141C177.682 501.667 177.417 501.286 177.062 501C176.708 500.708 176.263 500.562 175.727 500.562C175.201 500.562 174.76 500.708 174.406 501C174.052 501.286 173.786 501.667 173.609 502.141C173.438 502.615 173.352 503.13 173.352 503.688V503.867ZM182.875 508H181.414V496H182.875V508ZM184.359 503.484L182.281 505.625L182.164 504.094L183.648 502.336L186.258 499.547H188.031L184.359 503.484ZM183.695 503.961L184.453 502.68L188.422 508H186.703L183.695 503.961ZM190.992 496V506.359L190.867 508H189.531V496H190.992ZM196.695 503.867C196.695 504.69 196.568 505.424 196.312 506.07C196.057 506.716 195.685 507.227 195.195 507.602C194.706 507.971 194.112 508.156 193.414 508.156C192.695 508.156 192.096 507.995 191.617 507.672C191.138 507.344 190.766 506.883 190.5 506.289C190.234 505.69 190.06 504.982 189.977 504.164V503.406C190.06 502.578 190.234 501.865 190.5 501.266C190.766 500.667 191.135 500.206 191.609 499.883C192.089 499.555 192.685 499.391 193.398 499.391C194.107 499.391 194.706 499.57 195.195 499.93C195.685 500.289 196.057 500.794 196.312 501.445C196.568 502.091 196.695 502.844 196.695 503.703V503.867ZM195.234 503.703C195.234 503.141 195.164 502.625 195.023 502.156C194.883 501.682 194.651 501.305 194.328 501.023C194.01 500.742 193.578 500.602 193.031 500.602C192.672 500.602 192.357 500.664 192.086 500.789C191.82 500.914 191.594 501.083 191.406 501.297C191.219 501.505 191.065 501.745 190.945 502.016C190.831 502.281 190.745 502.557 190.688 502.844V504.742C190.771 505.107 190.906 505.458 191.094 505.797C191.281 506.13 191.534 506.404 191.852 506.617C192.174 506.831 192.573 506.938 193.047 506.938C193.568 506.938 193.987 506.799 194.305 506.523C194.628 506.242 194.862 505.87 195.008 505.406C195.159 504.943 195.234 504.43 195.234 503.867V503.703ZM203.5 502.203C203.5 501.698 203.349 501.297 203.047 501C202.75 500.698 202.31 500.547 201.727 500.547C201.367 500.547 201.049 500.609 200.773 500.734C200.503 500.859 200.292 501.023 200.141 501.227C199.99 501.43 199.914 501.651 199.914 501.891H198.453C198.453 501.484 198.591 501.091 198.867 500.711C199.143 500.326 199.531 500.01 200.031 499.766C200.536 499.516 201.13 499.391 201.812 499.391C202.427 499.391 202.971 499.495 203.445 499.703C203.919 499.911 204.289 500.227 204.555 500.648C204.826 501.065 204.961 501.589 204.961 502.219V506.156C204.961 506.438 204.984 506.737 205.031 507.055C205.083 507.372 205.159 507.646 205.258 507.875V508H203.734C203.661 507.833 203.604 507.612 203.562 507.336C203.521 507.055 203.5 506.794 203.5 506.555V502.203ZM203.766 503.891H202.312C201.49 503.891 200.854 504.021 200.406 504.281C199.958 504.542 199.734 504.932 199.734 505.453C199.734 505.859 199.87 506.203 200.141 506.484C200.417 506.766 200.818 506.906 201.344 506.906C201.786 506.906 202.177 506.812 202.516 506.625C202.854 506.438 203.122 506.206 203.32 505.93C203.518 505.654 203.625 505.388 203.641 505.133L204.266 505.828C204.229 506.047 204.13 506.289 203.969 506.555C203.807 506.82 203.591 507.076 203.32 507.32C203.055 507.56 202.737 507.76 202.367 507.922C202.003 508.078 201.591 508.156 201.133 508.156C200.56 508.156 200.057 508.047 199.625 507.828C199.198 507.604 198.865 507.302 198.625 506.922C198.391 506.542 198.273 506.12 198.273 505.656C198.273 504.745 198.617 504.055 199.305 503.586C199.992 503.112 200.917 502.875 202.078 502.875H203.75L203.766 503.891ZM208.695 508H207.234V499.547H208.617L208.695 501.352V508ZM207.742 503.422C207.753 502.651 207.901 501.964 208.188 501.359C208.474 500.75 208.872 500.271 209.383 499.922C209.898 499.568 210.497 499.391 211.18 499.391C211.737 499.391 212.216 499.495 212.617 499.703C213.023 499.906 213.336 500.232 213.555 500.68C213.779 501.128 213.891 501.721 213.891 502.461V508H212.43V502.445C212.43 502.003 212.365 501.646 212.234 501.375C212.109 501.104 211.922 500.909 211.672 500.789C211.422 500.664 211.115 500.602 210.75 500.602C210.391 500.602 210.065 500.677 209.773 500.828C209.482 500.979 209.229 501.188 209.016 501.453C208.802 501.719 208.638 502.023 208.523 502.367C208.409 502.706 208.352 503.065 208.352 503.445L207.742 503.422ZM217.547 508H216.086V496H217.547V508ZM219.031 503.484L216.953 505.625L216.836 504.094L218.32 502.336L220.93 499.547H222.703L219.031 503.484ZM218.367 503.961L219.125 502.68L223.094 508H221.375L218.367 503.961ZM225.664 511.25H224.203V499.547H225.531L225.664 501.172V511.25ZM231.352 503.867C231.352 504.69 231.224 505.424 230.969 506.07C230.714 506.716 230.341 507.227 229.852 507.602C229.367 507.971 228.776 508.156 228.078 508.156C227.354 508.156 226.747 508 226.258 507.688C225.768 507.375 225.385 506.932 225.109 506.359C224.833 505.781 224.654 505.099 224.57 504.312V503.406C224.654 502.578 224.833 501.865 225.109 501.266C225.391 500.667 225.773 500.206 226.258 499.883C226.747 499.555 227.346 499.391 228.055 499.391C228.763 499.391 229.362 499.57 229.852 499.93C230.341 500.289 230.714 500.794 230.969 501.445C231.224 502.091 231.352 502.844 231.352 503.703V503.867ZM229.891 503.703C229.891 503.141 229.81 502.625 229.648 502.156C229.492 501.682 229.245 501.305 228.906 501.023C228.573 500.742 228.143 500.602 227.617 500.602C227.258 500.602 226.945 500.664 226.68 500.789C226.414 500.914 226.188 501.083 226 501.297C225.812 501.505 225.659 501.745 225.539 502.016C225.424 502.281 225.339 502.557 225.281 502.844V504.883C225.385 505.247 225.529 505.591 225.711 505.914C225.898 506.232 226.146 506.49 226.453 506.688C226.766 506.885 227.159 506.984 227.633 506.984C228.154 506.984 228.581 506.841 228.914 506.555C229.247 506.268 229.492 505.891 229.648 505.422C229.81 504.948 229.891 504.43 229.891 503.867V503.703ZM238.172 502.203C238.172 501.698 238.021 501.297 237.719 501C237.422 500.698 236.982 500.547 236.398 500.547C236.039 500.547 235.721 500.609 235.445 500.734C235.174 500.859 234.964 501.023 234.812 501.227C234.661 501.43 234.586 501.651 234.586 501.891H233.125C233.125 501.484 233.263 501.091 233.539 500.711C233.815 500.326 234.203 500.01 234.703 499.766C235.208 499.516 235.802 499.391 236.484 499.391C237.099 499.391 237.643 499.495 238.117 499.703C238.591 499.911 238.961 500.227 239.227 500.648C239.497 501.065 239.633 501.589 239.633 502.219V506.156C239.633 506.438 239.656 506.737 239.703 507.055C239.755 507.372 239.831 507.646 239.93 507.875V508H238.406C238.333 507.833 238.276 507.612 238.234 507.336C238.193 507.055 238.172 506.794 238.172 506.555V502.203ZM238.438 503.891H236.984C236.161 503.891 235.526 504.021 235.078 504.281C234.63 504.542 234.406 504.932 234.406 505.453C234.406 505.859 234.542 506.203 234.812 506.484C235.089 506.766 235.49 506.906 236.016 506.906C236.458 506.906 236.849 506.812 237.188 506.625C237.526 506.438 237.794 506.206 237.992 505.93C238.19 505.654 238.297 505.388 238.312 505.133L238.938 505.828C238.901 506.047 238.802 506.289 238.641 506.555C238.479 506.82 238.263 507.076 237.992 507.32C237.727 507.56 237.409 507.76 237.039 507.922C236.674 508.078 236.263 508.156 235.805 508.156C235.232 508.156 234.729 508.047 234.297 507.828C233.87 507.604 233.536 507.302 233.297 506.922C233.062 506.542 232.945 506.12 232.945 505.656C232.945 504.745 233.289 504.055 233.977 503.586C234.664 503.112 235.589 502.875 236.75 502.875H238.422L238.438 503.891ZM243.367 508H241.906V499.547H243.328L243.367 500.875V508ZM246 500.836C245.875 500.81 245.758 500.794 245.648 500.789C245.544 500.779 245.424 500.773 245.289 500.773C244.846 500.773 244.471 500.865 244.164 501.047C243.862 501.229 243.628 501.482 243.461 501.805C243.294 502.122 243.19 502.487 243.148 502.898L242.734 503.133C242.734 502.451 242.826 501.828 243.008 501.266C243.19 500.698 243.474 500.245 243.859 499.906C244.25 499.562 244.75 499.391 245.359 499.391C245.458 499.391 245.576 499.404 245.711 499.43C245.852 499.451 245.948 499.474 246 499.5V500.836ZM251.273 500.648H246.695V499.547H251.273V500.648ZM249.695 497.492V505.906C249.695 506.198 249.74 506.417 249.828 506.562C249.917 506.708 250.031 506.805 250.172 506.852C250.312 506.898 250.464 506.922 250.625 506.922C250.745 506.922 250.87 506.911 251 506.891C251.135 506.87 251.234 506.852 251.297 506.836L251.305 508C251.19 508.036 251.039 508.07 250.852 508.102C250.669 508.138 250.448 508.156 250.188 508.156C249.833 508.156 249.508 508.086 249.211 507.945C248.914 507.805 248.677 507.57 248.5 507.242C248.323 506.909 248.234 506.461 248.234 505.898V497.492H249.695ZM254.414 508H252.953V499.547H254.336L254.414 501.352V508ZM253.461 503.422C253.471 502.651 253.62 501.964 253.906 501.359C254.193 500.75 254.591 500.271 255.102 499.922C255.617 499.568 256.216 499.391 256.898 499.391C257.456 499.391 257.935 499.495 258.336 499.703C258.742 499.906 259.055 500.232 259.273 500.68C259.497 501.128 259.609 501.721 259.609 502.461V508H258.148V502.445C258.148 502.003 258.083 501.646 257.953 501.375C257.828 501.104 257.641 500.909 257.391 500.789C257.141 500.664 256.833 500.602 256.469 500.602C256.109 500.602 255.784 500.677 255.492 500.828C255.201 500.979 254.948 501.188 254.734 501.453C254.521 501.719 254.357 502.023 254.242 502.367C254.128 502.706 254.07 503.065 254.07 503.445L253.461 503.422ZM265.312 508.156C264.526 508.156 263.841 507.982 263.258 507.633C262.68 507.279 262.229 506.794 261.906 506.18C261.589 505.565 261.43 504.862 261.43 504.07V503.734C261.43 502.818 261.604 502.036 261.953 501.391C262.307 500.74 262.766 500.245 263.328 499.906C263.896 499.562 264.495 499.391 265.125 499.391C265.938 499.391 266.599 499.573 267.109 499.938C267.625 500.297 268.003 500.789 268.242 501.414C268.487 502.034 268.609 502.737 268.609 503.523V504.172H262.297V503H267.148V502.891C267.128 502.516 267.052 502.151 266.922 501.797C266.792 501.438 266.583 501.143 266.297 500.914C266.01 500.68 265.62 500.562 265.125 500.562C264.688 500.562 264.299 500.688 263.961 500.938C263.628 501.182 263.365 501.542 263.172 502.016C262.984 502.484 262.891 503.057 262.891 503.734V504.07C262.891 504.607 262.99 505.096 263.188 505.539C263.385 505.977 263.672 506.328 264.047 506.594C264.422 506.854 264.87 506.984 265.391 506.984C265.901 506.984 266.333 506.88 266.688 506.672C267.042 506.464 267.352 506.185 267.617 505.836L268.5 506.523C268.229 506.94 267.839 507.318 267.328 507.656C266.823 507.99 266.151 508.156 265.312 508.156ZM271.758 508H270.297V499.547H271.719L271.758 500.875V508ZM274.391 500.836C274.266 500.81 274.148 500.794 274.039 500.789C273.935 500.779 273.815 500.773 273.68 500.773C273.237 500.773 272.862 500.865 272.555 501.047C272.253 501.229 272.018 501.482 271.852 501.805C271.685 502.122 271.581 502.487 271.539 502.898L271.125 503.133C271.125 502.451 271.216 501.828 271.398 501.266C271.581 500.698 271.865 500.245 272.25 499.906C272.641 499.562 273.141 499.391 273.75 499.391C273.849 499.391 273.966 499.404 274.102 499.43C274.242 499.451 274.339 499.474 274.391 499.5V500.836Z" fill="#F5F5F5"/>
<path d="M119.428 525.234L117.664 524.701L117.939 523.828L119.703 524.484L119.65 522.463H120.553L120.494 524.514L122.229 523.863L122.504 524.754L120.711 525.287L121.865 526.881L121.127 527.426L120.049 525.732L118.994 527.385L118.256 526.852L119.428 525.234ZM124.596 525.234L122.832 524.701L123.107 523.828L124.871 524.484L124.818 522.463H125.721L125.662 524.514L127.396 523.863L127.672 524.754L125.879 525.287L127.033 526.881L126.295 527.426L125.217 525.732L124.162 527.385L123.424 526.852L124.596 525.234ZM129.764 525.234L128 524.701L128.275 523.828L130.039 524.484L129.986 522.463H130.889L130.83 524.514L132.564 523.863L132.84 524.754L131.047 525.287L132.201 526.881L131.463 527.426L130.385 525.732L129.33 527.385L128.592 526.852L129.764 525.234ZM134.932 525.234L133.168 524.701L133.443 523.828L135.207 524.484L135.154 522.463H136.057L135.998 524.514L137.732 523.863L138.008 524.754L136.215 525.287L137.369 526.881L136.631 527.426L135.553 525.732L134.498 527.385L133.76 526.852L134.932 525.234ZM141.236 526.207C141.611 526.207 141.922 526.143 142.168 526.014C142.418 525.885 142.604 525.711 142.725 525.492C142.85 525.27 142.912 525.018 142.912 524.736C142.912 524.412 142.857 524.139 142.748 523.916C142.639 523.689 142.475 523.52 142.256 523.406C142.037 523.289 141.762 523.23 141.43 523.23C141.125 523.23 140.857 523.291 140.627 523.412C140.396 523.533 140.217 523.703 140.088 523.922C139.959 524.141 139.895 524.4 139.895 524.701H138.799C138.799 524.264 138.908 523.869 139.127 523.518C139.346 523.162 139.652 522.879 140.047 522.668C140.441 522.457 140.902 522.352 141.43 522.352C141.945 522.352 142.396 522.443 142.783 522.627C143.17 522.807 143.471 523.076 143.686 523.436C143.9 523.791 144.008 524.232 144.008 524.76C144.008 524.979 143.957 525.209 143.855 525.451C143.758 525.693 143.604 525.922 143.393 526.137C143.186 526.348 142.916 526.521 142.584 526.658C142.252 526.791 141.854 526.857 141.389 526.857H140.463V526.207H141.236ZM140.463 526.441H141.389C141.932 526.441 142.381 526.506 142.736 526.635C143.092 526.764 143.371 526.936 143.574 527.15C143.781 527.361 143.926 527.596 144.008 527.854C144.094 528.111 144.137 528.367 144.137 528.621C144.137 529.152 144.018 529.604 143.779 529.975C143.545 530.346 143.223 530.629 142.812 530.824C142.406 531.02 141.947 531.117 141.436 531.117C141.064 531.117 140.715 531.064 140.387 530.959C140.059 530.854 139.77 530.701 139.52 530.502C139.273 530.299 139.08 530.051 138.939 529.758C138.799 529.461 138.729 529.123 138.729 528.744H139.824C139.824 529.041 139.889 529.303 140.018 529.529C140.15 529.752 140.336 529.926 140.574 530.051C140.816 530.176 141.104 530.238 141.436 530.238C141.932 530.238 142.322 530.105 142.607 529.84C142.896 529.574 143.041 529.176 143.041 528.645C143.041 528.289 142.967 527.996 142.818 527.766C142.67 527.535 142.461 527.365 142.191 527.256C141.922 527.143 141.604 527.086 141.236 527.086H140.463V526.441ZM151.15 523.072L147.617 531H146.469L149.99 523.348H145.379V522.469H151.15V523.072ZM153.57 530.098C154.195 530.098 154.703 530.01 155.094 529.834C155.484 529.658 155.783 529.422 155.99 529.125C156.201 528.824 156.346 528.488 156.424 528.117C156.502 527.742 156.541 527.357 156.541 526.963V525.656C156.541 525.137 156.465 524.697 156.312 524.338C156.16 523.979 155.959 523.707 155.709 523.523C155.463 523.336 155.195 523.242 154.906 523.242C154.574 523.242 154.289 523.33 154.051 523.506C153.816 523.682 153.637 523.92 153.512 524.221C153.391 524.521 153.33 524.861 153.33 525.24C153.33 525.576 153.385 525.898 153.494 526.207C153.607 526.516 153.777 526.768 154.004 526.963C154.234 527.158 154.523 527.256 154.871 527.256C155.109 527.256 155.334 527.207 155.545 527.109C155.76 527.012 155.949 526.881 156.113 526.717C156.277 526.549 156.41 526.359 156.512 526.148C156.613 525.934 156.672 525.711 156.688 525.48H157.209C157.209 525.805 157.145 526.125 157.016 526.441C156.891 526.758 156.715 527.045 156.488 527.303C156.262 527.561 155.996 527.766 155.691 527.918C155.387 528.07 155.055 528.146 154.695 528.146C154.133 528.146 153.672 528.006 153.312 527.725C152.953 527.443 152.688 527.086 152.516 526.652C152.344 526.215 152.258 525.764 152.258 525.299C152.258 524.756 152.357 524.262 152.557 523.816C152.756 523.371 153.053 523.016 153.447 522.75C153.842 522.484 154.328 522.352 154.906 522.352C155.395 522.352 155.811 522.449 156.154 522.645C156.502 522.836 156.783 523.096 156.998 523.424C157.217 523.752 157.377 524.121 157.479 524.531C157.58 524.941 157.631 525.363 157.631 525.797V526.201C157.631 526.646 157.602 527.098 157.543 527.555C157.488 528.008 157.381 528.441 157.221 528.855C157.064 529.266 156.836 529.635 156.535 529.963C156.234 530.287 155.842 530.543 155.357 530.73C154.877 530.918 154.281 531.012 153.57 531.012H153.459V530.098H153.57ZM163.385 522.457V523.371H163.291C162.717 523.371 162.236 523.465 161.85 523.652C161.467 523.836 161.16 524.084 160.93 524.396C160.703 524.705 160.541 525.053 160.443 525.439C160.346 525.826 160.297 526.221 160.297 526.623V527.877C160.297 528.385 160.375 528.814 160.531 529.166C160.688 529.514 160.891 529.777 161.141 529.957C161.395 530.137 161.662 530.227 161.943 530.227C162.279 530.227 162.562 530.143 162.793 529.975C163.027 529.807 163.205 529.576 163.326 529.283C163.451 528.986 163.514 528.648 163.514 528.27C163.514 527.93 163.457 527.609 163.344 527.309C163.234 527.008 163.064 526.764 162.834 526.576C162.607 526.389 162.318 526.295 161.967 526.295C161.666 526.295 161.385 526.369 161.123 526.518C160.865 526.662 160.654 526.854 160.49 527.092C160.326 527.33 160.232 527.588 160.209 527.865L159.635 527.859C159.689 527.426 159.791 527.055 159.939 526.746C160.092 526.434 160.279 526.18 160.502 525.984C160.729 525.785 160.98 525.639 161.258 525.545C161.539 525.451 161.836 525.404 162.148 525.404C162.715 525.404 163.178 525.541 163.537 525.814C163.896 526.088 164.162 526.439 164.334 526.869C164.506 527.299 164.592 527.748 164.592 528.217C164.592 528.756 164.49 529.244 164.287 529.682C164.088 530.119 163.791 530.469 163.396 530.73C163.006 530.988 162.521 531.117 161.943 531.117C161.482 531.117 161.08 531.023 160.736 530.836C160.393 530.645 160.107 530.393 159.881 530.08C159.654 529.764 159.484 529.412 159.371 529.025C159.258 528.639 159.201 528.246 159.201 527.848V527.332C159.201 526.727 159.26 526.135 159.377 525.557C159.498 524.979 159.707 524.457 160.004 523.992C160.305 523.523 160.721 523.15 161.252 522.873C161.787 522.596 162.467 522.457 163.291 522.457H163.385ZM175.707 527.01C175.707 527.861 175.566 528.594 175.285 529.207C175.004 529.82 174.607 530.293 174.096 530.625C173.584 530.953 172.98 531.117 172.285 531.117C171.613 531.117 171.018 530.953 170.498 530.625C169.979 530.293 169.572 529.82 169.279 529.207C168.986 528.594 168.84 527.861 168.84 527.01V526.465C168.84 525.613 168.984 524.881 169.273 524.268C169.566 523.65 169.971 523.178 170.486 522.85C171.006 522.518 171.602 522.352 172.273 522.352C172.969 522.352 173.572 522.518 174.084 522.85C174.6 523.178 174.998 523.65 175.279 524.268C175.564 524.881 175.707 525.613 175.707 526.465V527.01ZM174.582 526.453C174.582 525.773 174.49 525.201 174.307 524.736C174.123 524.268 173.859 523.912 173.516 523.67C173.172 523.428 172.758 523.307 172.273 523.307C171.809 523.307 171.402 523.428 171.055 523.67C170.711 523.912 170.443 524.268 170.252 524.736C170.064 525.201 169.971 525.773 169.971 526.453V527.01C169.971 527.693 170.066 528.27 170.258 528.738C170.449 529.207 170.719 529.562 171.066 529.805C171.414 530.047 171.82 530.168 172.285 530.168C172.773 530.168 173.188 530.047 173.527 529.805C173.871 529.562 174.133 529.207 174.312 528.738C174.492 528.27 174.582 527.693 174.582 527.01V526.453ZM178.537 531H177.4V522.469H178.537V531ZM180.143 526.447L178.15 528.51L177.963 527.314L179.457 525.656L182.316 522.469H183.688L180.143 526.447ZM179.434 526.84L180.113 525.943L183.945 531H182.586L179.434 526.84ZM188.797 527.004L188.785 526.107H190.742C191.227 526.107 191.617 525.986 191.914 525.744C192.211 525.502 192.359 525.164 192.359 524.73C192.359 524.262 192.223 523.922 191.949 523.711C191.68 523.496 191.268 523.389 190.713 523.389H189.049V531H187.912V522.469H190.713C191.584 522.469 192.266 522.65 192.758 523.014C193.25 523.373 193.496 523.949 193.496 524.742C193.496 525.094 193.406 525.412 193.227 525.697C193.047 525.979 192.795 526.209 192.471 526.389C192.15 526.568 191.777 526.684 191.352 526.734L190.953 527.004H188.797ZM188.346 531L188.996 530.086H190.9C191.436 530.086 191.85 529.947 192.143 529.67C192.436 529.393 192.582 529.02 192.582 528.551C192.582 528.234 192.525 527.961 192.412 527.73C192.299 527.496 192.123 527.316 191.885 527.191C191.646 527.066 191.336 527.004 190.953 527.004H189.342L189.354 526.107H191.557L191.797 526.436C192.207 526.471 192.555 526.586 192.84 526.781C193.125 526.977 193.342 527.227 193.49 527.531C193.643 527.836 193.719 528.172 193.719 528.539C193.719 529.34 193.461 529.951 192.945 530.373C192.434 530.791 191.752 531 190.9 531H188.346ZM198.957 526.652C198.957 526.273 198.844 525.973 198.617 525.75C198.395 525.523 198.064 525.41 197.627 525.41C197.357 525.41 197.119 525.457 196.912 525.551C196.709 525.645 196.551 525.768 196.438 525.92C196.324 526.072 196.268 526.238 196.268 526.418H195.172C195.172 526.113 195.275 525.818 195.482 525.533C195.689 525.244 195.98 525.008 196.355 524.824C196.734 524.637 197.18 524.543 197.691 524.543C198.152 524.543 198.561 524.621 198.916 524.777C199.271 524.934 199.549 525.17 199.748 525.486C199.951 525.799 200.053 526.191 200.053 526.664V529.617C200.053 529.828 200.07 530.053 200.105 530.291C200.145 530.529 200.201 530.734 200.275 530.906V531H199.133C199.078 530.875 199.035 530.709 199.004 530.502C198.973 530.291 198.957 530.096 198.957 529.916V526.652ZM199.156 527.918H198.066C197.449 527.918 196.973 528.016 196.637 528.211C196.301 528.406 196.133 528.699 196.133 529.09C196.133 529.395 196.234 529.652 196.438 529.863C196.645 530.074 196.945 530.18 197.34 530.18C197.672 530.18 197.965 530.109 198.219 529.969C198.473 529.828 198.674 529.654 198.822 529.447C198.971 529.24 199.051 529.041 199.062 528.85L199.531 529.371C199.504 529.535 199.43 529.717 199.309 529.916C199.188 530.115 199.025 530.307 198.822 530.49C198.623 530.67 198.385 530.82 198.107 530.941C197.834 531.059 197.525 531.117 197.182 531.117C196.752 531.117 196.375 531.035 196.051 530.871C195.73 530.703 195.48 530.477 195.301 530.191C195.125 529.906 195.037 529.59 195.037 529.242C195.037 528.559 195.295 528.041 195.811 527.689C196.326 527.334 197.02 527.156 197.891 527.156H199.145L199.156 527.918ZM202.854 531H201.758V524.66H202.795L202.854 526.014V531ZM202.139 527.566C202.146 526.988 202.258 526.473 202.473 526.02C202.688 525.562 202.986 525.203 203.369 524.941C203.756 524.676 204.205 524.543 204.717 524.543C205.135 524.543 205.494 524.621 205.795 524.777C206.1 524.93 206.334 525.174 206.498 525.51C206.666 525.846 206.75 526.291 206.75 526.846V531H205.654V526.834C205.654 526.502 205.605 526.234 205.508 526.031C205.414 525.828 205.273 525.682 205.086 525.592C204.898 525.498 204.668 525.451 204.395 525.451C204.125 525.451 203.881 525.508 203.662 525.621C203.443 525.734 203.254 525.891 203.094 526.09C202.934 526.289 202.811 526.518 202.725 526.775C202.639 527.029 202.596 527.299 202.596 527.584L202.139 527.566ZM209.492 531H208.396V522H209.492V531ZM210.605 527.613L209.047 529.219L208.959 528.07L210.072 526.752L212.029 524.66H213.359L210.605 527.613ZM210.107 527.971L210.676 527.01L213.652 531H212.363L210.107 527.971ZM217.18 527.766C217.18 527.152 217.297 526.604 217.531 526.119C217.766 525.635 218.098 525.252 218.527 524.971C218.957 524.686 219.467 524.543 220.057 524.543C220.654 524.543 221.17 524.686 221.604 524.971C222.037 525.252 222.369 525.635 222.6 526.119C222.834 526.604 222.951 527.152 222.951 527.766V527.9C222.951 528.51 222.834 529.059 222.6 529.547C222.369 530.031 222.037 530.414 221.604 530.695C221.174 530.977 220.662 531.117 220.068 531.117C219.475 531.117 218.961 530.977 218.527 530.695C218.098 530.414 217.766 530.031 217.531 529.547C217.297 529.059 217.18 528.51 217.18 527.9V527.766ZM218.275 527.9C218.275 528.318 218.342 528.705 218.475 529.061C218.607 529.416 218.805 529.701 219.066 529.916C219.332 530.131 219.666 530.238 220.068 530.238C220.467 530.238 220.797 530.131 221.059 529.916C221.324 529.701 221.523 529.416 221.656 529.061C221.789 528.705 221.855 528.318 221.855 527.9V527.766C221.855 527.348 221.789 526.961 221.656 526.605C221.523 526.25 221.324 525.965 221.059 525.75C220.793 525.531 220.459 525.422 220.057 525.422C219.662 525.422 219.332 525.531 219.066 525.75C218.801 525.965 218.602 526.25 218.469 526.605C218.34 526.961 218.275 527.348 218.275 527.766V527.9ZM224.85 531V523.986C224.85 523.307 225.035 522.785 225.406 522.422C225.781 522.059 226.293 521.877 226.941 521.877C227.066 521.877 227.191 521.885 227.316 521.9C227.441 521.916 227.564 521.939 227.686 521.971L227.627 522.844C227.545 522.828 227.451 522.816 227.346 522.809C227.244 522.801 227.143 522.797 227.041 522.797C226.697 522.797 226.428 522.9 226.232 523.107C226.041 523.311 225.945 523.604 225.945 523.986V531H224.85ZM227.293 525.486H223.854V524.66H227.293V525.486ZM232.854 531H231.717V522.469H232.854V531ZM235.83 531H234.734V524.66H235.771L235.83 526.014V531ZM235.115 527.566C235.123 526.988 235.234 526.473 235.449 526.02C235.664 525.562 235.963 525.203 236.346 524.941C236.732 524.676 237.182 524.543 237.693 524.543C238.111 524.543 238.471 524.621 238.771 524.777C239.076 524.93 239.311 525.174 239.475 525.51C239.643 525.846 239.727 526.291 239.727 526.846V531H238.631V526.834C238.631 526.502 238.582 526.234 238.484 526.031C238.391 525.828 238.25 525.682 238.062 525.592C237.875 525.498 237.645 525.451 237.371 525.451C237.102 525.451 236.857 525.508 236.639 525.621C236.42 525.734 236.23 525.891 236.07 526.09C235.91 526.289 235.787 526.518 235.701 526.775C235.615 527.029 235.572 527.299 235.572 527.584L235.115 527.566ZM245.363 522H246.459V531H245.457L245.363 529.77V522ZM241.104 527.777C241.104 527.133 241.207 526.568 241.414 526.084C241.625 525.596 241.918 525.217 242.293 524.947C242.668 524.678 243.107 524.543 243.611 524.543C244.143 524.543 244.586 524.666 244.941 524.912C245.297 525.154 245.574 525.5 245.773 525.949C245.977 526.398 246.107 526.934 246.166 527.555V528.123C246.107 528.736 245.979 529.268 245.779 529.717C245.58 530.162 245.301 530.508 244.941 530.754C244.586 530.996 244.139 531.117 243.6 531.117C243.104 531.117 242.668 530.979 242.293 530.701C241.918 530.42 241.625 530.037 241.414 529.553C241.207 529.068 241.104 528.518 241.104 527.9V527.777ZM242.199 527.9C242.199 528.322 242.256 528.707 242.369 529.055C242.486 529.402 242.668 529.682 242.914 529.893C243.16 530.1 243.479 530.203 243.869 530.203C244.229 530.203 244.523 530.127 244.754 529.975C244.988 529.822 245.176 529.621 245.316 529.371C245.457 529.121 245.566 528.85 245.645 528.557V527.133C245.598 526.918 245.529 526.711 245.439 526.512C245.354 526.309 245.24 526.129 245.1 525.973C244.963 525.812 244.793 525.686 244.59 525.592C244.391 525.498 244.154 525.451 243.881 525.451C243.486 525.451 243.164 525.557 242.914 525.768C242.668 525.979 242.486 526.262 242.369 526.617C242.256 526.969 242.199 527.355 242.199 527.777V527.9ZM249.33 531H248.234V524.66H249.33V531ZM248.152 522.973C248.152 522.801 248.205 522.654 248.311 522.533C248.42 522.412 248.58 522.352 248.791 522.352C249.002 522.352 249.162 522.412 249.271 522.533C249.385 522.654 249.441 522.801 249.441 522.973C249.441 523.141 249.385 523.285 249.271 523.406C249.162 523.523 249.002 523.582 248.791 523.582C248.58 523.582 248.42 523.523 248.311 523.406C248.205 523.285 248.152 523.141 248.152 522.973ZM254.797 526.652C254.797 526.273 254.684 525.973 254.457 525.75C254.234 525.523 253.904 525.41 253.467 525.41C253.197 525.41 252.959 525.457 252.752 525.551C252.549 525.645 252.391 525.768 252.277 525.92C252.164 526.072 252.107 526.238 252.107 526.418H251.012C251.012 526.113 251.115 525.818 251.322 525.533C251.529 525.244 251.82 525.008 252.195 524.824C252.574 524.637 253.02 524.543 253.531 524.543C253.992 524.543 254.4 524.621 254.756 524.777C255.111 524.934 255.389 525.17 255.588 525.486C255.791 525.799 255.893 526.191 255.893 526.664V529.617C255.893 529.828 255.91 530.053 255.945 530.291C255.984 530.529 256.041 530.734 256.115 530.906V531H254.973C254.918 530.875 254.875 530.709 254.844 530.502C254.812 530.291 254.797 530.096 254.797 529.916V526.652ZM254.996 527.918H253.906C253.289 527.918 252.812 528.016 252.477 528.211C252.141 528.406 251.973 528.699 251.973 529.09C251.973 529.395 252.074 529.652 252.277 529.863C252.484 530.074 252.785 530.18 253.18 530.18C253.512 530.18 253.805 530.109 254.059 529.969C254.312 529.828 254.514 529.654 254.662 529.447C254.811 529.24 254.891 529.041 254.902 528.85L255.371 529.371C255.344 529.535 255.27 529.717 255.148 529.916C255.027 530.115 254.865 530.307 254.662 530.49C254.463 530.67 254.225 530.82 253.947 530.941C253.674 531.059 253.365 531.117 253.021 531.117C252.592 531.117 252.215 531.035 251.891 530.871C251.57 530.703 251.32 530.477 251.141 530.191C250.965 529.906 250.877 529.59 250.877 529.242C250.877 528.559 251.135 528.041 251.65 527.689C252.166 527.334 252.859 527.156 253.73 527.156H254.984L254.996 527.918Z" fill="#F5F5F5"/>
<path d="M98.5 603L98.765 603.088C100.085 603.528 100.745 603.748 101.122 604.272C101.5 604.796 101.5 605.492 101.5 606.883V609.5C101.5 612.328 101.5 613.743 102.379 614.621C103.257 615.5 104.672 615.5 107.5 615.5H115.5" stroke="#3FF4D6" stroke-width="1.5" stroke-linecap="round"/>
<path d="M104 618C104.398 618 104.779 618.158 105.061 618.439C105.342 618.721 105.5 619.102 105.5 619.5C105.5 619.898 105.342 620.279 105.061 620.561C104.779 620.842 104.398 621 104 621C103.602 621 103.221 620.842 102.939 620.561C102.658 620.279 102.5 619.898 102.5 619.5C102.5 619.102 102.658 618.721 102.939 618.439C103.221 618.158 103.602 618 104 618ZM113 618C113.398 618 113.779 618.158 114.061 618.439C114.342 618.721 114.5 619.102 114.5 619.5C114.5 619.898 114.342 620.279 114.061 620.561C113.779 620.842 113.398 621 113 621C112.602 621 112.221 620.842 111.939 620.561C111.658 620.279 111.5 619.898 111.5 619.5C111.5 619.102 111.658 618.721 111.939 618.439C112.221 618.158 112.602 618 113 618Z" stroke="#3FF4D6" stroke-width="1.5"/>
<path d="M107.5 609H104.5" stroke="#3FF4D6" stroke-width="1.5" stroke-linecap="round"/>
<path d="M101.5 606H112.95C115.005 606 116.033 606 116.477 606.674C116.922 607.349 116.517 608.293 115.707 610.182L115.279 611.182C114.901 612.064 114.712 612.504 114.337 612.752C113.961 613 113.481 613 112.522 613H101.5" stroke="#3FF4D6" stroke-width="1.5"/>
<path d="M140.523 613.188C140.477 613.958 140.266 614.643 139.891 615.242C139.516 615.841 138.992 616.31 138.32 616.648C137.654 616.987 136.852 617.156 135.914 617.156C134.935 617.156 134.091 616.935 133.383 616.492C132.674 616.044 132.13 615.409 131.75 614.586C131.37 613.763 131.18 612.789 131.18 611.664V610.969C131.18 609.839 131.375 608.862 131.766 608.039C132.161 607.216 132.714 606.581 133.422 606.133C134.13 605.685 134.966 605.461 135.93 605.461C136.888 605.461 137.695 605.638 138.352 605.992C139.013 606.341 139.523 606.82 139.883 607.43C140.247 608.039 140.466 608.734 140.539 609.516H138.086C138.039 608.849 137.857 608.344 137.539 608C137.227 607.651 136.69 607.477 135.93 607.477C135.424 607.477 135.005 607.599 134.672 607.844C134.339 608.089 134.089 608.469 133.922 608.984C133.755 609.495 133.672 610.151 133.672 610.953V611.664C133.672 612.451 133.745 613.102 133.891 613.617C134.042 614.133 134.281 614.518 134.609 614.773C134.938 615.023 135.372 615.148 135.914 615.148C136.388 615.148 136.779 615.078 137.086 614.938C137.393 614.792 137.628 614.573 137.789 614.281C137.951 613.99 138.047 613.625 138.078 613.188H140.523ZM144.172 617H141.805V605H144.172V617ZM143.203 612.523C143.203 611.721 143.333 611.01 143.594 610.391C143.859 609.771 144.232 609.284 144.711 608.93C145.19 608.57 145.75 608.391 146.391 608.391C146.948 608.391 147.435 608.5 147.852 608.719C148.273 608.932 148.602 609.281 148.836 609.766C149.076 610.245 149.195 610.888 149.195 611.695V617H146.828V611.68C146.828 611.326 146.776 611.049 146.672 610.852C146.573 610.648 146.424 610.508 146.227 610.43C146.034 610.346 145.797 610.305 145.516 610.305C145.203 610.305 144.94 610.359 144.727 610.469C144.513 610.573 144.339 610.724 144.203 610.922C144.073 611.12 143.979 611.354 143.922 611.625C143.865 611.891 143.836 612.18 143.836 612.492L143.203 612.523ZM154.797 617.156C153.906 617.156 153.143 616.971 152.508 616.602C151.878 616.232 151.393 615.737 151.055 615.117C150.721 614.497 150.555 613.812 150.555 613.062V612.758C150.555 611.914 150.714 611.164 151.031 610.508C151.354 609.846 151.812 609.328 152.406 608.953C153 608.578 153.708 608.391 154.531 608.391C155.349 608.391 156.036 608.562 156.594 608.906C157.151 609.25 157.573 609.734 157.859 610.359C158.146 610.979 158.289 611.708 158.289 612.547V613.547H151.547V611.961H155.969V611.773C155.969 611.482 155.917 611.224 155.812 611C155.708 610.776 155.549 610.602 155.336 610.477C155.128 610.352 154.854 610.289 154.516 610.289C154.13 610.289 153.82 610.398 153.586 610.617C153.352 610.836 153.18 611.13 153.07 611.5C152.966 611.87 152.914 612.289 152.914 612.758V613.062C152.914 613.495 152.995 613.875 153.156 614.203C153.318 614.531 153.549 614.789 153.852 614.977C154.154 615.159 154.518 615.25 154.945 615.25C155.346 615.25 155.721 615.177 156.07 615.031C156.419 614.88 156.716 614.646 156.961 614.328L158.102 615.633C157.836 616.013 157.424 616.362 156.867 616.68C156.315 616.997 155.625 617.156 154.797 617.156ZM163.055 615.258C163.32 615.258 163.555 615.208 163.758 615.109C163.961 615.01 164.117 614.87 164.227 614.688C164.341 614.505 164.401 614.289 164.406 614.039H166.625C166.62 614.648 166.461 615.188 166.148 615.656C165.836 616.125 165.414 616.492 164.883 616.758C164.352 617.023 163.755 617.156 163.094 617.156C162.219 617.156 161.49 616.966 160.906 616.586C160.328 616.206 159.893 615.693 159.602 615.047C159.315 614.401 159.172 613.68 159.172 612.883V612.672C159.172 611.87 159.315 611.146 159.602 610.5C159.893 609.854 160.328 609.341 160.906 608.961C161.49 608.581 162.216 608.391 163.086 608.391C163.784 608.391 164.396 608.526 164.922 608.797C165.453 609.062 165.867 609.445 166.164 609.945C166.466 610.44 166.62 611.034 166.625 611.727H164.406C164.401 611.461 164.346 611.221 164.242 611.008C164.143 610.789 163.992 610.615 163.789 610.484C163.586 610.354 163.336 610.289 163.039 610.289C162.622 610.289 162.305 610.401 162.086 610.625C161.872 610.849 161.727 611.143 161.648 611.508C161.57 611.867 161.531 612.255 161.531 612.672V612.883C161.531 613.305 161.568 613.698 161.641 614.062C161.719 614.422 161.867 614.711 162.086 614.93C162.31 615.148 162.633 615.258 163.055 615.258ZM170.242 617H167.883V604.992H170.242V617ZM171.922 612.789L169.922 614.789L169.055 613.094L170.641 611.047L172.734 608.547H175.57L171.922 612.789ZM170.695 613.141L172.336 611.742L175.82 617H173.109L170.695 613.141ZM184.914 605.625C185.794 605.625 186.549 605.758 187.18 606.023C187.815 606.284 188.302 606.669 188.641 607.18C188.979 607.685 189.148 608.312 189.148 609.062C189.148 609.688 189.044 610.219 188.836 610.656C188.633 611.094 188.346 611.456 187.977 611.742C187.607 612.029 187.172 612.26 186.672 612.438L185.891 612.883H182.242L182.227 610.898H184.906C185.302 610.898 185.633 610.833 185.898 610.703C186.164 610.568 186.362 610.378 186.492 610.133C186.622 609.888 186.688 609.599 186.688 609.266C186.688 608.755 186.542 608.352 186.25 608.055C185.964 607.758 185.518 607.609 184.914 607.609H183.086V617H180.633V605.625H184.914ZM184.367 611.945L186.961 611.93L189.562 616.883V617H186.93L184.367 611.945ZM194.688 617.156C193.797 617.156 193.034 616.971 192.398 616.602C191.768 616.232 191.284 615.737 190.945 615.117C190.612 614.497 190.445 613.812 190.445 613.062V612.758C190.445 611.914 190.604 611.164 190.922 610.508C191.245 609.846 191.703 609.328 192.297 608.953C192.891 608.578 193.599 608.391 194.422 608.391C195.24 608.391 195.927 608.562 196.484 608.906C197.042 609.25 197.464 609.734 197.75 610.359C198.036 610.979 198.18 611.708 198.18 612.547V613.547H191.438V611.961H195.859V611.773C195.859 611.482 195.807 611.224 195.703 611C195.599 610.776 195.44 610.602 195.227 610.477C195.018 610.352 194.745 610.289 194.406 610.289C194.021 610.289 193.711 610.398 193.477 610.617C193.242 610.836 193.07 611.13 192.961 611.5C192.857 611.87 192.805 612.289 192.805 612.758V613.062C192.805 613.495 192.885 613.875 193.047 614.203C193.208 614.531 193.44 614.789 193.742 614.977C194.044 615.159 194.409 615.25 194.836 615.25C195.237 615.25 195.612 615.177 195.961 615.031C196.31 614.88 196.607 614.646 196.852 614.328L197.992 615.633C197.727 616.013 197.315 616.362 196.758 616.68C196.206 616.997 195.516 617.156 194.688 617.156ZM203.938 611.367C203.938 610.987 203.844 610.685 203.656 610.461C203.469 610.237 203.169 610.125 202.758 610.125C202.523 610.125 202.32 610.164 202.148 610.242C201.977 610.32 201.846 610.432 201.758 610.578C201.669 610.719 201.625 610.893 201.625 611.102H199.266C199.266 610.602 199.414 610.148 199.711 609.742C200.008 609.331 200.427 609.003 200.969 608.758C201.51 608.513 202.148 608.391 202.883 608.391C203.539 608.391 204.125 608.503 204.641 608.727C205.156 608.945 205.562 609.276 205.859 609.719C206.156 610.161 206.305 610.716 206.305 611.383V614.914C206.305 615.414 206.333 615.81 206.391 616.102C206.453 616.393 206.539 616.648 206.648 616.867V617H204.273C204.159 616.76 204.073 616.461 204.016 616.102C203.964 615.742 203.938 615.378 203.938 615.008V611.367ZM204.258 613.188H203.055C202.482 613.188 202.068 613.312 201.812 613.562C201.557 613.807 201.43 614.104 201.43 614.453C201.43 614.719 201.523 614.938 201.711 615.109C201.898 615.281 202.151 615.367 202.469 615.367C202.797 615.367 203.078 615.305 203.312 615.18C203.552 615.049 203.734 614.896 203.859 614.719C203.99 614.536 204.052 614.37 204.047 614.219L204.656 615.234C204.573 615.443 204.461 615.659 204.32 615.883C204.185 616.107 204.01 616.315 203.797 616.508C203.583 616.701 203.323 616.857 203.016 616.977C202.714 617.096 202.357 617.156 201.945 617.156C201.414 617.156 200.93 617.049 200.492 616.836C200.055 616.617 199.708 616.318 199.453 615.938C199.198 615.552 199.07 615.112 199.07 614.617C199.07 613.732 199.398 613.047 200.055 612.562C200.711 612.073 201.688 611.828 202.984 611.828H204.242L204.258 613.188ZM210.477 617H208.109V605H210.477V617ZM216.516 610.266H211.523V608.547H216.516V610.266ZM215.086 606.461V614.359C215.086 614.589 215.115 614.766 215.172 614.891C215.234 615.016 215.331 615.102 215.461 615.148C215.591 615.195 215.753 615.219 215.945 615.219C216.086 615.219 216.211 615.214 216.32 615.203C216.43 615.193 216.523 615.18 216.602 615.164L216.594 616.945C216.401 617.013 216.19 617.065 215.961 617.102C215.737 617.138 215.484 617.156 215.203 617.156C214.698 617.156 214.258 617.073 213.883 616.906C213.513 616.734 213.227 616.464 213.023 616.094C212.826 615.719 212.727 615.229 212.727 614.625V606.461H215.086ZM220.211 617H217.844V608.547H220.211V617ZM217.703 606.367C217.703 606.013 217.823 605.724 218.062 605.5C218.302 605.271 218.622 605.156 219.023 605.156C219.424 605.156 219.742 605.271 219.977 605.5C220.216 605.724 220.336 606.013 220.336 606.367C220.336 606.716 220.216 607.005 219.977 607.234C219.742 607.464 219.424 607.578 219.023 607.578C218.622 607.578 218.302 607.464 218.062 607.234C217.823 607.005 217.703 606.716 217.703 606.367ZM224.383 617H222.023V608.547H224.242L224.383 610.312V617ZM223.406 612.523C223.406 611.721 223.531 611.01 223.781 610.391C224.031 609.771 224.401 609.284 224.891 608.93C225.385 608.57 225.997 608.391 226.727 608.391C227.477 608.391 228.089 608.622 228.562 609.086C229.036 609.544 229.273 610.302 229.273 611.359V617H226.914V611.648C226.914 611.289 226.865 611.013 226.766 610.82C226.672 610.622 226.534 610.487 226.352 610.414C226.169 610.341 225.951 610.305 225.695 610.305C225.419 610.305 225.177 610.359 224.969 610.469C224.76 610.573 224.589 610.724 224.453 610.922C224.318 611.12 224.216 611.354 224.148 611.625C224.086 611.891 224.055 612.18 224.055 612.492L223.406 612.523ZM228.219 612.43C228.214 611.664 228.331 610.977 228.57 610.367C228.815 609.758 229.18 609.276 229.664 608.922C230.148 608.568 230.75 608.391 231.469 608.391C232.01 608.391 232.484 608.495 232.891 608.703C233.297 608.911 233.612 609.253 233.836 609.727C234.06 610.201 234.172 610.836 234.172 611.633V617H231.797V611.625C231.797 611.26 231.747 610.984 231.648 610.797C231.555 610.609 231.417 610.482 231.234 610.414C231.057 610.341 230.844 610.305 230.594 610.305C230.333 610.305 230.107 610.354 229.914 610.453C229.727 610.552 229.568 610.695 229.438 610.883C229.312 611.065 229.216 611.281 229.148 611.531C229.086 611.776 229.055 612.044 229.055 612.336L228.219 612.43ZM239.797 617.156C238.906 617.156 238.143 616.971 237.508 616.602C236.878 616.232 236.393 615.737 236.055 615.117C235.721 614.497 235.555 613.812 235.555 613.062V612.758C235.555 611.914 235.714 611.164 236.031 610.508C236.354 609.846 236.812 609.328 237.406 608.953C238 608.578 238.708 608.391 239.531 608.391C240.349 608.391 241.036 608.562 241.594 608.906C242.151 609.25 242.573 609.734 242.859 610.359C243.146 610.979 243.289 611.708 243.289 612.547V613.547H236.547V611.961H240.969V611.773C240.969 611.482 240.917 611.224 240.812 611C240.708 610.776 240.549 610.602 240.336 610.477C240.128 610.352 239.854 610.289 239.516 610.289C239.13 610.289 238.82 610.398 238.586 610.617C238.352 610.836 238.18 611.13 238.07 611.5C237.966 611.87 237.914 612.289 237.914 612.758V613.062C237.914 613.495 237.995 613.875 238.156 614.203C238.318 614.531 238.549 614.789 238.852 614.977C239.154 615.159 239.518 615.25 239.945 615.25C240.346 615.25 240.721 615.177 241.07 615.031C241.419 614.88 241.716 614.646 241.961 614.328L243.102 615.633C242.836 616.013 242.424 616.362 241.867 616.68C241.315 616.997 240.625 617.156 239.797 617.156ZM257.664 613.188C257.617 613.958 257.406 614.643 257.031 615.242C256.656 615.841 256.133 616.31 255.461 616.648C254.794 616.987 253.992 617.156 253.055 617.156C252.076 617.156 251.232 616.935 250.523 616.492C249.815 616.044 249.271 615.409 248.891 614.586C248.51 613.763 248.32 612.789 248.32 611.664V610.969C248.32 609.839 248.516 608.862 248.906 608.039C249.302 607.216 249.854 606.581 250.562 606.133C251.271 605.685 252.107 605.461 253.07 605.461C254.029 605.461 254.836 605.638 255.492 605.992C256.154 606.341 256.664 606.82 257.023 607.43C257.388 608.039 257.607 608.734 257.68 609.516H255.227C255.18 608.849 254.997 608.344 254.68 608C254.367 607.651 253.831 607.477 253.07 607.477C252.565 607.477 252.146 607.599 251.812 607.844C251.479 608.089 251.229 608.469 251.062 608.984C250.896 609.495 250.812 610.151 250.812 610.953V611.664C250.812 612.451 250.885 613.102 251.031 613.617C251.182 614.133 251.422 614.518 251.75 614.773C252.078 615.023 252.513 615.148 253.055 615.148C253.529 615.148 253.919 615.078 254.227 614.938C254.534 614.792 254.768 614.573 254.93 614.281C255.091 613.99 255.188 613.625 255.219 613.188H257.664ZM263.531 611.367C263.531 610.987 263.438 610.685 263.25 610.461C263.062 610.237 262.763 610.125 262.352 610.125C262.117 610.125 261.914 610.164 261.742 610.242C261.57 610.32 261.44 610.432 261.352 610.578C261.263 610.719 261.219 610.893 261.219 611.102H258.859C258.859 610.602 259.008 610.148 259.305 609.742C259.602 609.331 260.021 609.003 260.562 608.758C261.104 608.513 261.742 608.391 262.477 608.391C263.133 608.391 263.719 608.503 264.234 608.727C264.75 608.945 265.156 609.276 265.453 609.719C265.75 610.161 265.898 610.716 265.898 611.383V614.914C265.898 615.414 265.927 615.81 265.984 616.102C266.047 616.393 266.133 616.648 266.242 616.867V617H263.867C263.753 616.76 263.667 616.461 263.609 616.102C263.557 615.742 263.531 615.378 263.531 615.008V611.367ZM263.852 613.188H262.648C262.076 613.188 261.661 613.312 261.406 613.562C261.151 613.807 261.023 614.104 261.023 614.453C261.023 614.719 261.117 614.938 261.305 615.109C261.492 615.281 261.745 615.367 262.062 615.367C262.391 615.367 262.672 615.305 262.906 615.18C263.146 615.049 263.328 614.896 263.453 614.719C263.583 614.536 263.646 614.37 263.641 614.219L264.25 615.234C264.167 615.443 264.055 615.659 263.914 615.883C263.779 616.107 263.604 616.315 263.391 616.508C263.177 616.701 262.917 616.857 262.609 616.977C262.307 617.096 261.951 617.156 261.539 617.156C261.008 617.156 260.523 617.049 260.086 616.836C259.648 616.617 259.302 616.318 259.047 615.938C258.792 615.552 258.664 615.112 258.664 614.617C258.664 613.732 258.992 613.047 259.648 612.562C260.305 612.073 261.281 611.828 262.578 611.828H263.836L263.852 613.188ZM269.945 617H267.586V608.547H269.805L269.945 610.492V617ZM272.414 610.766C272.299 610.75 272.164 610.737 272.008 610.727C271.852 610.711 271.711 610.703 271.586 610.703C271.174 610.703 270.836 610.768 270.57 610.898C270.305 611.023 270.107 611.211 269.977 611.461C269.846 611.711 269.776 612.021 269.766 612.391L269.305 612.188C269.305 611.453 269.398 610.799 269.586 610.227C269.773 609.654 270.049 609.206 270.414 608.883C270.779 608.555 271.221 608.391 271.742 608.391C271.862 608.391 271.987 608.398 272.117 608.414C272.253 608.43 272.362 608.456 272.445 608.492L272.414 610.766ZM278.094 610.266H273.102V608.547H278.094V610.266ZM276.664 606.461V614.359C276.664 614.589 276.693 614.766 276.75 614.891C276.812 615.016 276.909 615.102 277.039 615.148C277.169 615.195 277.331 615.219 277.523 615.219C277.664 615.219 277.789 615.214 277.898 615.203C278.008 615.193 278.102 615.18 278.18 615.164L278.172 616.945C277.979 617.013 277.768 617.065 277.539 617.102C277.315 617.138 277.062 617.156 276.781 617.156C276.276 617.156 275.836 617.073 275.461 616.906C275.091 616.734 274.805 616.464 274.602 616.094C274.404 615.719 274.305 615.229 274.305 614.625V606.461H276.664Z" fill="#3FF4D6"/>
<path d="M130.539 618.562H278.453V619.344H130.539V618.562Z" fill="#3FF4D6"/>
<defs>
<clipPath id="clip0_601_3702">
<rect width="14" height="14" fill="white" transform="translate(294 11)"/>
</clipPath>
<clipPath id="clip1_601_3702">
<rect width="375" height="80" fill="white" transform="translate(0 676)"/>
</clipPath>
</defs>
</svg>
