<svg width="24" height="24" viewBox="0 0 24 24" fill="none" xmlns="http://www.w3.org/2000/svg">
<path d="M1.55492 4.78C1.24845 4.78 1 5.02845 1 5.33492C1 5.6414 1.24845 5.88985 1.55492 5.88985H6.36428C6.67075 5.88985 6.9192 5.6414 6.9192 5.33492C6.9192 5.02845 6.67075 4.78 6.36428 4.78H1.55492Z" fill="#F4405F"/>
<path d="M3.43726 7.91134C3.32628 7.44631 3.67886 6.9997 4.15695 6.9997H22.2598C22.7379 6.9997 23.0904 7.44631 22.9795 7.91134L22.596 9.51833C22.586 9.55997 22.5488 9.58935 22.506 9.58935H7.01169C6.96061 9.58935 6.9192 9.63076 6.9192 9.68184C6.9192 9.73292 6.96061 9.77432 7.01169 9.77432H22.4763C22.5062 9.77432 22.5282 9.80224 22.5213 9.8313L21.9338 12.293C21.9239 12.3346 21.8867 12.364 21.8439 12.364H8.49149C8.44041 12.364 8.39901 12.4054 8.39901 12.4565C8.39901 12.5075 8.44041 12.5489 8.49149 12.5489H21.8142C21.8441 12.5489 21.8661 12.5769 21.8592 12.6059L21.3904 14.5704C21.3109 14.9036 21.0131 15.1386 20.6707 15.1386H5.74605C5.40357 15.1386 5.10586 14.9036 5.02636 14.5704L3.43726 7.91134Z" fill="#F4405F"/>
<path d="M8.49149 17.5433C8.49149 18.4627 7.74614 19.208 6.82671 19.208C5.90728 19.208 5.16194 18.4627 5.16194 17.5433C5.16194 16.6238 5.90728 15.8785 6.82671 15.8785C7.74614 15.8785 8.49149 16.6238 8.49149 17.5433Z" fill="#F4405F"/>
<path d="M19.59 19.208C20.5094 19.208 21.2548 18.4627 21.2548 17.5433C21.2548 16.6238 20.5094 15.8785 19.59 15.8785C18.6706 15.8785 17.9252 16.6238 17.9252 17.5433C17.9252 18.4627 18.6706 19.208 19.59 19.208Z" fill="#F4405F"/>
</svg>
