<svg width="375" height="812" viewBox="0 0 375 812" fill="none" xmlns="http://www.w3.org/2000/svg">
<rect width="375" height="812" rx="25" fill="#161B1F"/>
<path d="M94.9219 496H96.3828V508H95.0469L94.9219 506.359V496ZM89.2422 503.703C89.2422 502.844 89.3802 502.091 89.6562 501.445C89.9375 500.794 90.3281 500.289 90.8281 499.93C91.3281 499.57 91.9141 499.391 92.5859 499.391C93.2943 499.391 93.8854 499.555 94.3594 499.883C94.8333 500.206 95.2031 500.667 95.4688 501.266C95.7396 501.865 95.9141 502.578 95.9922 503.406V504.164C95.9141 504.982 95.7422 505.69 95.4766 506.289C95.2109 506.883 94.8385 507.344 94.3594 507.672C93.8854 507.995 93.2891 508.156 92.5703 508.156C91.9089 508.156 91.3281 507.971 90.8281 507.602C90.3281 507.227 89.9375 506.716 89.6562 506.07C89.3802 505.424 89.2422 504.69 89.2422 503.867V503.703ZM90.7031 503.867C90.7031 504.43 90.7786 504.943 90.9297 505.406C91.0859 505.87 91.3281 506.242 91.6562 506.523C91.9844 506.799 92.4089 506.938 92.9297 506.938C93.4089 506.938 93.8021 506.836 94.1094 506.633C94.4219 506.43 94.6719 506.161 94.8594 505.828C95.0469 505.495 95.1927 505.133 95.2969 504.742V502.844C95.2344 502.557 95.1432 502.281 95.0234 502.016C94.9089 501.745 94.7578 501.505 94.5703 501.297C94.388 501.083 94.1615 500.914 93.8906 500.789C93.625 500.664 93.3099 500.602 92.9453 500.602C92.4193 500.602 91.9896 500.742 91.6562 501.023C91.3281 501.305 91.0859 501.682 90.9297 502.156C90.7786 502.625 90.7031 503.141 90.7031 503.703V503.867ZM102.141 508.156C101.354 508.156 100.669 507.982 100.086 507.633C99.5078 507.279 99.0573 506.794 98.7344 506.18C98.4167 505.565 98.2578 504.862 98.2578 504.07V503.734C98.2578 502.818 98.4323 502.036 98.7812 501.391C99.1354 500.74 99.5938 500.245 100.156 499.906C100.724 499.562 101.323 499.391 101.953 499.391C102.766 499.391 103.427 499.573 103.938 499.938C104.453 500.297 104.831 500.789 105.07 501.414C105.315 502.034 105.438 502.737 105.438 503.523V504.172H99.125V503H103.977V502.891C103.956 502.516 103.88 502.151 103.75 501.797C103.62 501.438 103.411 501.143 103.125 500.914C102.839 500.68 102.448 500.562 101.953 500.562C101.516 500.562 101.128 500.688 100.789 500.938C100.456 501.182 100.193 501.542 100 502.016C99.8125 502.484 99.7188 503.057 99.7188 503.734V504.07C99.7188 504.607 99.8177 505.096 100.016 505.539C100.214 505.977 100.5 506.328 100.875 506.594C101.25 506.854 101.698 506.984 102.219 506.984C102.729 506.984 103.161 506.88 103.516 506.672C103.87 506.464 104.18 506.185 104.445 505.836L105.328 506.523C105.057 506.94 104.667 507.318 104.156 507.656C103.651 507.99 102.979 508.156 102.141 508.156ZM110.516 506.984C110.859 506.984 111.177 506.914 111.469 506.773C111.76 506.628 112 506.43 112.188 506.18C112.375 505.93 112.482 505.646 112.508 505.328H113.891C113.865 505.828 113.695 506.294 113.383 506.727C113.07 507.154 112.664 507.5 112.164 507.766C111.664 508.026 111.115 508.156 110.516 508.156C109.667 508.156 108.964 507.964 108.406 507.578C107.849 507.188 107.432 506.672 107.156 506.031C106.885 505.391 106.75 504.693 106.75 503.938V503.609C106.75 502.849 106.888 502.151 107.164 501.516C107.44 500.875 107.857 500.362 108.414 499.977C108.971 499.586 109.672 499.391 110.516 499.391C111.177 499.391 111.755 499.526 112.25 499.797C112.75 500.062 113.141 500.427 113.422 500.891C113.708 501.349 113.865 501.87 113.891 502.453H112.508C112.482 502.104 112.383 501.786 112.211 501.5C112.044 501.214 111.815 500.987 111.523 500.82C111.237 500.648 110.901 500.562 110.516 500.562C109.927 500.562 109.464 500.714 109.125 501.016C108.792 501.318 108.555 501.703 108.414 502.172C108.279 502.635 108.211 503.115 108.211 503.609V503.938C108.211 504.432 108.279 504.914 108.414 505.383C108.549 505.852 108.784 506.237 109.117 506.539C109.456 506.836 109.922 506.984 110.516 506.984ZM118.906 506.984C119.25 506.984 119.568 506.914 119.859 506.773C120.151 506.628 120.391 506.43 120.578 506.18C120.766 505.93 120.872 505.646 120.898 505.328H122.281C122.255 505.828 122.086 506.294 121.773 506.727C121.461 507.154 121.055 507.5 120.555 507.766C120.055 508.026 119.505 508.156 118.906 508.156C118.057 508.156 117.354 507.964 116.797 507.578C116.24 507.188 115.823 506.672 115.547 506.031C115.276 505.391 115.141 504.693 115.141 503.938V503.609C115.141 502.849 115.279 502.151 115.555 501.516C115.831 500.875 116.247 500.362 116.805 499.977C117.362 499.586 118.062 499.391 118.906 499.391C119.568 499.391 120.146 499.526 120.641 499.797C121.141 500.062 121.531 500.427 121.812 500.891C122.099 501.349 122.255 501.87 122.281 502.453H120.898C120.872 502.104 120.773 501.786 120.602 501.5C120.435 501.214 120.206 500.987 119.914 500.82C119.628 500.648 119.292 500.562 118.906 500.562C118.318 500.562 117.854 500.714 117.516 501.016C117.182 501.318 116.945 501.703 116.805 502.172C116.669 502.635 116.602 503.115 116.602 503.609V503.938C116.602 504.432 116.669 504.914 116.805 505.383C116.94 505.852 117.174 506.237 117.508 506.539C117.846 506.836 118.312 506.984 118.906 506.984ZM128.891 502.203C128.891 501.698 128.74 501.297 128.438 501C128.141 500.698 127.701 500.547 127.117 500.547C126.758 500.547 126.44 500.609 126.164 500.734C125.893 500.859 125.682 501.023 125.531 501.227C125.38 501.43 125.305 501.651 125.305 501.891H123.844C123.844 501.484 123.982 501.091 124.258 500.711C124.534 500.326 124.922 500.01 125.422 499.766C125.927 499.516 126.521 499.391 127.203 499.391C127.818 499.391 128.362 499.495 128.836 499.703C129.31 499.911 129.68 500.227 129.945 500.648C130.216 501.065 130.352 501.589 130.352 502.219V506.156C130.352 506.438 130.375 506.737 130.422 507.055C130.474 507.372 130.549 507.646 130.648 507.875V508H129.125C129.052 507.833 128.995 507.612 128.953 507.336C128.911 507.055 128.891 506.794 128.891 506.555V502.203ZM129.156 503.891H127.703C126.88 503.891 126.245 504.021 125.797 504.281C125.349 504.542 125.125 504.932 125.125 505.453C125.125 505.859 125.26 506.203 125.531 506.484C125.807 506.766 126.208 506.906 126.734 506.906C127.177 506.906 127.568 506.812 127.906 506.625C128.245 506.438 128.513 506.206 128.711 505.93C128.909 505.654 129.016 505.388 129.031 505.133L129.656 505.828C129.62 506.047 129.521 506.289 129.359 506.555C129.198 506.82 128.982 507.076 128.711 507.32C128.445 507.56 128.128 507.76 127.758 507.922C127.393 508.078 126.982 508.156 126.523 508.156C125.951 508.156 125.448 508.047 125.016 507.828C124.589 507.604 124.255 507.302 124.016 506.922C123.781 506.542 123.664 506.12 123.664 505.656C123.664 504.745 124.008 504.055 124.695 503.586C125.383 503.112 126.307 502.875 127.469 502.875H129.141L129.156 503.891ZM134.086 508H132.625V499.547H134.008L134.086 501.352V508ZM133.133 503.422C133.143 502.651 133.292 501.964 133.578 501.359C133.865 500.75 134.263 500.271 134.773 499.922C135.289 499.568 135.888 499.391 136.57 499.391C137.128 499.391 137.607 499.495 138.008 499.703C138.414 499.906 138.727 500.232 138.945 500.68C139.169 501.128 139.281 501.721 139.281 502.461V508H137.82V502.445C137.82 502.003 137.755 501.646 137.625 501.375C137.5 501.104 137.312 500.909 137.062 500.789C136.812 500.664 136.505 500.602 136.141 500.602C135.781 500.602 135.456 500.677 135.164 500.828C134.872 500.979 134.62 501.188 134.406 501.453C134.193 501.719 134.029 502.023 133.914 502.367C133.799 502.706 133.742 503.065 133.742 503.445L133.133 503.422ZM146.453 502.203C146.453 501.698 146.302 501.297 146 501C145.703 500.698 145.263 500.547 144.68 500.547C144.32 500.547 144.003 500.609 143.727 500.734C143.456 500.859 143.245 501.023 143.094 501.227C142.943 501.43 142.867 501.651 142.867 501.891H141.406C141.406 501.484 141.544 501.091 141.82 500.711C142.096 500.326 142.484 500.01 142.984 499.766C143.49 499.516 144.083 499.391 144.766 499.391C145.38 499.391 145.924 499.495 146.398 499.703C146.872 499.911 147.242 500.227 147.508 500.648C147.779 501.065 147.914 501.589 147.914 502.219V506.156C147.914 506.438 147.938 506.737 147.984 507.055C148.036 507.372 148.112 507.646 148.211 507.875V508H146.688C146.615 507.833 146.557 507.612 146.516 507.336C146.474 507.055 146.453 506.794 146.453 506.555V502.203ZM146.719 503.891H145.266C144.443 503.891 143.807 504.021 143.359 504.281C142.911 504.542 142.688 504.932 142.688 505.453C142.688 505.859 142.823 506.203 143.094 506.484C143.37 506.766 143.771 506.906 144.297 506.906C144.74 506.906 145.13 506.812 145.469 506.625C145.807 506.438 146.076 506.206 146.273 505.93C146.471 505.654 146.578 505.388 146.594 505.133L147.219 505.828C147.182 506.047 147.083 506.289 146.922 506.555C146.76 506.82 146.544 507.076 146.273 507.32C146.008 507.56 145.69 507.76 145.32 507.922C144.956 508.078 144.544 508.156 144.086 508.156C143.513 508.156 143.01 508.047 142.578 507.828C142.151 507.604 141.818 507.302 141.578 506.922C141.344 506.542 141.227 506.12 141.227 505.656C141.227 504.745 141.57 504.055 142.258 503.586C142.945 503.112 143.87 502.875 145.031 502.875H146.703L146.719 503.891ZM151.648 508H150.188V499.547H151.609L151.648 500.875V508ZM154.281 500.836C154.156 500.81 154.039 500.794 153.93 500.789C153.826 500.779 153.706 500.773 153.57 500.773C153.128 500.773 152.753 500.865 152.445 501.047C152.143 501.229 151.909 501.482 151.742 501.805C151.576 502.122 151.471 502.487 151.43 502.898L151.016 503.133C151.016 502.451 151.107 501.828 151.289 501.266C151.471 500.698 151.755 500.245 152.141 499.906C152.531 499.562 153.031 499.391 153.641 499.391C153.74 499.391 153.857 499.404 153.992 499.43C154.133 499.451 154.229 499.474 154.281 499.5V500.836ZM159.555 500.648H154.977V499.547H159.555V500.648ZM157.977 497.492V505.906C157.977 506.198 158.021 506.417 158.109 506.562C158.198 506.708 158.312 506.805 158.453 506.852C158.594 506.898 158.745 506.922 158.906 506.922C159.026 506.922 159.151 506.911 159.281 506.891C159.417 506.87 159.516 506.852 159.578 506.836L159.586 508C159.471 508.036 159.32 508.07 159.133 508.102C158.951 508.138 158.729 508.156 158.469 508.156C158.115 508.156 157.789 508.086 157.492 507.945C157.195 507.805 156.958 507.57 156.781 507.242C156.604 506.909 156.516 506.461 156.516 505.898V497.492H157.977ZM166.156 505.758C166.156 505.549 166.109 505.357 166.016 505.18C165.927 504.997 165.745 504.833 165.469 504.688C165.193 504.536 164.776 504.404 164.219 504.289C163.594 504.159 163.052 503.995 162.594 503.797C162.141 503.594 161.789 503.336 161.539 503.023C161.294 502.711 161.172 502.323 161.172 501.859C161.172 501.411 161.299 501.003 161.555 500.633C161.815 500.258 162.18 499.958 162.648 499.734C163.122 499.505 163.674 499.391 164.305 499.391C164.982 499.391 165.56 499.51 166.039 499.75C166.523 499.984 166.893 500.302 167.148 500.703C167.404 501.099 167.531 501.539 167.531 502.023H166.07C166.07 501.674 165.917 501.344 165.609 501.031C165.307 500.719 164.872 500.562 164.305 500.562C163.909 500.562 163.586 500.625 163.336 500.75C163.091 500.87 162.911 501.026 162.797 501.219C162.688 501.406 162.633 501.604 162.633 501.812C162.633 502.021 162.685 502.203 162.789 502.359C162.893 502.51 163.083 502.646 163.359 502.766C163.641 502.885 164.047 503.005 164.578 503.125C165.271 503.281 165.841 503.469 166.289 503.688C166.737 503.906 167.07 504.174 167.289 504.492C167.508 504.81 167.617 505.198 167.617 505.656C167.617 506.146 167.482 506.581 167.211 506.961C166.94 507.336 166.56 507.63 166.07 507.844C165.581 508.052 165.005 508.156 164.344 508.156C163.599 508.156 162.969 508.023 162.453 507.758C161.938 507.492 161.547 507.151 161.281 506.734C161.016 506.312 160.883 505.867 160.883 505.398H162.344C162.37 505.794 162.484 506.109 162.688 506.344C162.896 506.573 163.148 506.737 163.445 506.836C163.747 506.935 164.047 506.984 164.344 506.984C164.74 506.984 165.07 506.932 165.336 506.828C165.607 506.719 165.81 506.573 165.945 506.391C166.086 506.203 166.156 505.992 166.156 505.758ZM181.961 504.07C181.94 504.549 181.867 505.031 181.742 505.516C181.622 505.995 181.435 506.435 181.18 506.836C180.93 507.237 180.607 507.56 180.211 507.805C179.815 508.044 179.333 508.164 178.766 508.164C178.042 508.164 177.508 507.917 177.164 507.422C176.826 506.927 176.698 506.263 176.781 505.43L177.18 501.102H178.336L177.938 505.43C177.906 505.81 177.914 506.12 177.961 506.359C178.013 506.594 178.091 506.776 178.195 506.906C178.299 507.031 178.417 507.117 178.547 507.164C178.677 507.211 178.805 507.234 178.93 507.234C179.352 507.234 179.706 507.094 179.992 506.812C180.284 506.526 180.51 506.143 180.672 505.664C180.833 505.185 180.924 504.654 180.945 504.07C181.008 502.773 180.87 501.661 180.531 500.734C180.193 499.802 179.643 499.089 178.883 498.594C178.128 498.094 177.146 497.844 175.938 497.844C174.849 497.844 173.904 498.115 173.102 498.656C172.299 499.193 171.669 499.943 171.211 500.906C170.758 501.87 170.503 502.99 170.445 504.266C170.398 505.24 170.474 506.115 170.672 506.891C170.875 507.667 171.188 508.328 171.609 508.875C172.036 509.427 172.568 509.846 173.203 510.133C173.844 510.424 174.578 510.57 175.406 510.57C175.87 510.57 176.336 510.516 176.805 510.406C177.273 510.297 177.669 510.148 177.992 509.961L178.289 510.844C177.924 511.078 177.469 511.253 176.922 511.367C176.38 511.482 175.865 511.539 175.375 511.539C174.057 511.539 172.935 511.245 172.008 510.656C171.081 510.068 170.383 509.229 169.914 508.141C169.451 507.052 169.247 505.76 169.305 504.266C169.352 503.193 169.539 502.206 169.867 501.305C170.201 500.398 170.656 499.609 171.234 498.938C171.818 498.266 172.508 497.745 173.305 497.375C174.102 497.005 174.99 496.82 175.969 496.82C177.307 496.82 178.432 497.117 179.344 497.711C180.255 498.299 180.935 499.138 181.383 500.227C181.831 501.31 182.023 502.591 181.961 504.07ZM173.953 504.734C173.906 505.224 173.922 505.643 174 505.992C174.078 506.336 174.216 506.599 174.414 506.781C174.612 506.958 174.862 507.047 175.164 507.047C175.367 507.047 175.581 506.979 175.805 506.844C176.029 506.708 176.24 506.49 176.438 506.188C176.641 505.885 176.805 505.49 176.93 505L177.445 505.562C177.206 506.411 176.841 507.057 176.352 507.5C175.862 507.943 175.346 508.164 174.805 508.164C174.294 508.164 173.87 508.021 173.531 507.734C173.198 507.448 172.961 507.047 172.82 506.531C172.68 506.016 172.641 505.417 172.703 504.734C172.786 503.818 172.992 503.026 173.32 502.359C173.654 501.693 174.062 501.177 174.547 500.812C175.036 500.448 175.547 500.266 176.078 500.266C176.646 500.266 177.091 500.349 177.414 500.516C177.737 500.677 178.044 500.872 178.336 501.102L177.672 501.859C177.516 501.719 177.315 501.586 177.07 501.461C176.831 501.331 176.542 501.266 176.203 501.266C175.828 501.266 175.482 501.396 175.164 501.656C174.846 501.917 174.581 502.305 174.367 502.82C174.159 503.331 174.021 503.969 173.953 504.734ZM183.484 503.688C183.484 502.87 183.641 502.138 183.953 501.492C184.266 500.846 184.708 500.336 185.281 499.961C185.854 499.581 186.534 499.391 187.32 499.391C188.117 499.391 188.805 499.581 189.383 499.961C189.961 500.336 190.404 500.846 190.711 501.492C191.023 502.138 191.18 502.87 191.18 503.688V503.867C191.18 504.68 191.023 505.411 190.711 506.062C190.404 506.708 189.961 507.219 189.383 507.594C188.81 507.969 188.128 508.156 187.336 508.156C186.544 508.156 185.859 507.969 185.281 507.594C184.708 507.219 184.266 506.708 183.953 506.062C183.641 505.411 183.484 504.68 183.484 503.867V503.688ZM184.945 503.867C184.945 504.424 185.034 504.94 185.211 505.414C185.388 505.888 185.651 506.268 186 506.555C186.354 506.841 186.799 506.984 187.336 506.984C187.867 506.984 188.307 506.841 188.656 506.555C189.01 506.268 189.276 505.888 189.453 505.414C189.63 504.94 189.719 504.424 189.719 503.867V503.688C189.719 503.13 189.63 502.615 189.453 502.141C189.276 501.667 189.01 501.286 188.656 501C188.302 500.708 187.857 500.562 187.32 500.562C186.794 500.562 186.354 500.708 186 501C185.646 501.286 185.38 501.667 185.203 502.141C185.031 502.615 184.945 503.13 184.945 503.688V503.867ZM194.469 508H193.008V496H194.469V508ZM195.953 503.484L193.875 505.625L193.758 504.094L195.242 502.336L197.852 499.547H199.625L195.953 503.484ZM195.289 503.961L196.047 502.68L200.016 508H198.297L195.289 503.961ZM202.586 496V506.359L202.461 508H201.125V496H202.586ZM208.289 503.867C208.289 504.69 208.161 505.424 207.906 506.07C207.651 506.716 207.279 507.227 206.789 507.602C206.299 507.971 205.706 508.156 205.008 508.156C204.289 508.156 203.69 507.995 203.211 507.672C202.732 507.344 202.359 506.883 202.094 506.289C201.828 505.69 201.654 504.982 201.57 504.164V503.406C201.654 502.578 201.828 501.865 202.094 501.266C202.359 500.667 202.729 500.206 203.203 499.883C203.682 499.555 204.279 499.391 204.992 499.391C205.701 499.391 206.299 499.57 206.789 499.93C207.279 500.289 207.651 500.794 207.906 501.445C208.161 502.091 208.289 502.844 208.289 503.703V503.867ZM206.828 503.703C206.828 503.141 206.758 502.625 206.617 502.156C206.477 501.682 206.245 501.305 205.922 501.023C205.604 500.742 205.172 500.602 204.625 500.602C204.266 500.602 203.951 500.664 203.68 500.789C203.414 500.914 203.188 501.083 203 501.297C202.812 501.505 202.659 501.745 202.539 502.016C202.424 502.281 202.339 502.557 202.281 502.844V504.742C202.365 505.107 202.5 505.458 202.688 505.797C202.875 506.13 203.128 506.404 203.445 506.617C203.768 506.831 204.167 506.938 204.641 506.938C205.161 506.938 205.581 506.799 205.898 506.523C206.221 506.242 206.456 505.87 206.602 505.406C206.753 504.943 206.828 504.43 206.828 503.867V503.703ZM215.094 502.203C215.094 501.698 214.943 501.297 214.641 501C214.344 500.698 213.904 500.547 213.32 500.547C212.961 500.547 212.643 500.609 212.367 500.734C212.096 500.859 211.885 501.023 211.734 501.227C211.583 501.43 211.508 501.651 211.508 501.891H210.047C210.047 501.484 210.185 501.091 210.461 500.711C210.737 500.326 211.125 500.01 211.625 499.766C212.13 499.516 212.724 499.391 213.406 499.391C214.021 499.391 214.565 499.495 215.039 499.703C215.513 499.911 215.883 500.227 216.148 500.648C216.419 501.065 216.555 501.589 216.555 502.219V506.156C216.555 506.438 216.578 506.737 216.625 507.055C216.677 507.372 216.753 507.646 216.852 507.875V508H215.328C215.255 507.833 215.198 507.612 215.156 507.336C215.115 507.055 215.094 506.794 215.094 506.555V502.203ZM215.359 503.891H213.906C213.083 503.891 212.448 504.021 212 504.281C211.552 504.542 211.328 504.932 211.328 505.453C211.328 505.859 211.464 506.203 211.734 506.484C212.01 506.766 212.411 506.906 212.938 506.906C213.38 506.906 213.771 506.812 214.109 506.625C214.448 506.438 214.716 506.206 214.914 505.93C215.112 505.654 215.219 505.388 215.234 505.133L215.859 505.828C215.823 506.047 215.724 506.289 215.562 506.555C215.401 506.82 215.185 507.076 214.914 507.32C214.648 507.56 214.331 507.76 213.961 507.922C213.596 508.078 213.185 508.156 212.727 508.156C212.154 508.156 211.651 508.047 211.219 507.828C210.792 507.604 210.458 507.302 210.219 506.922C209.984 506.542 209.867 506.12 209.867 505.656C209.867 504.745 210.211 504.055 210.898 503.586C211.586 503.112 212.51 502.875 213.672 502.875H215.344L215.359 503.891ZM220.289 508H218.828V499.547H220.211L220.289 501.352V508ZM219.336 503.422C219.346 502.651 219.495 501.964 219.781 501.359C220.068 500.75 220.466 500.271 220.977 499.922C221.492 499.568 222.091 499.391 222.773 499.391C223.331 499.391 223.81 499.495 224.211 499.703C224.617 499.906 224.93 500.232 225.148 500.68C225.372 501.128 225.484 501.721 225.484 502.461V508H224.023V502.445C224.023 502.003 223.958 501.646 223.828 501.375C223.703 501.104 223.516 500.909 223.266 500.789C223.016 500.664 222.708 500.602 222.344 500.602C221.984 500.602 221.659 500.677 221.367 500.828C221.076 500.979 220.823 501.188 220.609 501.453C220.396 501.719 220.232 502.023 220.117 502.367C220.003 502.706 219.945 503.065 219.945 503.445L219.336 503.422ZM229.141 508H227.68V496H229.141V508ZM230.625 503.484L228.547 505.625L228.43 504.094L229.914 502.336L232.523 499.547H234.297L230.625 503.484ZM229.961 503.961L230.719 502.68L234.688 508H232.969L229.961 503.961ZM237.258 511.25H235.797V499.547H237.125L237.258 501.172V511.25ZM242.945 503.867C242.945 504.69 242.818 505.424 242.562 506.07C242.307 506.716 241.935 507.227 241.445 507.602C240.961 507.971 240.37 508.156 239.672 508.156C238.948 508.156 238.341 508 237.852 507.688C237.362 507.375 236.979 506.932 236.703 506.359C236.427 505.781 236.247 505.099 236.164 504.312V503.406C236.247 502.578 236.427 501.865 236.703 501.266C236.984 500.667 237.367 500.206 237.852 499.883C238.341 499.555 238.94 499.391 239.648 499.391C240.357 499.391 240.956 499.57 241.445 499.93C241.935 500.289 242.307 500.794 242.562 501.445C242.818 502.091 242.945 502.844 242.945 503.703V503.867ZM241.484 503.703C241.484 503.141 241.404 502.625 241.242 502.156C241.086 501.682 240.839 501.305 240.5 501.023C240.167 500.742 239.737 500.602 239.211 500.602C238.852 500.602 238.539 500.664 238.273 500.789C238.008 500.914 237.781 501.083 237.594 501.297C237.406 501.505 237.253 501.745 237.133 502.016C237.018 502.281 236.932 502.557 236.875 502.844V504.883C236.979 505.247 237.122 505.591 237.305 505.914C237.492 506.232 237.74 506.49 238.047 506.688C238.359 506.885 238.753 506.984 239.227 506.984C239.747 506.984 240.174 506.841 240.508 506.555C240.841 506.268 241.086 505.891 241.242 505.422C241.404 504.948 241.484 504.43 241.484 503.867V503.703ZM249.766 502.203C249.766 501.698 249.615 501.297 249.312 501C249.016 500.698 248.576 500.547 247.992 500.547C247.633 500.547 247.315 500.609 247.039 500.734C246.768 500.859 246.557 501.023 246.406 501.227C246.255 501.43 246.18 501.651 246.18 501.891H244.719C244.719 501.484 244.857 501.091 245.133 500.711C245.409 500.326 245.797 500.01 246.297 499.766C246.802 499.516 247.396 499.391 248.078 499.391C248.693 499.391 249.237 499.495 249.711 499.703C250.185 499.911 250.555 500.227 250.82 500.648C251.091 501.065 251.227 501.589 251.227 502.219V506.156C251.227 506.438 251.25 506.737 251.297 507.055C251.349 507.372 251.424 507.646 251.523 507.875V508H250C249.927 507.833 249.87 507.612 249.828 507.336C249.786 507.055 249.766 506.794 249.766 506.555V502.203ZM250.031 503.891H248.578C247.755 503.891 247.12 504.021 246.672 504.281C246.224 504.542 246 504.932 246 505.453C246 505.859 246.135 506.203 246.406 506.484C246.682 506.766 247.083 506.906 247.609 506.906C248.052 506.906 248.443 506.812 248.781 506.625C249.12 506.438 249.388 506.206 249.586 505.93C249.784 505.654 249.891 505.388 249.906 505.133L250.531 505.828C250.495 506.047 250.396 506.289 250.234 506.555C250.073 506.82 249.857 507.076 249.586 507.32C249.32 507.56 249.003 507.76 248.633 507.922C248.268 508.078 247.857 508.156 247.398 508.156C246.826 508.156 246.323 508.047 245.891 507.828C245.464 507.604 245.13 507.302 244.891 506.922C244.656 506.542 244.539 506.12 244.539 505.656C244.539 504.745 244.883 504.055 245.57 503.586C246.258 503.112 247.182 502.875 248.344 502.875H250.016L250.031 503.891ZM254.961 508H253.5V499.547H254.922L254.961 500.875V508ZM257.594 500.836C257.469 500.81 257.352 500.794 257.242 500.789C257.138 500.779 257.018 500.773 256.883 500.773C256.44 500.773 256.065 500.865 255.758 501.047C255.456 501.229 255.221 501.482 255.055 501.805C254.888 502.122 254.784 502.487 254.742 502.898L254.328 503.133C254.328 502.451 254.419 501.828 254.602 501.266C254.784 500.698 255.068 500.245 255.453 499.906C255.844 499.562 256.344 499.391 256.953 499.391C257.052 499.391 257.169 499.404 257.305 499.43C257.445 499.451 257.542 499.474 257.594 499.5V500.836ZM262.867 500.648H258.289V499.547H262.867V500.648ZM261.289 497.492V505.906C261.289 506.198 261.333 506.417 261.422 506.562C261.51 506.708 261.625 506.805 261.766 506.852C261.906 506.898 262.057 506.922 262.219 506.922C262.339 506.922 262.464 506.911 262.594 506.891C262.729 506.87 262.828 506.852 262.891 506.836L262.898 508C262.784 508.036 262.633 508.07 262.445 508.102C262.263 508.138 262.042 508.156 261.781 508.156C261.427 508.156 261.102 508.086 260.805 507.945C260.508 507.805 260.271 507.57 260.094 507.242C259.917 506.909 259.828 506.461 259.828 505.898V497.492H261.289ZM266.008 508H264.547V499.547H265.93L266.008 501.352V508ZM265.055 503.422C265.065 502.651 265.214 501.964 265.5 501.359C265.786 500.75 266.185 500.271 266.695 499.922C267.211 499.568 267.81 499.391 268.492 499.391C269.049 499.391 269.529 499.495 269.93 499.703C270.336 499.906 270.648 500.232 270.867 500.68C271.091 501.128 271.203 501.721 271.203 502.461V508H269.742V502.445C269.742 502.003 269.677 501.646 269.547 501.375C269.422 501.104 269.234 500.909 268.984 500.789C268.734 500.664 268.427 500.602 268.062 500.602C267.703 500.602 267.378 500.677 267.086 500.828C266.794 500.979 266.542 501.188 266.328 501.453C266.115 501.719 265.951 502.023 265.836 502.367C265.721 502.706 265.664 503.065 265.664 503.445L265.055 503.422ZM276.906 508.156C276.12 508.156 275.435 507.982 274.852 507.633C274.273 507.279 273.823 506.794 273.5 506.18C273.182 505.565 273.023 504.862 273.023 504.07V503.734C273.023 502.818 273.198 502.036 273.547 501.391C273.901 500.74 274.359 500.245 274.922 499.906C275.49 499.562 276.089 499.391 276.719 499.391C277.531 499.391 278.193 499.573 278.703 499.938C279.219 500.297 279.596 500.789 279.836 501.414C280.081 502.034 280.203 502.737 280.203 503.523V504.172H273.891V503H278.742V502.891C278.721 502.516 278.646 502.151 278.516 501.797C278.385 501.438 278.177 501.143 277.891 500.914C277.604 500.68 277.214 500.562 276.719 500.562C276.281 500.562 275.893 500.688 275.555 500.938C275.221 501.182 274.958 501.542 274.766 502.016C274.578 502.484 274.484 503.057 274.484 503.734V504.07C274.484 504.607 274.583 505.096 274.781 505.539C274.979 505.977 275.266 506.328 275.641 506.594C276.016 506.854 276.464 506.984 276.984 506.984C277.495 506.984 277.927 506.88 278.281 506.672C278.635 506.464 278.945 506.185 279.211 505.836L280.094 506.523C279.823 506.94 279.432 507.318 278.922 507.656C278.417 507.99 277.745 508.156 276.906 508.156ZM283.352 508H281.891V499.547H283.312L283.352 500.875V508ZM285.984 500.836C285.859 500.81 285.742 500.794 285.633 500.789C285.529 500.779 285.409 500.773 285.273 500.773C284.831 500.773 284.456 500.865 284.148 501.047C283.846 501.229 283.612 501.482 283.445 501.805C283.279 502.122 283.174 502.487 283.133 502.898L282.719 503.133C282.719 502.451 282.81 501.828 282.992 501.266C283.174 500.698 283.458 500.245 283.844 499.906C284.234 499.562 284.734 499.391 285.344 499.391C285.443 499.391 285.56 499.404 285.695 499.43C285.836 499.451 285.932 499.474 285.984 499.5V500.836Z" fill="#F5F5F5"/>
<path d="M119.428 525.234L117.664 524.701L117.939 523.828L119.703 524.484L119.65 522.463H120.553L120.494 524.514L122.229 523.863L122.504 524.754L120.711 525.287L121.865 526.881L121.127 527.426L120.049 525.732L118.994 527.385L118.256 526.852L119.428 525.234ZM124.596 525.234L122.832 524.701L123.107 523.828L124.871 524.484L124.818 522.463H125.721L125.662 524.514L127.396 523.863L127.672 524.754L125.879 525.287L127.033 526.881L126.295 527.426L125.217 525.732L124.162 527.385L123.424 526.852L124.596 525.234ZM129.764 525.234L128 524.701L128.275 523.828L130.039 524.484L129.986 522.463H130.889L130.83 524.514L132.564 523.863L132.84 524.754L131.047 525.287L132.201 526.881L131.463 527.426L130.385 525.732L129.33 527.385L128.592 526.852L129.764 525.234ZM134.932 525.234L133.168 524.701L133.443 523.828L135.207 524.484L135.154 522.463H136.057L135.998 524.514L137.732 523.863L138.008 524.754L136.215 525.287L137.369 526.881L136.631 527.426L135.553 525.732L134.498 527.385L133.76 526.852L134.932 525.234ZM141.236 526.207C141.611 526.207 141.922 526.143 142.168 526.014C142.418 525.885 142.604 525.711 142.725 525.492C142.85 525.27 142.912 525.018 142.912 524.736C142.912 524.412 142.857 524.139 142.748 523.916C142.639 523.689 142.475 523.52 142.256 523.406C142.037 523.289 141.762 523.23 141.43 523.23C141.125 523.23 140.857 523.291 140.627 523.412C140.396 523.533 140.217 523.703 140.088 523.922C139.959 524.141 139.895 524.4 139.895 524.701H138.799C138.799 524.264 138.908 523.869 139.127 523.518C139.346 523.162 139.652 522.879 140.047 522.668C140.441 522.457 140.902 522.352 141.43 522.352C141.945 522.352 142.396 522.443 142.783 522.627C143.17 522.807 143.471 523.076 143.686 523.436C143.9 523.791 144.008 524.232 144.008 524.76C144.008 524.979 143.957 525.209 143.855 525.451C143.758 525.693 143.604 525.922 143.393 526.137C143.186 526.348 142.916 526.521 142.584 526.658C142.252 526.791 141.854 526.857 141.389 526.857H140.463V526.207H141.236ZM140.463 526.441H141.389C141.932 526.441 142.381 526.506 142.736 526.635C143.092 526.764 143.371 526.936 143.574 527.15C143.781 527.361 143.926 527.596 144.008 527.854C144.094 528.111 144.137 528.367 144.137 528.621C144.137 529.152 144.018 529.604 143.779 529.975C143.545 530.346 143.223 530.629 142.812 530.824C142.406 531.02 141.947 531.117 141.436 531.117C141.064 531.117 140.715 531.064 140.387 530.959C140.059 530.854 139.77 530.701 139.52 530.502C139.273 530.299 139.08 530.051 138.939 529.758C138.799 529.461 138.729 529.123 138.729 528.744H139.824C139.824 529.041 139.889 529.303 140.018 529.529C140.15 529.752 140.336 529.926 140.574 530.051C140.816 530.176 141.104 530.238 141.436 530.238C141.932 530.238 142.322 530.105 142.607 529.84C142.896 529.574 143.041 529.176 143.041 528.645C143.041 528.289 142.967 527.996 142.818 527.766C142.67 527.535 142.461 527.365 142.191 527.256C141.922 527.143 141.604 527.086 141.236 527.086H140.463V526.441ZM151.15 523.072L147.617 531H146.469L149.99 523.348H145.379V522.469H151.15V523.072ZM153.57 530.098C154.195 530.098 154.703 530.01 155.094 529.834C155.484 529.658 155.783 529.422 155.99 529.125C156.201 528.824 156.346 528.488 156.424 528.117C156.502 527.742 156.541 527.357 156.541 526.963V525.656C156.541 525.137 156.465 524.697 156.312 524.338C156.16 523.979 155.959 523.707 155.709 523.523C155.463 523.336 155.195 523.242 154.906 523.242C154.574 523.242 154.289 523.33 154.051 523.506C153.816 523.682 153.637 523.92 153.512 524.221C153.391 524.521 153.33 524.861 153.33 525.24C153.33 525.576 153.385 525.898 153.494 526.207C153.607 526.516 153.777 526.768 154.004 526.963C154.234 527.158 154.523 527.256 154.871 527.256C155.109 527.256 155.334 527.207 155.545 527.109C155.76 527.012 155.949 526.881 156.113 526.717C156.277 526.549 156.41 526.359 156.512 526.148C156.613 525.934 156.672 525.711 156.688 525.48H157.209C157.209 525.805 157.145 526.125 157.016 526.441C156.891 526.758 156.715 527.045 156.488 527.303C156.262 527.561 155.996 527.766 155.691 527.918C155.387 528.07 155.055 528.146 154.695 528.146C154.133 528.146 153.672 528.006 153.312 527.725C152.953 527.443 152.688 527.086 152.516 526.652C152.344 526.215 152.258 525.764 152.258 525.299C152.258 524.756 152.357 524.262 152.557 523.816C152.756 523.371 153.053 523.016 153.447 522.75C153.842 522.484 154.328 522.352 154.906 522.352C155.395 522.352 155.811 522.449 156.154 522.645C156.502 522.836 156.783 523.096 156.998 523.424C157.217 523.752 157.377 524.121 157.479 524.531C157.58 524.941 157.631 525.363 157.631 525.797V526.201C157.631 526.646 157.602 527.098 157.543 527.555C157.488 528.008 157.381 528.441 157.221 528.855C157.064 529.266 156.836 529.635 156.535 529.963C156.234 530.287 155.842 530.543 155.357 530.73C154.877 530.918 154.281 531.012 153.57 531.012H153.459V530.098H153.57ZM163.385 522.457V523.371H163.291C162.717 523.371 162.236 523.465 161.85 523.652C161.467 523.836 161.16 524.084 160.93 524.396C160.703 524.705 160.541 525.053 160.443 525.439C160.346 525.826 160.297 526.221 160.297 526.623V527.877C160.297 528.385 160.375 528.814 160.531 529.166C160.688 529.514 160.891 529.777 161.141 529.957C161.395 530.137 161.662 530.227 161.943 530.227C162.279 530.227 162.562 530.143 162.793 529.975C163.027 529.807 163.205 529.576 163.326 529.283C163.451 528.986 163.514 528.648 163.514 528.27C163.514 527.93 163.457 527.609 163.344 527.309C163.234 527.008 163.064 526.764 162.834 526.576C162.607 526.389 162.318 526.295 161.967 526.295C161.666 526.295 161.385 526.369 161.123 526.518C160.865 526.662 160.654 526.854 160.49 527.092C160.326 527.33 160.232 527.588 160.209 527.865L159.635 527.859C159.689 527.426 159.791 527.055 159.939 526.746C160.092 526.434 160.279 526.18 160.502 525.984C160.729 525.785 160.98 525.639 161.258 525.545C161.539 525.451 161.836 525.404 162.148 525.404C162.715 525.404 163.178 525.541 163.537 525.814C163.896 526.088 164.162 526.439 164.334 526.869C164.506 527.299 164.592 527.748 164.592 528.217C164.592 528.756 164.49 529.244 164.287 529.682C164.088 530.119 163.791 530.469 163.396 530.73C163.006 530.988 162.521 531.117 161.943 531.117C161.482 531.117 161.08 531.023 160.736 530.836C160.393 530.645 160.107 530.393 159.881 530.08C159.654 529.764 159.484 529.412 159.371 529.025C159.258 528.639 159.201 528.246 159.201 527.848V527.332C159.201 526.727 159.26 526.135 159.377 525.557C159.498 524.979 159.707 524.457 160.004 523.992C160.305 523.523 160.721 523.15 161.252 522.873C161.787 522.596 162.467 522.457 163.291 522.457H163.385ZM175.707 527.01C175.707 527.861 175.566 528.594 175.285 529.207C175.004 529.82 174.607 530.293 174.096 530.625C173.584 530.953 172.98 531.117 172.285 531.117C171.613 531.117 171.018 530.953 170.498 530.625C169.979 530.293 169.572 529.82 169.279 529.207C168.986 528.594 168.84 527.861 168.84 527.01V526.465C168.84 525.613 168.984 524.881 169.273 524.268C169.566 523.65 169.971 523.178 170.486 522.85C171.006 522.518 171.602 522.352 172.273 522.352C172.969 522.352 173.572 522.518 174.084 522.85C174.6 523.178 174.998 523.65 175.279 524.268C175.564 524.881 175.707 525.613 175.707 526.465V527.01ZM174.582 526.453C174.582 525.773 174.49 525.201 174.307 524.736C174.123 524.268 173.859 523.912 173.516 523.67C173.172 523.428 172.758 523.307 172.273 523.307C171.809 523.307 171.402 523.428 171.055 523.67C170.711 523.912 170.443 524.268 170.252 524.736C170.064 525.201 169.971 525.773 169.971 526.453V527.01C169.971 527.693 170.066 528.27 170.258 528.738C170.449 529.207 170.719 529.562 171.066 529.805C171.414 530.047 171.82 530.168 172.285 530.168C172.773 530.168 173.188 530.047 173.527 529.805C173.871 529.562 174.133 529.207 174.312 528.738C174.492 528.27 174.582 527.693 174.582 527.01V526.453ZM178.537 531H177.4V522.469H178.537V531ZM180.143 526.447L178.15 528.51L177.963 527.314L179.457 525.656L182.316 522.469H183.688L180.143 526.447ZM179.434 526.84L180.113 525.943L183.945 531H182.586L179.434 526.84ZM188.797 527.004L188.785 526.107H190.742C191.227 526.107 191.617 525.986 191.914 525.744C192.211 525.502 192.359 525.164 192.359 524.73C192.359 524.262 192.223 523.922 191.949 523.711C191.68 523.496 191.268 523.389 190.713 523.389H189.049V531H187.912V522.469H190.713C191.584 522.469 192.266 522.65 192.758 523.014C193.25 523.373 193.496 523.949 193.496 524.742C193.496 525.094 193.406 525.412 193.227 525.697C193.047 525.979 192.795 526.209 192.471 526.389C192.15 526.568 191.777 526.684 191.352 526.734L190.953 527.004H188.797ZM188.346 531L188.996 530.086H190.9C191.436 530.086 191.85 529.947 192.143 529.67C192.436 529.393 192.582 529.02 192.582 528.551C192.582 528.234 192.525 527.961 192.412 527.73C192.299 527.496 192.123 527.316 191.885 527.191C191.646 527.066 191.336 527.004 190.953 527.004H189.342L189.354 526.107H191.557L191.797 526.436C192.207 526.471 192.555 526.586 192.84 526.781C193.125 526.977 193.342 527.227 193.49 527.531C193.643 527.836 193.719 528.172 193.719 528.539C193.719 529.34 193.461 529.951 192.945 530.373C192.434 530.791 191.752 531 190.9 531H188.346ZM198.957 526.652C198.957 526.273 198.844 525.973 198.617 525.75C198.395 525.523 198.064 525.41 197.627 525.41C197.357 525.41 197.119 525.457 196.912 525.551C196.709 525.645 196.551 525.768 196.438 525.92C196.324 526.072 196.268 526.238 196.268 526.418H195.172C195.172 526.113 195.275 525.818 195.482 525.533C195.689 525.244 195.98 525.008 196.355 524.824C196.734 524.637 197.18 524.543 197.691 524.543C198.152 524.543 198.561 524.621 198.916 524.777C199.271 524.934 199.549 525.17 199.748 525.486C199.951 525.799 200.053 526.191 200.053 526.664V529.617C200.053 529.828 200.07 530.053 200.105 530.291C200.145 530.529 200.201 530.734 200.275 530.906V531H199.133C199.078 530.875 199.035 530.709 199.004 530.502C198.973 530.291 198.957 530.096 198.957 529.916V526.652ZM199.156 527.918H198.066C197.449 527.918 196.973 528.016 196.637 528.211C196.301 528.406 196.133 528.699 196.133 529.09C196.133 529.395 196.234 529.652 196.438 529.863C196.645 530.074 196.945 530.18 197.34 530.18C197.672 530.18 197.965 530.109 198.219 529.969C198.473 529.828 198.674 529.654 198.822 529.447C198.971 529.24 199.051 529.041 199.062 528.85L199.531 529.371C199.504 529.535 199.43 529.717 199.309 529.916C199.188 530.115 199.025 530.307 198.822 530.49C198.623 530.67 198.385 530.82 198.107 530.941C197.834 531.059 197.525 531.117 197.182 531.117C196.752 531.117 196.375 531.035 196.051 530.871C195.73 530.703 195.48 530.477 195.301 530.191C195.125 529.906 195.037 529.59 195.037 529.242C195.037 528.559 195.295 528.041 195.811 527.689C196.326 527.334 197.02 527.156 197.891 527.156H199.145L199.156 527.918ZM202.854 531H201.758V524.66H202.795L202.854 526.014V531ZM202.139 527.566C202.146 526.988 202.258 526.473 202.473 526.02C202.688 525.562 202.986 525.203 203.369 524.941C203.756 524.676 204.205 524.543 204.717 524.543C205.135 524.543 205.494 524.621 205.795 524.777C206.1 524.93 206.334 525.174 206.498 525.51C206.666 525.846 206.75 526.291 206.75 526.846V531H205.654V526.834C205.654 526.502 205.605 526.234 205.508 526.031C205.414 525.828 205.273 525.682 205.086 525.592C204.898 525.498 204.668 525.451 204.395 525.451C204.125 525.451 203.881 525.508 203.662 525.621C203.443 525.734 203.254 525.891 203.094 526.09C202.934 526.289 202.811 526.518 202.725 526.775C202.639 527.029 202.596 527.299 202.596 527.584L202.139 527.566ZM209.492 531H208.396V522H209.492V531ZM210.605 527.613L209.047 529.219L208.959 528.07L210.072 526.752L212.029 524.66H213.359L210.605 527.613ZM210.107 527.971L210.676 527.01L213.652 531H212.363L210.107 527.971ZM217.18 527.766C217.18 527.152 217.297 526.604 217.531 526.119C217.766 525.635 218.098 525.252 218.527 524.971C218.957 524.686 219.467 524.543 220.057 524.543C220.654 524.543 221.17 524.686 221.604 524.971C222.037 525.252 222.369 525.635 222.6 526.119C222.834 526.604 222.951 527.152 222.951 527.766V527.9C222.951 528.51 222.834 529.059 222.6 529.547C222.369 530.031 222.037 530.414 221.604 530.695C221.174 530.977 220.662 531.117 220.068 531.117C219.475 531.117 218.961 530.977 218.527 530.695C218.098 530.414 217.766 530.031 217.531 529.547C217.297 529.059 217.18 528.51 217.18 527.9V527.766ZM218.275 527.9C218.275 528.318 218.342 528.705 218.475 529.061C218.607 529.416 218.805 529.701 219.066 529.916C219.332 530.131 219.666 530.238 220.068 530.238C220.467 530.238 220.797 530.131 221.059 529.916C221.324 529.701 221.523 529.416 221.656 529.061C221.789 528.705 221.855 528.318 221.855 527.9V527.766C221.855 527.348 221.789 526.961 221.656 526.605C221.523 526.25 221.324 525.965 221.059 525.75C220.793 525.531 220.459 525.422 220.057 525.422C219.662 525.422 219.332 525.531 219.066 525.75C218.801 525.965 218.602 526.25 218.469 526.605C218.34 526.961 218.275 527.348 218.275 527.766V527.9ZM224.85 531V523.986C224.85 523.307 225.035 522.785 225.406 522.422C225.781 522.059 226.293 521.877 226.941 521.877C227.066 521.877 227.191 521.885 227.316 521.9C227.441 521.916 227.564 521.939 227.686 521.971L227.627 522.844C227.545 522.828 227.451 522.816 227.346 522.809C227.244 522.801 227.143 522.797 227.041 522.797C226.697 522.797 226.428 522.9 226.232 523.107C226.041 523.311 225.945 523.604 225.945 523.986V531H224.85ZM227.293 525.486H223.854V524.66H227.293V525.486ZM232.854 531H231.717V522.469H232.854V531ZM235.83 531H234.734V524.66H235.771L235.83 526.014V531ZM235.115 527.566C235.123 526.988 235.234 526.473 235.449 526.02C235.664 525.562 235.963 525.203 236.346 524.941C236.732 524.676 237.182 524.543 237.693 524.543C238.111 524.543 238.471 524.621 238.771 524.777C239.076 524.93 239.311 525.174 239.475 525.51C239.643 525.846 239.727 526.291 239.727 526.846V531H238.631V526.834C238.631 526.502 238.582 526.234 238.484 526.031C238.391 525.828 238.25 525.682 238.062 525.592C237.875 525.498 237.645 525.451 237.371 525.451C237.102 525.451 236.857 525.508 236.639 525.621C236.42 525.734 236.23 525.891 236.07 526.09C235.91 526.289 235.787 526.518 235.701 526.775C235.615 527.029 235.572 527.299 235.572 527.584L235.115 527.566ZM245.363 522H246.459V531H245.457L245.363 529.77V522ZM241.104 527.777C241.104 527.133 241.207 526.568 241.414 526.084C241.625 525.596 241.918 525.217 242.293 524.947C242.668 524.678 243.107 524.543 243.611 524.543C244.143 524.543 244.586 524.666 244.941 524.912C245.297 525.154 245.574 525.5 245.773 525.949C245.977 526.398 246.107 526.934 246.166 527.555V528.123C246.107 528.736 245.979 529.268 245.779 529.717C245.58 530.162 245.301 530.508 244.941 530.754C244.586 530.996 244.139 531.117 243.6 531.117C243.104 531.117 242.668 530.979 242.293 530.701C241.918 530.42 241.625 530.037 241.414 529.553C241.207 529.068 241.104 528.518 241.104 527.9V527.777ZM242.199 527.9C242.199 528.322 242.256 528.707 242.369 529.055C242.486 529.402 242.668 529.682 242.914 529.893C243.16 530.1 243.479 530.203 243.869 530.203C244.229 530.203 244.523 530.127 244.754 529.975C244.988 529.822 245.176 529.621 245.316 529.371C245.457 529.121 245.566 528.85 245.645 528.557V527.133C245.598 526.918 245.529 526.711 245.439 526.512C245.354 526.309 245.24 526.129 245.1 525.973C244.963 525.812 244.793 525.686 244.59 525.592C244.391 525.498 244.154 525.451 243.881 525.451C243.486 525.451 243.164 525.557 242.914 525.768C242.668 525.979 242.486 526.262 242.369 526.617C242.256 526.969 242.199 527.355 242.199 527.777V527.9ZM249.33 531H248.234V524.66H249.33V531ZM248.152 522.973C248.152 522.801 248.205 522.654 248.311 522.533C248.42 522.412 248.58 522.352 248.791 522.352C249.002 522.352 249.162 522.412 249.271 522.533C249.385 522.654 249.441 522.801 249.441 522.973C249.441 523.141 249.385 523.285 249.271 523.406C249.162 523.523 249.002 523.582 248.791 523.582C248.58 523.582 248.42 523.523 248.311 523.406C248.205 523.285 248.152 523.141 248.152 522.973ZM254.797 526.652C254.797 526.273 254.684 525.973 254.457 525.75C254.234 525.523 253.904 525.41 253.467 525.41C253.197 525.41 252.959 525.457 252.752 525.551C252.549 525.645 252.391 525.768 252.277 525.92C252.164 526.072 252.107 526.238 252.107 526.418H251.012C251.012 526.113 251.115 525.818 251.322 525.533C251.529 525.244 251.82 525.008 252.195 524.824C252.574 524.637 253.02 524.543 253.531 524.543C253.992 524.543 254.4 524.621 254.756 524.777C255.111 524.934 255.389 525.17 255.588 525.486C255.791 525.799 255.893 526.191 255.893 526.664V529.617C255.893 529.828 255.91 530.053 255.945 530.291C255.984 530.529 256.041 530.734 256.115 530.906V531H254.973C254.918 530.875 254.875 530.709 254.844 530.502C254.812 530.291 254.797 530.096 254.797 529.916V526.652ZM254.996 527.918H253.906C253.289 527.918 252.812 528.016 252.477 528.211C252.141 528.406 251.973 528.699 251.973 529.09C251.973 529.395 252.074 529.652 252.277 529.863C252.484 530.074 252.785 530.18 253.18 530.18C253.512 530.18 253.805 530.109 254.059 529.969C254.312 529.828 254.514 529.654 254.662 529.447C254.811 529.24 254.891 529.041 254.902 528.85L255.371 529.371C255.344 529.535 255.27 529.717 255.148 529.916C255.027 530.115 254.865 530.307 254.662 530.49C254.463 530.67 254.225 530.82 253.947 530.941C253.674 531.059 253.365 531.117 253.021 531.117C252.592 531.117 252.215 531.035 251.891 530.871C251.57 530.703 251.32 530.477 251.141 530.191C250.965 529.906 250.877 529.59 250.877 529.242C250.877 528.559 251.135 528.041 251.65 527.689C252.166 527.334 252.859 527.156 253.73 527.156H254.984L254.996 527.918Z" fill="#F5F5F5"/>
<rect width="295" height="295" transform="translate(40 152)" fill="white"/>
<rect width="271.4" height="271.4" transform="translate(51.7998 163.8)" fill="white"/>
<rect width="257.83" height="257.83" transform="translate(59.9419 171.941)" fill="white"/>
<rect width="257.83" height="257.83" transform="translate(59.9419 171.941)" fill="white"/>
<path d="M72.8336 244.993H64.2393V253.587H72.8336V244.993Z" fill="black"/>
<path d="M72.8336 253.587H64.2393V262.181H72.8336V253.587Z" fill="black"/>
<path d="M72.8336 262.182H64.2393V270.776H72.8336V262.182Z" fill="black"/>
<path d="M72.8336 287.965H64.2393V296.559H72.8336V287.965Z" fill="black"/>
<path d="M72.8336 296.559H64.2393V305.153H72.8336V296.559Z" fill="black"/>
<path d="M72.8336 322.342H64.2393V330.936H72.8336V322.342Z" fill="black"/>
<path d="M72.8336 330.937H64.2393V339.531H72.8336V330.937Z" fill="black"/>
<path d="M81.4278 244.993H72.8335V253.587H81.4278V244.993Z" fill="black"/>
<path d="M81.4278 253.587H72.8335V262.181H81.4278V253.587Z" fill="black"/>
<path d="M81.4278 270.776H72.8335V279.371H81.4278V270.776Z" fill="black"/>
<path d="M81.4278 287.965H72.8335V296.559H81.4278V287.965Z" fill="black"/>
<path d="M81.4278 305.153H72.8335V313.748H81.4278V305.153Z" fill="black"/>
<path d="M81.4278 322.342H72.8335V330.936H81.4278V322.342Z" fill="black"/>
<path d="M81.4278 330.937H72.8335V339.531H81.4278V330.937Z" fill="black"/>
<path d="M90.0221 244.993H81.4277V253.587H90.0221V244.993Z" fill="black"/>
<path d="M90.0221 262.182H81.4277V270.776H90.0221V262.182Z" fill="black"/>
<path d="M90.0221 270.776H81.4277V279.371H90.0221V270.776Z" fill="black"/>
<path d="M90.0221 296.559H81.4277V305.153H90.0221V296.559Z" fill="black"/>
<path d="M90.0221 305.153H81.4277V313.748H90.0221V305.153Z" fill="black"/>
<path d="M90.0221 339.53H81.4277V348.125H90.0221V339.53Z" fill="black"/>
<path d="M98.6168 244.993H90.0225V253.587H98.6168V244.993Z" fill="black"/>
<path d="M98.6168 262.182H90.0225V270.776H98.6168V262.182Z" fill="black"/>
<path d="M98.6168 270.776H90.0225V279.371H98.6168V270.776Z" fill="black"/>
<path d="M98.6168 287.965H90.0225V296.559H98.6168V287.965Z" fill="black"/>
<path d="M98.6168 305.153H90.0225V313.748H98.6168V305.153Z" fill="black"/>
<path d="M98.6168 313.748H90.0225V322.342H98.6168V313.748Z" fill="black"/>
<path d="M98.6168 330.937H90.0225V339.531H98.6168V330.937Z" fill="black"/>
<path d="M107.211 244.993H98.6167V253.587H107.211V244.993Z" fill="black"/>
<path d="M107.211 253.587H98.6167V262.181H107.211V253.587Z" fill="black"/>
<path d="M107.211 287.965H98.6167V296.559H107.211V287.965Z" fill="black"/>
<path d="M107.211 339.53H98.6167V348.125H107.211V339.53Z" fill="black"/>
<path d="M107.211 348.125H98.6167V356.719H107.211V348.125Z" fill="black"/>
<path d="M115.805 262.182H107.211V270.776H115.805V262.182Z" fill="black"/>
<path d="M115.805 270.776H107.211V279.371H115.805V270.776Z" fill="black"/>
<path d="M115.805 296.559H107.211V305.153H115.805V296.559Z" fill="black"/>
<path d="M115.805 305.153H107.211V313.748H115.805V305.153Z" fill="black"/>
<path d="M115.805 313.748H107.211V322.342H115.805V313.748Z" fill="black"/>
<path d="M115.805 322.342H107.211V330.936H115.805V322.342Z" fill="black"/>
<path d="M115.805 339.53H107.211V348.125H115.805V339.53Z" fill="black"/>
<path d="M115.805 348.125H107.211V356.719H115.805V348.125Z" fill="black"/>
<path d="M124.4 244.993H115.805V253.587H124.4V244.993Z" fill="black"/>
<path d="M124.4 262.182H115.805V270.776H124.4V262.182Z" fill="black"/>
<path d="M124.4 279.37H115.805V287.964H124.4V279.37Z" fill="black"/>
<path d="M124.4 296.559H115.805V305.153H124.4V296.559Z" fill="black"/>
<path d="M124.4 313.748H115.805V322.342H124.4V313.748Z" fill="black"/>
<path d="M124.4 330.937H115.805V339.531H124.4V330.937Z" fill="black"/>
<path d="M124.4 348.125H115.805V356.719H124.4V348.125Z" fill="black"/>
<path d="M132.994 244.993H124.399V253.587H132.994V244.993Z" fill="black"/>
<path d="M132.994 253.587H124.399V262.181H132.994V253.587Z" fill="black"/>
<path d="M132.994 279.37H124.399V287.964H132.994V279.37Z" fill="black"/>
<path d="M132.994 287.965H124.399V296.559H132.994V287.965Z" fill="black"/>
<path d="M132.994 313.748H124.399V322.342H132.994V313.748Z" fill="black"/>
<path d="M132.994 322.342H124.399V330.936H132.994V322.342Z" fill="black"/>
<path d="M132.994 330.937H124.399V339.531H132.994V330.937Z" fill="black"/>
<path d="M132.994 339.53H124.399V348.125H132.994V339.53Z" fill="black"/>
<path d="M132.994 348.125H124.399V356.719H132.994V348.125Z" fill="black"/>
<path d="M141.588 184.833H132.994V193.427H141.588V184.833Z" fill="black"/>
<path d="M141.588 193.427H132.994V202.021H141.588V193.427Z" fill="black"/>
<path d="M141.588 210.615H132.994V219.21H141.588V210.615Z" fill="black"/>
<path d="M141.588 227.805H132.994V236.399H141.588V227.805Z" fill="black"/>
<path d="M141.588 236.398H132.994V244.993H141.588V236.398Z" fill="black"/>
<path d="M141.588 253.587H132.994V262.181H141.588V253.587Z" fill="black"/>
<path d="M141.588 262.182H132.994V270.776H141.588V262.182Z" fill="black"/>
<path d="M141.588 287.965H132.994V296.559H141.588V287.965Z" fill="black"/>
<path d="M141.588 313.748H132.994V322.342H141.588V313.748Z" fill="black"/>
<path d="M141.588 330.937H132.994V339.531H141.588V330.937Z" fill="black"/>
<path d="M141.588 348.125H132.994V356.719H141.588V348.125Z" fill="black"/>
<path d="M141.588 365.313H132.994V373.908H141.588V365.313Z" fill="black"/>
<path d="M141.588 382.502H132.994V391.096H141.588V382.502Z" fill="black"/>
<path d="M141.588 391.097H132.994V399.691H141.588V391.097Z" fill="black"/>
<path d="M141.588 399.691H132.994V408.286H141.588V399.691Z" fill="black"/>
<path d="M141.588 408.285H132.994V416.879H141.588V408.285Z" fill="black"/>
<path d="M141.588 416.88H132.994V425.474H141.588V416.88Z" fill="black"/>
<path d="M150.183 176.238H141.588V184.833H150.183V176.238Z" fill="black"/>
<path d="M150.183 210.615H141.588V219.21H150.183V210.615Z" fill="black"/>
<path d="M150.183 219.21H141.588V227.804H150.183V219.21Z" fill="black"/>
<path d="M150.183 236.398H141.588V244.993H150.183V236.398Z" fill="black"/>
<path d="M150.183 262.182H141.588V270.776H150.183V262.182Z" fill="black"/>
<path d="M150.183 287.965H141.588V296.559H150.183V287.965Z" fill="black"/>
<path d="M150.183 296.559H141.588V305.153H150.183V296.559Z" fill="black"/>
<path d="M150.183 313.748H141.588V322.342H150.183V313.748Z" fill="black"/>
<path d="M150.183 322.342H141.588V330.936H150.183V322.342Z" fill="black"/>
<path d="M150.183 330.937H141.588V339.531H150.183V330.937Z" fill="black"/>
<path d="M150.183 339.53H141.588V348.125H150.183V339.53Z" fill="black"/>
<path d="M150.183 356.72H141.588V365.314H150.183V356.72Z" fill="black"/>
<path d="M150.183 399.691H141.588V408.286H150.183V399.691Z" fill="black"/>
<path d="M150.183 416.88H141.588V425.474H150.183V416.88Z" fill="black"/>
<path d="M158.777 184.833H150.183V193.427H158.777V184.833Z" fill="black"/>
<path d="M158.777 202.021H150.183V210.616H158.777V202.021Z" fill="black"/>
<path d="M158.777 210.615H150.183V219.21H158.777V210.615Z" fill="black"/>
<path d="M158.777 219.21H150.183V227.804H158.777V219.21Z" fill="black"/>
<path d="M158.777 227.805H150.183V236.399H158.777V227.805Z" fill="black"/>
<path d="M158.777 236.398H150.183V244.993H158.777V236.398Z" fill="black"/>
<path d="M158.777 244.993H150.183V253.587H158.777V244.993Z" fill="black"/>
<path d="M158.777 287.965H150.183V296.559H158.777V287.965Z" fill="black"/>
<path d="M158.777 305.153H150.183V313.748H158.777V305.153Z" fill="black"/>
<path d="M158.777 313.748H150.183V322.342H158.777V313.748Z" fill="black"/>
<path d="M158.777 330.937H150.183V339.531H158.777V330.937Z" fill="black"/>
<path d="M158.777 373.908H150.183V382.503H158.777V373.908Z" fill="black"/>
<path d="M158.777 382.502H150.183V391.096H158.777V382.502Z" fill="black"/>
<path d="M158.777 391.097H150.183V399.691H158.777V391.097Z" fill="black"/>
<path d="M158.777 408.285H150.183V416.879H158.777V408.285Z" fill="black"/>
<path d="M158.777 416.88H150.183V425.474H158.777V416.88Z" fill="black"/>
<path d="M167.371 193.427H158.777V202.021H167.371V193.427Z" fill="black"/>
<path d="M167.371 202.021H158.777V210.616H167.371V202.021Z" fill="black"/>
<path d="M167.371 219.21H158.777V227.804H167.371V219.21Z" fill="black"/>
<path d="M167.371 244.993H158.777V253.587H167.371V244.993Z" fill="black"/>
<path d="M167.371 253.587H158.777V262.181H167.371V253.587Z" fill="black"/>
<path d="M167.371 262.182H158.777V270.776H167.371V262.182Z" fill="black"/>
<path d="M167.371 270.776H158.777V279.371H167.371V270.776Z" fill="black"/>
<path d="M167.371 279.37H158.777V287.964H167.371V279.37Z" fill="black"/>
<path d="M167.371 322.342H158.777V330.936H167.371V322.342Z" fill="black"/>
<path d="M167.371 330.937H158.777V339.531H167.371V330.937Z" fill="black"/>
<path d="M167.371 339.53H158.777V348.125H167.371V339.53Z" fill="black"/>
<path d="M167.371 348.125H158.777V356.719H167.371V348.125Z" fill="black"/>
<path d="M167.371 356.72H158.777V365.314H167.371V356.72Z" fill="black"/>
<path d="M167.371 365.313H158.777V373.908H167.371V365.313Z" fill="black"/>
<path d="M167.371 382.502H158.777V391.096H167.371V382.502Z" fill="black"/>
<path d="M167.371 408.285H158.777V416.879H167.371V408.285Z" fill="black"/>
<path d="M175.965 184.833H167.371V193.427H175.965V184.833Z" fill="black"/>
<path d="M175.965 227.805H167.371V236.399H175.965V227.805Z" fill="black"/>
<path d="M175.965 236.398H167.371V244.993H175.965V236.398Z" fill="black"/>
<path d="M175.965 244.993H167.371V253.587H175.965V244.993Z" fill="black"/>
<path d="M175.965 262.182H167.371V270.776H175.965V262.182Z" fill="black"/>
<path d="M175.965 296.559H167.371V305.153H175.965V296.559Z" fill="black"/>
<path d="M175.965 305.153H167.371V313.748H175.965V305.153Z" fill="black"/>
<path d="M175.965 322.342H167.371V330.936H175.965V322.342Z" fill="black"/>
<path d="M175.965 348.125H167.371V356.719H175.965V348.125Z" fill="black"/>
<path d="M175.965 365.313H167.371V373.908H175.965V365.313Z" fill="black"/>
<path d="M175.965 373.908H167.371V382.503H175.965V373.908Z" fill="black"/>
<path d="M175.965 391.097H167.371V399.691H175.965V391.097Z" fill="black"/>
<path d="M175.965 399.691H167.371V408.286H175.965V399.691Z" fill="black"/>
<path d="M184.56 184.833H175.966V193.427H184.56V184.833Z" fill="black"/>
<path d="M184.56 193.427H175.966V202.021H184.56V193.427Z" fill="black"/>
<path d="M184.56 202.021H175.966V210.616H184.56V202.021Z" fill="black"/>
<path d="M184.56 236.398H175.966V244.993H184.56V236.398Z" fill="black"/>
<path d="M184.56 270.776H175.966V279.371H184.56V270.776Z" fill="black"/>
<path d="M184.56 279.37H175.966V287.964H184.56V279.37Z" fill="black"/>
<path d="M184.56 296.559H175.966V305.153H184.56V296.559Z" fill="black"/>
<path d="M184.56 305.153H175.966V313.748H184.56V305.153Z" fill="black"/>
<path d="M184.56 313.748H175.966V322.342H184.56V313.748Z" fill="black"/>
<path d="M184.56 330.937H175.966V339.531H184.56V330.937Z" fill="black"/>
<path d="M184.56 348.125H175.966V356.719H184.56V348.125Z" fill="black"/>
<path d="M184.56 356.72H175.966V365.314H184.56V356.72Z" fill="black"/>
<path d="M184.56 365.313H175.966V373.908H184.56V365.313Z" fill="black"/>
<path d="M184.56 373.908H175.966V382.503H184.56V373.908Z" fill="black"/>
<path d="M184.56 408.285H175.966V416.879H184.56V408.285Z" fill="black"/>
<path d="M184.56 416.88H175.966V425.474H184.56V416.88Z" fill="black"/>
<path d="M193.154 176.238H184.56V184.833H193.154V176.238Z" fill="black"/>
<path d="M193.154 184.833H184.56V193.427H193.154V184.833Z" fill="black"/>
<path d="M193.154 202.021H184.56V210.616H193.154V202.021Z" fill="black"/>
<path d="M193.154 219.21H184.56V227.804H193.154V219.21Z" fill="black"/>
<path d="M193.154 227.805H184.56V236.399H193.154V227.805Z" fill="black"/>
<path d="M193.154 236.398H184.56V244.993H193.154V236.398Z" fill="black"/>
<path d="M193.154 270.776H184.56V279.371H193.154V270.776Z" fill="black"/>
<path d="M193.154 279.37H184.56V287.964H193.154V279.37Z" fill="black"/>
<path d="M193.154 287.965H184.56V296.559H193.154V287.965Z" fill="black"/>
<path d="M193.154 313.748H184.56V322.342H193.154V313.748Z" fill="black"/>
<path d="M193.154 322.342H184.56V330.936H193.154V322.342Z" fill="black"/>
<path d="M193.154 356.72H184.56V365.314H193.154V356.72Z" fill="black"/>
<path d="M193.154 365.313H184.56V373.908H193.154V365.313Z" fill="black"/>
<path d="M193.154 373.908H184.56V382.503H193.154V373.908Z" fill="black"/>
<path d="M193.154 399.691H184.56V408.286H193.154V399.691Z" fill="black"/>
<path d="M193.154 416.88H184.56V425.474H193.154V416.88Z" fill="black"/>
<path d="M201.749 176.238H193.154V184.833H201.749V176.238Z" fill="black"/>
<path d="M201.749 184.833H193.154V193.427H201.749V184.833Z" fill="black"/>
<path d="M201.749 244.993H193.154V253.587H201.749V244.993Z" fill="black"/>
<path d="M201.749 253.587H193.154V262.181H201.749V253.587Z" fill="black"/>
<path d="M201.749 270.776H193.154V279.371H201.749V270.776Z" fill="black"/>
<path d="M201.749 296.559H193.154V305.153H201.749V296.559Z" fill="black"/>
<path d="M201.749 339.53H193.154V348.125H201.749V339.53Z" fill="black"/>
<path d="M201.749 348.125H193.154V356.719H201.749V348.125Z" fill="black"/>
<path d="M201.749 356.72H193.154V365.314H201.749V356.72Z" fill="black"/>
<path d="M201.749 365.313H193.154V373.908H201.749V365.313Z" fill="black"/>
<path d="M201.749 373.908H193.154V382.503H201.749V373.908Z" fill="black"/>
<path d="M210.343 193.427H201.749V202.021H210.343V193.427Z" fill="black"/>
<path d="M210.343 202.021H201.749V210.616H210.343V202.021Z" fill="black"/>
<path d="M210.343 210.615H201.749V219.21H210.343V210.615Z" fill="black"/>
<path d="M210.343 219.21H201.749V227.804H210.343V219.21Z" fill="black"/>
<path d="M210.343 227.805H201.749V236.399H210.343V227.805Z" fill="black"/>
<path d="M210.343 236.398H201.749V244.993H210.343V236.398Z" fill="black"/>
<path d="M210.343 244.993H201.749V253.587H210.343V244.993Z" fill="black"/>
<path d="M210.343 253.587H201.749V262.181H210.343V253.587Z" fill="black"/>
<path d="M210.343 270.776H201.749V279.371H210.343V270.776Z" fill="black"/>
<path d="M210.343 279.37H201.749V287.964H210.343V279.37Z" fill="black"/>
<path d="M210.343 296.559H201.749V305.153H210.343V296.559Z" fill="black"/>
<path d="M210.343 305.153H201.749V313.748H210.343V305.153Z" fill="black"/>
<path d="M210.343 339.53H201.749V348.125H210.343V339.53Z" fill="black"/>
<path d="M210.343 348.125H201.749V356.719H210.343V348.125Z" fill="black"/>
<path d="M210.343 356.72H201.749V365.314H210.343V356.72Z" fill="black"/>
<path d="M210.343 365.313H201.749V373.908H210.343V365.313Z" fill="black"/>
<path d="M210.343 382.502H201.749V391.096H210.343V382.502Z" fill="black"/>
<path d="M210.343 391.097H201.749V399.691H210.343V391.097Z" fill="black"/>
<path d="M210.343 408.285H201.749V416.879H210.343V408.285Z" fill="black"/>
<path d="M218.937 184.833H210.343V193.427H218.937V184.833Z" fill="black"/>
<path d="M218.937 202.021H210.343V210.616H218.937V202.021Z" fill="black"/>
<path d="M218.937 210.615H210.343V219.21H218.937V210.615Z" fill="black"/>
<path d="M218.937 219.21H210.343V227.804H218.937V219.21Z" fill="black"/>
<path d="M218.937 236.398H210.343V244.993H218.937V236.398Z" fill="black"/>
<path d="M218.937 253.587H210.343V262.181H218.937V253.587Z" fill="black"/>
<path d="M218.937 262.182H210.343V270.776H218.937V262.182Z" fill="black"/>
<path d="M218.937 279.37H210.343V287.964H218.937V279.37Z" fill="black"/>
<path d="M218.937 287.965H210.343V296.559H218.937V287.965Z" fill="black"/>
<path d="M218.937 305.153H210.343V313.748H218.937V305.153Z" fill="black"/>
<path d="M218.937 322.342H210.343V330.936H218.937V322.342Z" fill="black"/>
<path d="M218.937 348.125H210.343V356.719H218.937V348.125Z" fill="black"/>
<path d="M218.937 365.313H210.343V373.908H218.937V365.313Z" fill="black"/>
<path d="M218.937 391.097H210.343V399.691H218.937V391.097Z" fill="black"/>
<path d="M218.937 408.285H210.343V416.879H218.937V408.285Z" fill="black"/>
<path d="M218.937 416.88H210.343V425.474H218.937V416.88Z" fill="black"/>
<path d="M227.532 176.238H218.938V184.833H227.532V176.238Z" fill="black"/>
<path d="M227.532 202.021H218.938V210.616H227.532V202.021Z" fill="black"/>
<path d="M227.532 210.615H218.938V219.21H227.532V210.615Z" fill="black"/>
<path d="M227.532 227.805H218.938V236.399H227.532V227.805Z" fill="black"/>
<path d="M227.532 236.398H218.938V244.993H227.532V236.398Z" fill="black"/>
<path d="M227.532 244.993H218.938V253.587H227.532V244.993Z" fill="black"/>
<path d="M227.532 253.587H218.938V262.181H227.532V253.587Z" fill="black"/>
<path d="M227.532 287.965H218.938V296.559H227.532V287.965Z" fill="black"/>
<path d="M227.532 296.559H218.938V305.153H227.532V296.559Z" fill="black"/>
<path d="M227.532 322.342H218.938V330.936H227.532V322.342Z" fill="black"/>
<path d="M227.532 330.937H218.938V339.531H227.532V330.937Z" fill="black"/>
<path d="M227.532 356.72H218.938V365.314H227.532V356.72Z" fill="black"/>
<path d="M227.532 391.097H218.938V399.691H227.532V391.097Z" fill="black"/>
<path d="M227.532 408.285H218.938V416.879H227.532V408.285Z" fill="black"/>
<path d="M227.532 416.88H218.938V425.474H227.532V416.88Z" fill="black"/>
<path d="M236.126 184.833H227.532V193.427H236.126V184.833Z" fill="black"/>
<path d="M236.126 202.021H227.532V210.616H236.126V202.021Z" fill="black"/>
<path d="M236.126 244.993H227.532V253.587H236.126V244.993Z" fill="black"/>
<path d="M236.126 262.182H227.532V270.776H236.126V262.182Z" fill="black"/>
<path d="M236.126 305.153H227.532V313.748H236.126V305.153Z" fill="black"/>
<path d="M236.126 322.342H227.532V330.936H236.126V322.342Z" fill="black"/>
<path d="M236.126 365.313H227.532V373.908H236.126V365.313Z" fill="black"/>
<path d="M236.126 373.908H227.532V382.503H236.126V373.908Z" fill="black"/>
<path d="M236.126 408.285H227.532V416.879H236.126V408.285Z" fill="black"/>
<path d="M236.126 416.88H227.532V425.474H236.126V416.88Z" fill="black"/>
<path d="M244.72 176.238H236.126V184.833H244.72V176.238Z" fill="black"/>
<path d="M244.72 219.21H236.126V227.804H244.72V219.21Z" fill="black"/>
<path d="M244.72 227.805H236.126V236.399H244.72V227.805Z" fill="black"/>
<path d="M244.72 236.398H236.126V244.993H244.72V236.398Z" fill="black"/>
<path d="M244.72 270.776H236.126V279.371H244.72V270.776Z" fill="black"/>
<path d="M244.72 279.37H236.126V287.964H244.72V279.37Z" fill="black"/>
<path d="M244.72 313.748H236.126V322.342H244.72V313.748Z" fill="black"/>
<path d="M244.72 322.342H236.126V330.936H244.72V322.342Z" fill="black"/>
<path d="M244.72 330.937H236.126V339.531H244.72V330.937Z" fill="black"/>
<path d="M244.72 348.125H236.126V356.719H244.72V348.125Z" fill="black"/>
<path d="M244.72 356.72H236.126V365.314H244.72V356.72Z" fill="black"/>
<path d="M244.72 365.313H236.126V373.908H244.72V365.313Z" fill="black"/>
<path d="M244.72 373.908H236.126V382.503H244.72V373.908Z" fill="black"/>
<path d="M244.72 382.502H236.126V391.096H244.72V382.502Z" fill="black"/>
<path d="M253.315 244.993H244.72V253.587H253.315V244.993Z" fill="black"/>
<path d="M253.315 253.587H244.72V262.181H253.315V253.587Z" fill="black"/>
<path d="M253.315 262.182H244.72V270.776H253.315V262.182Z" fill="black"/>
<path d="M253.315 270.776H244.72V279.371H253.315V270.776Z" fill="black"/>
<path d="M253.315 313.748H244.72V322.342H253.315V313.748Z" fill="black"/>
<path d="M253.315 322.342H244.72V330.936H253.315V322.342Z" fill="black"/>
<path d="M253.315 339.53H244.72V348.125H253.315V339.53Z" fill="black"/>
<path d="M253.315 348.125H244.72V356.719H253.315V348.125Z" fill="black"/>
<path d="M253.315 382.502H244.72V391.096H253.315V382.502Z" fill="black"/>
<path d="M253.315 408.285H244.72V416.879H253.315V408.285Z" fill="black"/>
<path d="M253.315 416.88H244.72V425.474H253.315V416.88Z" fill="black"/>
<path d="M261.909 244.993H253.314V253.587H261.909V244.993Z" fill="black"/>
<path d="M261.909 262.182H253.314V270.776H261.909V262.182Z" fill="black"/>
<path d="M261.909 296.559H253.314V305.153H261.909V296.559Z" fill="black"/>
<path d="M261.909 330.937H253.314V339.531H261.909V330.937Z" fill="black"/>
<path d="M261.909 339.53H253.314V348.125H261.909V339.53Z" fill="black"/>
<path d="M261.909 348.125H253.314V356.719H261.909V348.125Z" fill="black"/>
<path d="M261.909 365.313H253.314V373.908H261.909V365.313Z" fill="black"/>
<path d="M261.909 382.502H253.314V391.096H261.909V382.502Z" fill="black"/>
<path d="M261.909 399.691H253.314V408.286H261.909V399.691Z" fill="black"/>
<path d="M261.909 408.285H253.314V416.879H261.909V408.285Z" fill="black"/>
<path d="M261.909 416.88H253.314V425.474H261.909V416.88Z" fill="black"/>
<path d="M270.503 253.587H261.909V262.181H270.503V253.587Z" fill="black"/>
<path d="M270.503 270.776H261.909V279.371H270.503V270.776Z" fill="black"/>
<path d="M270.503 279.37H261.909V287.964H270.503V279.37Z" fill="black"/>
<path d="M270.503 296.559H261.909V305.153H270.503V296.559Z" fill="black"/>
<path d="M270.503 322.342H261.909V330.936H270.503V322.342Z" fill="black"/>
<path d="M270.503 330.937H261.909V339.531H270.503V330.937Z" fill="black"/>
<path d="M270.503 348.125H261.909V356.719H270.503V348.125Z" fill="black"/>
<path d="M270.503 382.502H261.909V391.096H270.503V382.502Z" fill="black"/>
<path d="M270.503 416.88H261.909V425.474H270.503V416.88Z" fill="black"/>
<path d="M279.098 244.993H270.503V253.587H279.098V244.993Z" fill="black"/>
<path d="M279.098 253.587H270.503V262.181H279.098V253.587Z" fill="black"/>
<path d="M279.098 262.182H270.503V270.776H279.098V262.182Z" fill="black"/>
<path d="M279.098 270.776H270.503V279.371H279.098V270.776Z" fill="black"/>
<path d="M279.098 287.965H270.503V296.559H279.098V287.965Z" fill="black"/>
<path d="M279.098 313.748H270.503V322.342H279.098V313.748Z" fill="black"/>
<path d="M279.098 330.937H270.503V339.531H279.098V330.937Z" fill="black"/>
<path d="M279.098 348.125H270.503V356.719H279.098V348.125Z" fill="black"/>
<path d="M279.098 356.72H270.503V365.314H279.098V356.72Z" fill="black"/>
<path d="M279.098 365.313H270.503V373.908H279.098V365.313Z" fill="black"/>
<path d="M279.098 373.908H270.503V382.503H279.098V373.908Z" fill="black"/>
<path d="M279.098 382.502H270.503V391.096H279.098V382.502Z" fill="black"/>
<path d="M279.098 391.097H270.503V399.691H279.098V391.097Z" fill="black"/>
<path d="M279.098 408.285H270.503V416.879H279.098V408.285Z" fill="black"/>
<path d="M287.692 253.587H279.098V262.181H287.692V253.587Z" fill="black"/>
<path d="M287.692 262.182H279.098V270.776H287.692V262.182Z" fill="black"/>
<path d="M287.692 270.776H279.098V279.371H287.692V270.776Z" fill="black"/>
<path d="M287.692 287.965H279.098V296.559H287.692V287.965Z" fill="black"/>
<path d="M287.692 305.153H279.098V313.748H287.692V305.153Z" fill="black"/>
<path d="M287.692 313.748H279.098V322.342H287.692V313.748Z" fill="black"/>
<path d="M287.692 330.937H279.098V339.531H287.692V330.937Z" fill="black"/>
<path d="M287.692 348.125H279.098V356.719H287.692V348.125Z" fill="black"/>
<path d="M287.692 356.72H279.098V365.314H287.692V356.72Z" fill="black"/>
<path d="M287.692 382.502H279.098V391.096H287.692V382.502Z" fill="black"/>
<path d="M287.692 399.691H279.098V408.286H287.692V399.691Z" fill="black"/>
<path d="M296.286 244.993H287.692V253.587H296.286V244.993Z" fill="black"/>
<path d="M296.286 253.587H287.692V262.181H296.286V253.587Z" fill="black"/>
<path d="M296.286 262.182H287.692V270.776H296.286V262.182Z" fill="black"/>
<path d="M296.286 270.776H287.692V279.371H296.286V270.776Z" fill="black"/>
<path d="M296.286 287.965H287.692V296.559H296.286V287.965Z" fill="black"/>
<path d="M296.286 305.153H287.692V313.748H296.286V305.153Z" fill="black"/>
<path d="M296.286 313.748H287.692V322.342H296.286V313.748Z" fill="black"/>
<path d="M296.286 322.342H287.692V330.936H296.286V322.342Z" fill="black"/>
<path d="M296.286 339.53H287.692V348.125H296.286V339.53Z" fill="black"/>
<path d="M296.286 373.908H287.692V382.503H296.286V373.908Z" fill="black"/>
<path d="M296.286 382.502H287.692V391.096H296.286V382.502Z" fill="black"/>
<path d="M296.286 391.097H287.692V399.691H296.286V391.097Z" fill="black"/>
<path d="M296.286 416.88H287.692V425.474H296.286V416.88Z" fill="black"/>
<path d="M304.88 244.993H296.286V253.587H304.88V244.993Z" fill="black"/>
<path d="M304.88 253.587H296.286V262.181H304.88V253.587Z" fill="black"/>
<path d="M304.88 262.182H296.286V270.776H304.88V262.182Z" fill="black"/>
<path d="M304.88 279.37H296.286V287.964H304.88V279.37Z" fill="black"/>
<path d="M304.88 287.965H296.286V296.559H304.88V287.965Z" fill="black"/>
<path d="M304.88 296.559H296.286V305.153H304.88V296.559Z" fill="black"/>
<path d="M304.88 313.748H296.286V322.342H304.88V313.748Z" fill="black"/>
<path d="M304.88 322.342H296.286V330.936H304.88V322.342Z" fill="black"/>
<path d="M304.88 348.125H296.286V356.719H304.88V348.125Z" fill="black"/>
<path d="M304.88 356.72H296.286V365.314H304.88V356.72Z" fill="black"/>
<path d="M304.88 365.313H296.286V373.908H304.88V365.313Z" fill="black"/>
<path d="M304.88 373.908H296.286V382.503H304.88V373.908Z" fill="black"/>
<path d="M304.88 408.285H296.286V416.879H304.88V408.285Z" fill="black"/>
<path d="M313.475 253.587H304.88V262.181H313.475V253.587Z" fill="black"/>
<path d="M313.475 305.153H304.88V313.748H313.475V305.153Z" fill="black"/>
<path d="M313.475 313.748H304.88V322.342H313.475V313.748Z" fill="black"/>
<path d="M313.475 322.342H304.88V330.936H313.475V322.342Z" fill="black"/>
<path d="M313.475 348.125H304.88V356.719H313.475V348.125Z" fill="black"/>
<path d="M313.475 356.72H304.88V365.314H313.475V356.72Z" fill="black"/>
<path d="M313.475 365.313H304.88V373.908H313.475V365.313Z" fill="black"/>
<path d="M313.475 382.502H304.88V391.096H313.475V382.502Z" fill="black"/>
<path d="M313.475 408.285H304.88V416.879H313.475V408.285Z" fill="black"/>
<path d="M313.475 416.88H304.88V425.474H313.475V416.88Z" fill="black"/>
<path d="M72.8336 176.238H64.2393V184.833H72.8336V176.238Z" fill="black"/>
<path d="M72.8336 184.833H64.2393V193.427H72.8336V184.833Z" fill="black"/>
<path d="M72.8336 193.427H64.2393V202.021H72.8336V193.427Z" fill="black"/>
<path d="M72.8336 202.021H64.2393V210.616H72.8336V202.021Z" fill="black"/>
<path d="M72.8336 210.615H64.2393V219.21H72.8336V210.615Z" fill="black"/>
<path d="M72.8336 219.21H64.2393V227.804H72.8336V219.21Z" fill="black"/>
<path d="M72.8336 227.805H64.2393V236.399H72.8336V227.805Z" fill="black"/>
<path d="M81.4278 176.238H72.8335V184.833H81.4278V176.238Z" fill="black"/>
<path d="M81.4278 227.805H72.8335V236.399H81.4278V227.805Z" fill="black"/>
<path d="M90.0221 176.238H81.4277V184.833H90.0221V176.238Z" fill="black"/>
<path d="M90.0221 227.805H81.4277V236.399H90.0221V227.805Z" fill="black"/>
<path d="M98.6168 176.238H90.0225V184.833H98.6168V176.238Z" fill="black"/>
<path d="M98.6168 227.805H90.0225V236.399H98.6168V227.805Z" fill="black"/>
<path d="M107.211 176.238H98.6167V184.833H107.211V176.238Z" fill="black"/>
<path d="M107.211 227.805H98.6167V236.399H107.211V227.805Z" fill="black"/>
<path d="M115.805 176.238H107.211V184.833H115.805V176.238Z" fill="black"/>
<path d="M115.805 227.805H107.211V236.399H115.805V227.805Z" fill="black"/>
<path d="M124.4 176.238H115.805V184.833H124.4V176.238Z" fill="black"/>
<path d="M124.4 184.833H115.805V193.427H124.4V184.833Z" fill="black"/>
<path d="M124.4 193.427H115.805V202.021H124.4V193.427Z" fill="black"/>
<path d="M124.4 202.021H115.805V210.616H124.4V202.021Z" fill="black"/>
<path d="M124.4 210.615H115.805V219.21H124.4V210.615Z" fill="black"/>
<path d="M124.4 219.21H115.805V227.804H124.4V219.21Z" fill="black"/>
<path d="M124.4 227.805H115.805V236.399H124.4V227.805Z" fill="black"/>
<path d="M90.0221 193.427H81.4277V202.021H90.0221V193.427Z" fill="black"/>
<path d="M90.0221 202.021H81.4277V210.616H90.0221V202.021Z" fill="black"/>
<path d="M90.0221 210.615H81.4277V219.21H90.0221V210.615Z" fill="black"/>
<path d="M98.6163 193.427H90.022V202.021H98.6163V193.427Z" fill="black"/>
<path d="M98.6163 202.021H90.022V210.616H98.6163V202.021Z" fill="black"/>
<path d="M98.6163 210.615H90.022V219.21H98.6163V210.615Z" fill="black"/>
<path d="M107.211 193.427H98.6162V202.021H107.211V193.427Z" fill="black"/>
<path d="M107.211 202.021H98.6162V210.616H107.211V202.021Z" fill="black"/>
<path d="M107.211 210.615H98.6162V219.21H107.211V210.615Z" fill="black"/>
<path d="M261.909 176.238H253.314V184.833H261.909V176.238Z" fill="black"/>
<path d="M261.909 184.833H253.314V193.427H261.909V184.833Z" fill="black"/>
<path d="M261.909 193.427H253.314V202.021H261.909V193.427Z" fill="black"/>
<path d="M261.909 202.021H253.314V210.616H261.909V202.021Z" fill="black"/>
<path d="M261.909 210.615H253.314V219.21H261.909V210.615Z" fill="black"/>
<path d="M261.909 219.21H253.314V227.804H261.909V219.21Z" fill="black"/>
<path d="M261.909 227.805H253.314V236.399H261.909V227.805Z" fill="black"/>
<path d="M270.503 176.238H261.909V184.833H270.503V176.238Z" fill="black"/>
<path d="M270.503 227.805H261.909V236.399H270.503V227.805Z" fill="black"/>
<path d="M279.097 176.238H270.503V184.833H279.097V176.238Z" fill="black"/>
<path d="M279.097 227.805H270.503V236.399H279.097V227.805Z" fill="black"/>
<path d="M287.692 176.238H279.098V184.833H287.692V176.238Z" fill="black"/>
<path d="M287.692 227.805H279.098V236.399H287.692V227.805Z" fill="black"/>
<path d="M296.286 176.238H287.692V184.833H296.286V176.238Z" fill="black"/>
<path d="M296.286 227.805H287.692V236.399H296.286V227.805Z" fill="black"/>
<path d="M304.88 176.238H296.286V184.833H304.88V176.238Z" fill="black"/>
<path d="M304.88 227.805H296.286V236.399H304.88V227.805Z" fill="black"/>
<path d="M313.475 176.238H304.88V184.833H313.475V176.238Z" fill="black"/>
<path d="M313.475 184.833H304.88V193.427H313.475V184.833Z" fill="black"/>
<path d="M313.475 193.427H304.88V202.021H313.475V193.427Z" fill="black"/>
<path d="M313.475 202.021H304.88V210.616H313.475V202.021Z" fill="black"/>
<path d="M313.475 210.615H304.88V219.21H313.475V210.615Z" fill="black"/>
<path d="M313.475 219.21H304.88V227.804H313.475V219.21Z" fill="black"/>
<path d="M313.475 227.805H304.88V236.399H313.475V227.805Z" fill="black"/>
<path d="M279.097 193.427H270.503V202.021H279.097V193.427Z" fill="black"/>
<path d="M279.097 202.021H270.503V210.616H279.097V202.021Z" fill="black"/>
<path d="M279.097 210.615H270.503V219.21H279.097V210.615Z" fill="black"/>
<path d="M287.692 193.427H279.097V202.021H287.692V193.427Z" fill="black"/>
<path d="M287.692 202.021H279.097V210.616H287.692V202.021Z" fill="black"/>
<path d="M287.692 210.615H279.097V219.21H287.692V210.615Z" fill="black"/>
<path d="M296.286 193.427H287.691V202.021H296.286V193.427Z" fill="black"/>
<path d="M296.286 202.021H287.691V210.616H296.286V202.021Z" fill="black"/>
<path d="M296.286 210.615H287.691V219.21H296.286V210.615Z" fill="black"/>
<path d="M72.8336 365.313H64.2393V373.908H72.8336V365.313Z" fill="black"/>
<path d="M72.8336 373.908H64.2393V382.503H72.8336V373.908Z" fill="black"/>
<path d="M72.8336 382.502H64.2393V391.096H72.8336V382.502Z" fill="black"/>
<path d="M72.8336 391.097H64.2393V399.691H72.8336V391.097Z" fill="black"/>
<path d="M72.8336 399.69H64.2393V408.285H72.8336V399.69Z" fill="black"/>
<path d="M72.8336 408.285H64.2393V416.879H72.8336V408.285Z" fill="black"/>
<path d="M72.8336 416.88H64.2393V425.474H72.8336V416.88Z" fill="black"/>
<path d="M81.4278 365.313H72.8335V373.908H81.4278V365.313Z" fill="black"/>
<path d="M81.4278 416.88H72.8335V425.474H81.4278V416.88Z" fill="black"/>
<path d="M90.0221 365.313H81.4277V373.908H90.0221V365.313Z" fill="black"/>
<path d="M90.0221 416.88H81.4277V425.474H90.0221V416.88Z" fill="black"/>
<path d="M98.6168 365.313H90.0225V373.908H98.6168V365.313Z" fill="black"/>
<path d="M98.6168 416.88H90.0225V425.474H98.6168V416.88Z" fill="black"/>
<path d="M107.211 365.313H98.6167V373.908H107.211V365.313Z" fill="black"/>
<path d="M107.211 416.88H98.6167V425.474H107.211V416.88Z" fill="black"/>
<path d="M115.805 365.313H107.211V373.908H115.805V365.313Z" fill="black"/>
<path d="M115.805 416.88H107.211V425.474H115.805V416.88Z" fill="black"/>
<path d="M124.4 365.313H115.805V373.908H124.4V365.313Z" fill="black"/>
<path d="M124.4 373.908H115.805V382.503H124.4V373.908Z" fill="black"/>
<path d="M124.4 382.502H115.805V391.096H124.4V382.502Z" fill="black"/>
<path d="M124.4 391.097H115.805V399.691H124.4V391.097Z" fill="black"/>
<path d="M124.4 399.69H115.805V408.285H124.4V399.69Z" fill="black"/>
<path d="M124.4 408.285H115.805V416.879H124.4V408.285Z" fill="black"/>
<path d="M124.4 416.88H115.805V425.474H124.4V416.88Z" fill="black"/>
<path d="M90.0221 382.503H81.4277V391.097H90.0221V382.503Z" fill="black"/>
<path d="M90.0221 391.098H81.4277V399.692H90.0221V391.098Z" fill="black"/>
<path d="M90.0221 399.691H81.4277V408.286H90.0221V399.691Z" fill="black"/>
<path d="M98.6163 382.503H90.022V391.097H98.6163V382.503Z" fill="black"/>
<path d="M98.6163 391.098H90.022V399.692H98.6163V391.098Z" fill="black"/>
<path d="M98.6163 399.691H90.022V408.286H98.6163V399.691Z" fill="black"/>
<path d="M107.211 382.503H98.6162V391.097H107.211V382.503Z" fill="black"/>
<path d="M107.211 391.098H98.6162V399.692H107.211V391.098Z" fill="black"/>
<path d="M107.211 399.691H98.6162V408.286H107.211V399.691Z" fill="black"/>
<rect x="39.5" y="151.5" width="296" height="296" stroke="white"/>
<path d="M28.0586 82L28.082 79.0352H31.75C32.6484 79.0352 33.4023 78.8359 34.0117 78.4375C34.6289 78.0391 35.0938 77.4531 35.4062 76.6797C35.7188 75.9062 35.875 74.957 35.875 73.832V73.082C35.875 71.9492 35.7188 71 35.4062 70.2344C35.0938 69.4688 34.6328 68.8906 34.0234 68.5C33.4141 68.1094 32.6641 67.9141 31.7734 67.9141H27.9883V64.9375H31.7734C33.3125 64.9375 34.668 65.2812 35.8398 65.9688C37.0195 66.6562 37.9414 67.6133 38.6055 68.8398C39.2695 70.0586 39.6016 71.4805 39.6016 73.1055V73.832C39.6016 75.457 39.2695 76.8828 38.6055 78.1094C37.9414 79.3359 37.0195 80.293 35.8398 80.9805C34.668 81.6602 33.3047 82 31.75 82H28.0586ZM30.1562 82H26.4648V64.9375H30.1562V82ZM47.7695 82.2344C46.4336 82.2344 45.2891 81.957 44.3359 81.4023C43.3906 80.8477 42.6641 80.1055 42.1562 79.1758C41.6562 78.2461 41.4062 77.2188 41.4062 76.0938V75.6367C41.4062 74.3711 41.6445 73.2461 42.1211 72.2617C42.6055 71.2695 43.293 70.4922 44.1836 69.9297C45.0742 69.3672 46.1367 69.0859 47.3711 69.0859C48.5977 69.0859 49.6289 69.3438 50.4648 69.8594C51.3008 70.375 51.9336 71.1016 52.3633 72.0391C52.793 72.9688 53.0078 74.0625 53.0078 75.3203V76.8203H42.8945V74.4414H49.5273V74.1602C49.5273 73.7227 49.4492 73.3359 49.293 73C49.1367 72.6641 48.8984 72.4023 48.5781 72.2148C48.2656 72.0273 47.8555 71.9336 47.3477 71.9336C46.7695 71.9336 46.3047 72.0977 45.9531 72.4258C45.6016 72.7539 45.3438 73.1953 45.1797 73.75C45.0234 74.3047 44.9453 74.9336 44.9453 75.6367V76.0938C44.9453 76.7422 45.0664 77.3125 45.3086 77.8047C45.5508 78.2969 45.8984 78.6836 46.3516 78.9648C46.8047 79.2383 47.3516 79.375 47.9922 79.375C48.5938 79.375 49.1562 79.2656 49.6797 79.0469C50.2031 78.8203 50.6484 78.4688 51.0156 77.9922L52.7266 79.9492C52.3281 80.5195 51.7109 81.043 50.875 81.5195C50.0469 81.9961 49.0117 82.2344 47.7695 82.2344ZM60.1562 79.3867C60.5547 79.3867 60.9062 79.3125 61.2109 79.1641C61.5156 79.0156 61.75 78.8047 61.9141 78.5312C62.0859 78.2578 62.1758 77.9336 62.1836 77.5586H65.5117C65.5039 78.4727 65.2656 79.2812 64.7969 79.9844C64.3281 80.6875 63.6953 81.2383 62.8984 81.6367C62.1016 82.0352 61.207 82.2344 60.2148 82.2344C58.9023 82.2344 57.8086 81.9492 56.9336 81.3789C56.0664 80.8086 55.4141 80.0391 54.9766 79.0703C54.5469 78.1016 54.332 77.0195 54.332 75.8242V75.5078C54.332 74.3047 54.5469 73.2188 54.9766 72.25C55.4141 71.2812 56.0664 70.5117 56.9336 69.9414C57.8086 69.3711 58.8984 69.0859 60.2031 69.0859C61.25 69.0859 62.168 69.2891 62.957 69.6953C63.7539 70.0938 64.375 70.668 64.8203 71.418C65.2734 72.1602 65.5039 73.0508 65.5117 74.0898H62.1836C62.1758 73.6914 62.0938 73.332 61.9375 73.0117C61.7891 72.6836 61.5625 72.4219 61.2578 72.2266C60.9531 72.0312 60.5781 71.9336 60.1328 71.9336C59.5078 71.9336 59.0312 72.1016 58.7031 72.4375C58.3828 72.7734 58.1641 73.2148 58.0469 73.7617C57.9297 74.3008 57.8711 74.8828 57.8711 75.5078V75.8242C57.8711 76.457 57.9258 77.0469 58.0352 77.5938C58.1523 78.1328 58.375 78.5664 58.7031 78.8945C59.0391 79.2227 59.5234 79.3867 60.1562 79.3867ZM72.6953 79.3867C73.0938 79.3867 73.4453 79.3125 73.75 79.1641C74.0547 79.0156 74.2891 78.8047 74.4531 78.5312C74.625 78.2578 74.7148 77.9336 74.7227 77.5586H78.0508C78.043 78.4727 77.8047 79.2812 77.3359 79.9844C76.8672 80.6875 76.2344 81.2383 75.4375 81.6367C74.6406 82.0352 73.7461 82.2344 72.7539 82.2344C71.4414 82.2344 70.3477 81.9492 69.4727 81.3789C68.6055 80.8086 67.9531 80.0391 67.5156 79.0703C67.0859 78.1016 66.8711 77.0195 66.8711 75.8242V75.5078C66.8711 74.3047 67.0859 73.2188 67.5156 72.25C67.9531 71.2812 68.6055 70.5117 69.4727 69.9414C70.3477 69.3711 71.4375 69.0859 72.7422 69.0859C73.7891 69.0859 74.707 69.2891 75.4961 69.6953C76.293 70.0938 76.9141 70.668 77.3594 71.418C77.8125 72.1602 78.043 73.0508 78.0508 74.0898H74.7227C74.7148 73.6914 74.6328 73.332 74.4766 73.0117C74.3281 72.6836 74.1016 72.4219 73.7969 72.2266C73.4922 72.0312 73.1172 71.9336 72.6719 71.9336C72.0469 71.9336 71.5703 72.1016 71.2422 72.4375C70.9219 72.7734 70.7031 73.2148 70.5859 73.7617C70.4688 74.3008 70.4102 74.8828 70.4102 75.5078V75.8242C70.4102 76.457 70.4648 77.0469 70.5742 77.5938C70.6914 78.1328 70.9141 78.5664 71.2422 78.8945C71.5781 79.2227 72.0625 79.3867 72.6953 79.3867ZM86.7227 73.5508C86.7227 72.9805 86.582 72.5273 86.3008 72.1914C86.0195 71.8555 85.5703 71.6875 84.9531 71.6875C84.6016 71.6875 84.2969 71.7461 84.0391 71.8633C83.7812 71.9805 83.5859 72.1484 83.4531 72.3672C83.3203 72.5781 83.2539 72.8398 83.2539 73.1523H79.7148C79.7148 72.4023 79.9375 71.7227 80.3828 71.1133C80.8281 70.4961 81.457 70.0039 82.2695 69.6367C83.082 69.2695 84.0391 69.0859 85.1406 69.0859C86.125 69.0859 87.0039 69.2539 87.7773 69.5898C88.5508 69.918 89.1602 70.4141 89.6055 71.0781C90.0508 71.7422 90.2734 72.5742 90.2734 73.5742V78.8711C90.2734 79.6211 90.3164 80.2148 90.4023 80.6523C90.4961 81.0898 90.625 81.4727 90.7891 81.8008V82H87.2266C87.0547 81.6406 86.9258 81.1914 86.8398 80.6523C86.7617 80.1133 86.7227 79.5664 86.7227 79.0117V73.5508ZM87.2031 76.2812H85.3984C84.5391 76.2812 83.918 76.4688 83.5352 76.8438C83.1523 77.2109 82.9609 77.6562 82.9609 78.1797C82.9609 78.5781 83.1016 78.9062 83.3828 79.1641C83.6641 79.4219 84.043 79.5508 84.5195 79.5508C85.0117 79.5508 85.4336 79.457 85.7852 79.2695C86.1445 79.0742 86.418 78.8438 86.6055 78.5781C86.8008 78.3047 86.8945 78.0547 86.8867 77.8281L87.8008 79.3516C87.6758 79.6641 87.5078 79.9883 87.2969 80.3242C87.0938 80.6602 86.832 80.9727 86.5117 81.2617C86.1914 81.5508 85.8008 81.7852 85.3398 81.9648C84.8867 82.1445 84.3516 82.2344 83.7344 82.2344C82.9375 82.2344 82.2109 82.0742 81.5547 81.7539C80.8984 81.4258 80.3789 80.9766 79.9961 80.4062C79.6133 79.8281 79.4219 79.168 79.4219 78.4258C79.4219 77.0977 79.9141 76.0703 80.8984 75.3438C81.8828 74.6094 83.3477 74.2422 85.293 74.2422H87.1797L87.2031 76.2812ZM96.2617 82H92.7227V69.3203H96.0508L96.2617 72.0273V82ZM94.8086 75.2852C94.8086 74.0039 95.0156 72.9023 95.4297 71.9805C95.8438 71.0508 96.4258 70.3359 97.1758 69.8359C97.9258 69.3359 98.7969 69.0859 99.7891 69.0859C100.586 69.0859 101.281 69.2422 101.875 69.5547C102.477 69.8672 102.945 70.3789 103.281 71.0898C103.625 71.793 103.797 72.75 103.797 73.9609V82H100.246V73.9375C100.246 73.4141 100.168 73.0117 100.012 72.7305C99.8633 72.4414 99.6445 72.2422 99.3555 72.1328C99.0664 72.0156 98.7109 71.957 98.2891 71.957C97.8594 71.957 97.4844 72.0391 97.1641 72.2031C96.8516 72.3594 96.5898 72.5859 96.3789 72.8828C96.1758 73.1797 96.0234 73.5312 95.9219 73.9375C95.8203 74.3359 95.7695 74.7695 95.7695 75.2383L94.8086 75.2852ZM115 82H111.074L117.414 64.9375H119.898L119.547 68.1719L115 82ZM118.715 68.1719L118.328 64.9375H120.824L127.199 82H123.273L118.715 68.1719ZM123.156 78.6016H114.109V75.625H123.156V78.6016ZM132.062 82H128.523V69.3203H131.852L132.062 72.2383V82ZM135.766 72.6484C135.594 72.625 135.391 72.6055 135.156 72.5898C134.922 72.5664 134.711 72.5547 134.523 72.5547C133.906 72.5547 133.398 72.6523 133 72.8477C132.602 73.0352 132.305 73.3164 132.109 73.6914C131.914 74.0664 131.809 74.5312 131.793 75.0859L131.102 74.7812C131.102 73.6797 131.242 72.6992 131.523 71.8398C131.805 70.9805 132.219 70.3086 132.766 69.8242C133.312 69.332 133.977 69.0859 134.758 69.0859C134.938 69.0859 135.125 69.0977 135.32 69.1211C135.523 69.1445 135.688 69.1836 135.812 69.2383L135.766 72.6484ZM144.285 71.8984H136.797V69.3203H144.285V71.8984ZM142.141 66.1914V78.0391C142.141 78.3828 142.184 78.6484 142.27 78.8359C142.363 79.0234 142.508 79.1523 142.703 79.2227C142.898 79.293 143.141 79.3281 143.43 79.3281C143.641 79.3281 143.828 79.3203 143.992 79.3047C144.156 79.2891 144.297 79.2695 144.414 79.2461L144.402 81.918C144.113 82.0195 143.797 82.0977 143.453 82.1523C143.117 82.207 142.738 82.2344 142.316 82.2344C141.559 82.2344 140.898 82.1094 140.336 81.8594C139.781 81.6016 139.352 81.1953 139.047 80.6406C138.75 80.0781 138.602 79.3438 138.602 78.4375V66.1914H142.141ZM152.898 78.4609C152.898 78.2266 152.828 78.0234 152.688 77.8516C152.555 77.6797 152.305 77.5195 151.938 77.3711C151.57 77.2227 151.039 77.0742 150.344 76.9258C149.492 76.7383 148.723 76.4844 148.035 76.1641C147.355 75.8438 146.82 75.4297 146.43 74.9219C146.039 74.4062 145.844 73.7852 145.844 73.0586C145.844 72.3477 146.047 71.6914 146.453 71.0898C146.859 70.4883 147.441 70.0039 148.199 69.6367C148.965 69.2695 149.879 69.0859 150.941 69.0859C152.051 69.0859 153.008 69.2617 153.812 69.6133C154.617 69.9648 155.234 70.4492 155.664 71.0664C156.094 71.6836 156.309 72.3906 156.309 73.1875H152.77C152.77 72.7109 152.621 72.3242 152.324 72.0273C152.035 71.7227 151.57 71.5703 150.93 71.5703C150.586 71.5703 150.285 71.6289 150.027 71.7461C149.77 71.8633 149.57 72.0195 149.43 72.2148C149.297 72.4023 149.23 72.625 149.23 72.8828C149.23 73.1172 149.305 73.3242 149.453 73.5039C149.602 73.6836 149.844 73.8398 150.18 73.9727C150.516 74.1055 150.965 74.2227 151.527 74.3242C152.426 74.4961 153.238 74.7344 153.965 75.0391C154.691 75.3359 155.27 75.7461 155.699 76.2695C156.129 76.7852 156.344 77.4727 156.344 78.332C156.344 79.082 156.121 79.7539 155.676 80.3477C155.238 80.9336 154.613 81.3945 153.801 81.7305C152.996 82.0664 152.047 82.2344 150.953 82.2344C149.758 82.2344 148.75 82.0195 147.93 81.5898C147.109 81.1602 146.488 80.6172 146.066 79.9609C145.645 79.2969 145.434 78.6211 145.434 77.9336H148.785C148.809 78.3555 148.922 78.6992 149.125 78.9648C149.336 79.2305 149.605 79.4258 149.934 79.5508C150.27 79.6758 150.637 79.7383 151.035 79.7383C151.441 79.7383 151.781 79.6875 152.055 79.5859C152.336 79.4766 152.547 79.3281 152.688 79.1406C152.828 78.9453 152.898 78.7188 152.898 78.4609Z" fill="#F5F5F5"/>
<path d="M342 80V68M342 68L346 72.125M342 68L338 72.125M334 68V80M334 80L338 75.875M334 80L330 75.875" stroke="#F5F5F5" stroke-width="1.5" stroke-linecap="round" stroke-linejoin="round"/>
<path d="M31.0645 18.3613C31.0645 19.2871 30.9551 20.0254 30.7363 20.5762C30.5215 21.123 30.2129 21.5176 29.8105 21.7598C29.4082 21.998 28.9316 22.1172 28.3809 22.1172C27.8379 22.1172 27.3633 21.998 26.957 21.7598C26.5508 21.5176 26.2344 21.123 26.0078 20.5762C25.7852 20.0254 25.6738 19.2871 25.6738 18.3613V17.0547C25.6738 16.125 25.7832 15.3906 26.002 14.8516C26.2246 14.3125 26.5371 13.9277 26.9395 13.6973C27.3457 13.4668 27.8223 13.3516 28.3691 13.3516C28.9199 13.3516 29.3965 13.4668 29.7988 13.6973C30.2012 13.9277 30.5117 14.3125 30.7305 14.8516C30.9531 15.3906 31.0645 16.125 31.0645 17.0547V18.3613ZM29.9688 16.873C29.9688 16.2324 29.9082 15.7188 29.7871 15.332C29.666 14.9453 29.4863 14.666 29.248 14.4941C29.0098 14.3184 28.7168 14.2305 28.3691 14.2305C28.0254 14.2305 27.7344 14.3184 27.4961 14.4941C27.2578 14.666 27.0762 14.9453 26.9512 15.332C26.8301 15.7188 26.7695 16.2324 26.7695 16.873V18.5312C26.7695 19.168 26.832 19.6855 26.957 20.084C27.082 20.4824 27.2637 20.7754 27.502 20.9629C27.7441 21.1465 28.0371 21.2383 28.3809 21.2383C28.7324 21.2383 29.0254 21.1465 29.2598 20.9629C29.4941 20.7754 29.6699 20.4824 29.7871 20.084C29.9082 19.6855 29.9688 19.168 29.9688 18.5312V16.873ZM33.6484 21.0977C34.2734 21.0977 34.7812 21.0098 35.1719 20.834C35.5625 20.6582 35.8613 20.4219 36.0684 20.125C36.2793 19.8242 36.4238 19.4883 36.502 19.1172C36.5801 18.7422 36.6191 18.3574 36.6191 17.9629V16.6562C36.6191 16.1367 36.543 15.6973 36.3906 15.3379C36.2383 14.9785 36.0371 14.707 35.7871 14.5234C35.541 14.3359 35.2734 14.2422 34.9844 14.2422C34.6523 14.2422 34.3672 14.3301 34.1289 14.5059C33.8945 14.6816 33.7148 14.9199 33.5898 15.2207C33.4688 15.5215 33.4082 15.8613 33.4082 16.2402C33.4082 16.5762 33.4629 16.8984 33.5723 17.207C33.6855 17.5156 33.8555 17.7676 34.082 17.9629C34.3125 18.1582 34.6016 18.2559 34.9492 18.2559C35.1875 18.2559 35.4121 18.207 35.623 18.1094C35.8379 18.0117 36.0273 17.8809 36.1914 17.7168C36.3555 17.5488 36.4883 17.3594 36.5898 17.1484C36.6914 16.9336 36.75 16.7109 36.7656 16.4805H37.2871C37.2871 16.8047 37.2227 17.125 37.0938 17.4414C36.9688 17.7578 36.793 18.0449 36.5664 18.3027C36.3398 18.5605 36.0742 18.7656 35.7695 18.918C35.4648 19.0703 35.1328 19.1465 34.7734 19.1465C34.2109 19.1465 33.75 19.0059 33.3906 18.7246C33.0312 18.4434 32.7656 18.0859 32.5938 17.6523C32.4219 17.2148 32.3359 16.7637 32.3359 16.2988C32.3359 15.7559 32.4355 15.2617 32.6348 14.8164C32.834 14.3711 33.1309 14.0156 33.5254 13.75C33.9199 13.4844 34.4062 13.3516 34.9844 13.3516C35.4727 13.3516 35.8887 13.4492 36.2324 13.6445C36.5801 13.8359 36.8613 14.0957 37.0762 14.4238C37.2949 14.752 37.4551 15.1211 37.5566 15.5312C37.6582 15.9414 37.709 16.3633 37.709 16.7969V17.2012C37.709 17.6465 37.6797 18.0977 37.6211 18.5547C37.5664 19.0078 37.459 19.4414 37.2988 19.8555C37.1426 20.2656 36.9141 20.6348 36.6133 20.9629C36.3125 21.2871 35.9199 21.543 35.4355 21.7305C34.9551 21.918 34.3594 22.0117 33.6484 22.0117H33.5371V21.0977H33.6484ZM39.2793 21.4316C39.2793 21.248 39.3359 21.0938 39.4492 20.9688C39.5664 20.8398 39.7344 20.7754 39.9531 20.7754C40.1758 20.7754 40.3438 20.8398 40.457 20.9688C40.5742 21.0938 40.6328 21.248 40.6328 21.4316C40.6328 21.6113 40.5742 21.7617 40.457 21.8828C40.3438 22.0039 40.1758 22.0645 39.9531 22.0645C39.7344 22.0645 39.5664 22.0039 39.4492 21.8828C39.3359 21.7617 39.2793 21.6113 39.2793 21.4316ZM39.2852 16.252C39.2852 16.0684 39.3418 15.9141 39.4551 15.7891C39.5723 15.6602 39.7402 15.5957 39.959 15.5957C40.1816 15.5957 40.3496 15.6602 40.4629 15.7891C40.5801 15.9141 40.6387 16.0684 40.6387 16.252C40.6387 16.4316 40.5801 16.582 40.4629 16.7031C40.3496 16.8242 40.1816 16.8848 39.959 16.8848C39.7402 16.8848 39.5723 16.8242 39.4551 16.7031C39.3418 16.582 39.2852 16.4316 39.2852 16.252ZM44.4824 17.207C44.8574 17.207 45.168 17.1426 45.4141 17.0137C45.6641 16.8848 45.8496 16.7109 45.9707 16.4922C46.0957 16.2695 46.1582 16.0176 46.1582 15.7363C46.1582 15.4121 46.1035 15.1387 45.9941 14.916C45.8848 14.6895 45.7207 14.5195 45.502 14.4062C45.2832 14.2891 45.0078 14.2305 44.6758 14.2305C44.3711 14.2305 44.1035 14.291 43.873 14.4121C43.6426 14.5332 43.4629 14.7031 43.334 14.9219C43.2051 15.1406 43.1406 15.4004 43.1406 15.7012H42.0449C42.0449 15.2637 42.1543 14.8691 42.373 14.5176C42.5918 14.1621 42.8984 13.8789 43.293 13.668C43.6875 13.457 44.1484 13.3516 44.6758 13.3516C45.1914 13.3516 45.6426 13.4434 46.0293 13.627C46.416 13.8066 46.7168 14.0762 46.9316 14.4355C47.1465 14.791 47.2539 15.2324 47.2539 15.7598C47.2539 15.9785 47.2031 16.209 47.1016 16.4512C47.0039 16.6934 46.8496 16.9219 46.6387 17.1367C46.4316 17.3477 46.1621 17.5215 45.8301 17.6582C45.498 17.791 45.0996 17.8574 44.6348 17.8574H43.709V17.207H44.4824ZM43.709 17.4414H44.6348C45.1777 17.4414 45.627 17.5059 45.9824 17.6348C46.3379 17.7637 46.6172 17.9355 46.8203 18.1504C47.0273 18.3613 47.1719 18.5957 47.2539 18.8535C47.3398 19.1113 47.3828 19.3672 47.3828 19.6211C47.3828 20.1523 47.2637 20.6035 47.0254 20.9746C46.791 21.3457 46.4688 21.6289 46.0586 21.8242C45.6523 22.0195 45.1934 22.1172 44.6816 22.1172C44.3105 22.1172 43.9609 22.0645 43.6328 21.959C43.3047 21.8535 43.0156 21.7012 42.7656 21.502C42.5195 21.2988 42.3262 21.0508 42.1855 20.7578C42.0449 20.4609 41.9746 20.123 41.9746 19.7441H43.0703C43.0703 20.041 43.1348 20.3027 43.2637 20.5293C43.3965 20.752 43.582 20.9258 43.8203 21.0508C44.0625 21.1758 44.3496 21.2383 44.6816 21.2383C45.1777 21.2383 45.5684 21.1055 45.8535 20.8398C46.1426 20.5742 46.2871 20.1758 46.2871 19.6445C46.2871 19.2891 46.2129 18.9961 46.0645 18.7656C45.916 18.5352 45.707 18.3652 45.4375 18.2559C45.168 18.1426 44.8496 18.0859 44.4824 18.0859H43.709V17.4414ZM49.375 17.7168L49.8086 13.4688H54.1855V14.459H50.7344L50.4824 16.7969C50.6348 16.707 50.8301 16.623 51.0684 16.5449C51.3105 16.4668 51.5879 16.4277 51.9004 16.4277C52.4238 16.4277 52.875 16.5449 53.2539 16.7793C53.6328 17.0137 53.9238 17.3438 54.127 17.7695C54.334 18.1953 54.4375 18.6992 54.4375 19.2812C54.4375 19.8242 54.3379 20.3105 54.1387 20.7402C53.9434 21.166 53.6465 21.502 53.248 21.748C52.8496 21.9941 52.3457 22.1172 51.7363 22.1172C51.3926 22.1172 51.0664 22.0703 50.7578 21.9766C50.4531 21.8789 50.1797 21.7324 49.9375 21.5371C49.6992 21.3379 49.5039 21.0918 49.3516 20.7988C49.1992 20.502 49.1055 20.1543 49.0703 19.7559H50.1074C50.1738 20.2402 50.3477 20.6094 50.6289 20.8633C50.9102 21.1133 51.2793 21.2383 51.7363 21.2383C52.0762 21.2383 52.3652 21.1602 52.6035 21.0039C52.8457 20.8438 53.0293 20.6191 53.1543 20.3301C53.2793 20.0371 53.3418 19.6914 53.3418 19.293C53.3418 18.9336 53.2754 18.6113 53.1426 18.3262C53.0137 18.041 52.8223 17.8145 52.5684 17.6465C52.3184 17.4785 52.0098 17.3945 51.6426 17.3945C51.2793 17.3945 51.0059 17.4434 50.8223 17.541C50.6387 17.6348 50.4492 17.7676 50.2539 17.9395L49.375 17.7168ZM59.2305 22H58.0586L61.3164 13.4688H62.0664L62.0488 14.2188L59.2305 22ZM61.5801 14.2188L61.5684 13.4688H62.3125L65.5762 22H64.4102L61.5801 14.2188ZM64.2695 19.7676H59.4707V18.8477H64.2695V19.7676ZM68.1895 13.4688L70.9727 20.4414L73.7559 13.4688H74.8633L71.4004 22H70.5391L67.082 13.4688H68.1895ZM67.6973 13.4688L67.8555 18.666V22H66.7246V13.4688H67.6973ZM75.2207 13.4688V22H74.0898V18.666L74.248 13.4688H75.2207Z" fill="#F5F5F5"/>
<g clip-path="url(#clip0_601_4687)">
<path d="M295.167 18.0002C295.167 15.8004 295.167 14.7002 295.85 14.0172C296.533 13.3335 297.633 13.3335 299.833 13.3335H302.167C304.366 13.3335 305.466 13.3335 306.15 14.0172C306.833 14.7002 306.833 15.8004 306.833 18.0002V19.1668C306.833 21.3666 306.833 22.4667 306.15 23.1498C305.466 23.8335 304.366 23.8335 302.167 23.8335H299.833C297.633 23.8335 296.533 23.8335 295.85 23.1498C295.167 22.4667 295.167 21.3666 295.167 19.1668V18.0002Z" stroke="#F5F5F5"/>
<path d="M298.083 13.3335V12.4585M303.916 13.3335V12.4585M295.458 16.2502H306.541" stroke="#F5F5F5" stroke-linecap="round"/>
</g>
<path d="M322 23.833C324.899 23.833 327.25 21.4825 327.25 18.583C327.25 15.6835 324.899 13.333 322 13.333C319.101 13.333 316.75 15.6835 316.75 18.583C316.75 21.4825 319.101 23.833 322 23.833Z" stroke="#F5F5F5"/>
<path d="M322 16.2498V18.5832L323.458 20.0415M317.042 13.6248L319.375 12.1665M326.958 13.6248L324.625 12.1665" stroke="#F5F5F5" stroke-linecap="round" stroke-linejoin="round"/>
<path d="M337.167 18.0002C337.167 15.8004 337.167 14.7002 337.85 14.0172C338.533 13.3335 339.633 13.3335 341.833 13.3335H342.708C344.908 13.3335 346.008 13.3335 346.691 14.0172C347.375 14.7002 347.375 15.8004 347.375 18.0002C347.375 20.1999 347.375 21.3001 346.691 21.9832C346.008 22.6668 344.908 22.6668 342.708 22.6668H341.833C339.633 22.6668 338.533 22.6668 337.85 21.9832C337.167 21.3001 337.167 20.1999 337.167 18.0002Z" stroke="#F5F5F5"/>
<path d="M340.083 16.25C340.083 16.25 340.375 16.775 340.375 18C340.375 19.225 340.083 19.75 340.083 19.75M342.125 16.25C342.125 16.25 342.416 16.775 342.416 18C342.416 19.225 342.125 19.75 342.125 19.75M348.833 19.1667V16.8333" stroke="#F5F5F5" stroke-linecap="round"/>
<g clip-path="url(#clip1_601_4687)">
<rect width="80" height="80" rx="40" transform="matrix(1 0 0 -1 147 756)" fill="#F43F5E"/>
<path d="M170.557 699.311C170.195 700.032 170.017 700.924 169.661 702.705L168.464 708.688C168.295 709.503 168.293 710.345 168.46 711.161C168.627 711.978 168.959 712.751 169.436 713.435C169.912 714.118 170.523 714.697 171.231 715.137C171.939 715.576 172.729 715.866 173.553 715.989C174.377 716.113 175.217 716.066 176.023 715.854C176.828 715.641 177.582 715.266 178.237 714.751C178.893 714.237 179.437 713.595 179.835 712.863C180.234 712.131 180.479 711.326 180.556 710.497L180.696 709.116C180.618 709.995 180.725 710.88 181.01 711.715C181.294 712.55 181.75 713.317 182.348 713.966C182.945 714.615 183.672 715.131 184.481 715.483C185.29 715.835 186.164 716.014 187.046 716.009C187.928 716.003 188.8 715.814 189.605 715.452C190.409 715.091 191.13 714.565 191.72 713.909C192.31 713.253 192.756 712.481 193.031 711.643C193.305 710.804 193.401 709.918 193.313 709.04L193.461 710.497C193.538 711.326 193.783 712.131 194.182 712.863C194.58 713.595 195.124 714.237 195.779 714.751C196.435 715.266 197.189 715.641 197.994 715.854C198.8 716.066 199.64 716.113 200.464 715.989C201.288 715.866 202.078 715.576 202.786 715.137C203.494 714.697 204.105 714.118 204.581 713.435C205.058 712.751 205.39 711.978 205.557 711.161C205.724 710.345 205.722 709.503 205.553 708.688L204.356 702.705C204 700.924 203.822 700.034 203.46 699.311C203.082 698.559 202.551 697.895 201.9 697.361C201.25 696.828 200.494 696.437 199.682 696.214C198.902 696 197.993 696 196.177 696H177.84C176.024 696 175.115 696 174.335 696.214C173.523 696.437 172.767 696.828 172.117 697.361C171.466 697.895 170.934 698.559 170.557 699.311ZM199.55 719.01C201.114 719.015 202.653 718.614 204.016 717.848V720.011C204.016 727.556 204.016 731.33 201.671 733.673C199.784 735.562 196.973 735.928 192.011 736V729.015C192.011 727.144 192.011 726.21 191.609 725.513C191.345 725.057 190.966 724.678 190.51 724.415C189.814 724.013 188.879 724.013 187.008 724.013C185.138 724.013 184.203 724.013 183.507 724.415C183.051 724.678 182.672 725.057 182.408 725.513C182.006 726.21 182.006 727.144 182.006 729.015V736C177.044 735.928 174.233 735.56 172.346 733.673C170.001 731.33 170.001 727.556 170.001 720.011V717.848C171.364 718.614 172.903 719.015 174.467 719.01C176.779 719.012 179.005 718.134 180.694 716.553C182.414 718.138 184.669 719.016 187.008 719.01C189.347 719.015 191.601 718.137 193.321 716.553C195.011 718.135 197.24 719.014 199.554 719.01H199.55Z" fill="#F5F5F5"/>
<rect width="56" height="56" rx="28" transform="matrix(1 0 0 -1 252 744)" fill="#2A3436"/>
<path d="M276.839 710.211V709.158C276.839 708.32 277.172 707.517 277.764 706.925C278.356 706.333 279.159 706 279.997 706C280.834 706 281.638 706.333 282.23 706.925C282.822 707.517 283.155 708.32 283.155 709.158V710.211M277.018 719.684C277.235 720.301 277.639 720.834 278.172 721.212C278.706 721.589 279.343 721.792 279.997 721.792C280.651 721.792 281.288 721.589 281.822 721.212C282.355 720.834 282.758 720.301 282.976 719.684M271.359 716.558C271.924 713.728 272.207 712.316 273.141 711.404C273.314 711.236 273.5 711.083 273.699 710.947C274.776 710.211 276.218 710.211 279.102 710.211H280.895C283.778 710.211 285.219 710.211 286.295 710.947C286.495 711.084 286.681 711.238 286.853 711.405C287.787 712.316 288.071 713.729 288.636 716.557C289.447 720.616 289.854 722.645 288.919 724.083C288.751 724.344 288.553 724.585 288.33 724.802C287.102 726 285.034 726 280.895 726H279.102C274.962 726 272.893 726 271.665 724.802C271.443 724.585 271.246 724.344 271.077 724.083C270.142 722.645 270.549 720.616 271.361 716.557L271.359 716.558Z" stroke="#F5F5F5" stroke-width="1.5" stroke-linecap="round"/>
<rect width="56" height="56" rx="28" transform="matrix(1 0 0 -1 333 744)" fill="#2A3436"/>
<path d="M351 716C351 711.286 351 708.929 352.464 707.464C353.93 706 356.286 706 361 706C365.714 706 368.071 706 369.535 707.464C371 708.93 371 711.286 371 716C371 720.714 371 723.071 369.535 724.535C368.072 726 365.714 726 361 726C356.286 726 353.929 726 352.464 724.535C351 723.072 351 720.714 351 716Z" stroke="#F5F5F5" stroke-width="1.5"/>
<path d="M356 722V719M361 722V716M366 722V713" stroke="#F5F5F5" stroke-width="1.5" stroke-linecap="round"/>
</g>
<defs>
<clipPath id="clip0_601_4687">
<rect width="14" height="14" fill="white" transform="translate(294 11)"/>
</clipPath>
<clipPath id="clip1_601_4687">
<rect width="375" height="80" fill="white" transform="translate(0 676)"/>
</clipPath>
</defs>
</svg>
